<?xml version="1.0" encoding="UTF-8" standalone="no"?>
<!-- Created with Inkscape (http://www.inkscape.org/) -->

<svg
   width="512"
   height="512"
   viewBox="0 0 135.46667 135.46666"
   version="1.1"
   id="svg5"
   inkscape:version="1.1 (1:1.1+202105261517+ce6663b3b7)"
   sodipodi:docname="amirLogo.svg"
   xmlns:inkscape="http://www.inkscape.org/namespaces/inkscape"
   xmlns:sodipodi="http://sodipodi.sourceforge.net/DTD/sodipodi-0.dtd"
   xmlns="http://www.w3.org/2000/svg"
   xmlns:svg="http://www.w3.org/2000/svg">
  <sodipodi:namedview
     id="namedview7"
     pagecolor="#ffffff"
     bordercolor="#666666"
     borderopacity="1.0"
     inkscape:pageshadow="2"
     inkscape:pageopacity="0.0"
     inkscape:pagecheckerboard="0"
     inkscape:document-units="mm"
     showgrid="false"
     inkscape:zoom="0.53795867"
     inkscape:cx="204.47667"
     inkscape:cy="124.54488"
     inkscape:window-width="1920"
     inkscape:window-height="1016"
     inkscape:window-x="0"
     inkscape:window-y="40"
     inkscape:window-maximized="1"
     inkscape:current-layer="layer1"
     width="300px"
     inkscape:snap-page="true"
     units="px" />
  <defs
     id="defs2" />
  <g
     inkscape:label="Layer 1"
     inkscape:groupmode="layer"
     id="layer1">
    <rect
       style="font-size:38.9627px;line-height:1.25;font-family:FreeMono;-inkscape-font-specification:'FreeMono, Normal';fill:#000000;stroke:none;stroke-width:2.36636;stroke-linecap:round;stroke-linejoin:bevel;stroke-miterlimit:4;stroke-dasharray:none"
       id="rect34981"
       width="135.46666"
       height="135.46666"
       x="-1.7763568e-15"
       y="0"
       inkscape:export-filename="/home/amir/Documents/amirLogo.png"
       inkscape:export-xdpi="96"
       inkscape:export-ydpi="96" />
    <g
       id="g47613"
       style="font-size:38.9627px;line-height:1.25;font-family:FreeMono;-inkscape-font-specification:'FreeMono, Normal';stroke-width:1.03978"
       transform="matrix(1.7350034,0,0,1.7350034,-123.10862,-504.70419)">
      <path
         d="m 83.156187,325.39945 c 0,-0.57145 0.883154,-1.05199 2.649463,-1.44162 1.766309,-0.4156 3.142992,-0.6234 4.130047,-0.6234 1.818259,0 3.31183,0.45456 4.480713,1.36369 1.194853,0.90913 1.79228,2.05203 1.79228,3.42872 v 10.40304 h 2.104008 c 0.701334,0 1.052004,0.25975 1.052004,0.77925 0,0.54548 -0.35067,0.81822 -1.052004,0.81822 H 94.61122 v -2.6105 c -2.311787,2.15593 -4.792412,3.2339 -7.441875,3.2339 -1.818259,0 -3.285854,-0.45456 -4.402785,-1.36369 -1.116931,-0.93511 -1.675396,-2.14295 -1.675396,-3.62353 0,-1.68839 0.753279,-3.05208 2.259836,-4.09109 1.532533,-1.06498 3.519631,-1.59747 5.961293,-1.59747 1.532533,0 3.298842,0.27274 5.298927,0.81822 v -2.76635 c 0,-0.96108 -0.441577,-1.72735 -1.324731,-2.2988 -0.883155,-0.59743 -2.039048,-0.89614 -3.46768,-0.89614 -1.194857,0 -2.428676,0.2078 -3.701457,0.6234 -1.272781,0.4156 -2.013073,0.6234 -2.220874,0.6234 -0.207801,0 -0.389627,-0.0779 -0.545478,-0.23377 -0.129875,-0.15585 -0.194813,-0.33768 -0.194813,-0.54548 z m 11.455033,10.36408 v -3.50665 c -1.558507,-0.38963 -3.220916,-0.58444 -4.987225,-0.58444 -2.052035,0 -3.727431,0.38963 -5.026188,1.16888 -1.272781,0.75328 -1.909172,1.74034 -1.909172,2.96117 0,1.01303 0.402614,1.83124 1.207843,2.45465 0.805229,0.59743 1.883197,0.89614 3.233904,0.89614 1.376682,0 2.636476,-0.25975 3.779382,-0.77925 1.168881,-0.51951 2.4027,-1.38967 3.701456,-2.6105 z"
         id="path35085"
         style="fill:none;stroke:#ffffff;stroke-width:1"
         sodipodi:nodetypes="scscscsssccscscscscssscsccscscscc" />
      <path
         d="m 109.33281,319.2823 q -2.41569,0 -4.16901,1.052 -1.75332,1.05199 -2.57154,2.57154 -0.77926,1.51954 -1.12992,2.76635 -0.35066,1.2468 -0.35066,2.10398 v 2.84428 q 0,3.9742 2.41568,6.27299 2.41569,2.25984 6.62366,2.25984 2.72739,0 5.57167,-1.32473 v -5.84441 h -5.41582 q -1.05199,0 -1.05199,-0.81821 0,-0.77926 1.05199,-0.77926 h 7.55877 q 1.09095,0 1.09095,0.77926 0,0.81821 -1.09095,0.81821 h -0.54548 v 6.74055 q -3.50664,2.02606 -7.28603,2.02606 -4.79241,0 -7.67565,-2.76635 -2.84428,-2.76635 -2.84428,-7.36395 v -2.88324 q 0,-4.09108 2.72739,-7.05225 2.76636,-3.00013 7.01329,-3.00013 3.85731,0 6.46781,2.10399 v -0.54548 q 0,-1.05199 0.81822,-1.05199 0.77925,0 0.77925,1.05199 v 3.54561 q 0,1.05199 -0.77925,1.05199 -0.7403,0 -0.77926,-0.97407 -0.11689,-1.48058 -1.9871,-2.53257 -1.87021,-1.052 -4.44174,-1.052 z"
         id="path35087"
         style="fill:none;stroke:#ffffff;stroke-width:1" />
      <path
         d="m 134.45738,328.90609 c 0,-1.16888 -0.44158,-2.11697 -1.32473,-2.84428 -0.88315,-0.75327 -2.03905,-1.12991 -3.46768,-1.12991 -1.09095,0 -2.00008,0.22079 -2.72739,0.66236 -0.70133,0.4156 -1.58448,1.2468 -2.64946,2.49361 l -0.42859,0.50652 v 9.93549 h 1.75332 c 0.72731,0 1.09096,0.25975 1.09096,0.77925 0,0.54548 -0.36365,0.81822 -1.09096,0.81822 h -5.14307 c -0.70133,0 -1.052,-0.27274 -1.052,-0.81822 0,-0.5195 0.35067,-0.77925 1.052,-0.77925 h 1.79228 v -20.33853 h -2.10399 c -0.70133,0 -1.05199,-0.27274 -1.05199,-0.81822 0,-0.5195 0.35066,-0.77925 1.05199,-0.77925 h 3.70146 v 10.01341 c 0.98705,-1.19485 1.93515,-2.03904 2.84428,-2.53257 0.90913,-0.49353 1.96112,-0.74029 3.15598,-0.74029 1.81826,0 3.29884,0.5195 4.44174,1.5585 1.16889,1.01303 1.75333,2.31179 1.75333,3.89627 v 9.74068 h 1.75332 c 0.7273,0 1.09095,0.25975 1.09095,0.77925 0,0.54548 -0.36365,0.81822 -1.09095,0.81822 h -5.10412 c -0.70133,0 -1.05199,-0.27274 -1.05199,-0.81822 0,-0.5195 0.35066,-0.77925 1.05199,-0.77925 h 1.75332 z"
         id="path35089"
         style="fill:none;stroke:#ffffff;stroke-width:1"
         sodipodi:nodetypes="scsccccssssssccsssccsscscsssssscs" />
      <path
         style="fill:none;stroke:#ffffff;stroke-width:0.872818;stroke-linecap:round;stroke-linejoin:miter;stroke-miterlimit:4;stroke-dasharray:none;stroke-opacity:1"
         d="M 94.611224,341.94687 H 138.89913"
         id="path35091"
         sodipodi:nodetypes="cc" />
      <path
         style="fill:none;stroke:#ffffff;stroke-width:1;stroke-linecap:round;stroke-linejoin:miter;stroke-miterlimit:4;stroke-dasharray:none;stroke-opacity:1"
         d="m 81.091164,343.25097 57.807966,0.0242"
         id="path35093"
         sodipodi:nodetypes="cc" />
    </g>
  </g>
</svg>
