<?xml version="1.0" encoding="UTF-8" standalone="no"?>
<!DOCTYPE svg PUBLIC "-//W3C//DTD SVG 1.1//EN" "http://www.w3.org/Graphics/SVG/1.1/DTD/svg11.dtd">
<!-- Created with Vectornator (http://vectornator.io/) -->
<svg height="100%" stroke-miterlimit="10" style="fill-rule:nonzero;clip-rule:evenodd;stroke-linecap:round;stroke-linejoin:round;" version="1.1" viewBox="0 0 1155 1155" width="100%" xml:space="preserve" xmlns="http://www.w3.org/2000/svg" xmlns:xlink="http://www.w3.org/1999/xlink">
<defs/>
<g id="Untitled">
<g opacity="1">
<path d="M385 82.0312L385 70L362.031 70C358.705 70 355.867 71.1735 353.521 73.5206C351.174 75.8677 350 78.7045 350 82.0312L350 92.9687C350 96.2955 351.174 99.1326 353.521 101.479C355.868 103.826 358.705 105 362.031 105L385 105L385 82.0312Z" fill="#111111" fill-rule="nonzero" opacity="1" stroke="none"/>
<path d="M385 70L420 70L420 70L420 105L420 105L385 105L385 105L385 70L385 70Z" fill="#111111" fill-rule="nonzero" opacity="1" stroke="none"/>
<path d="M420 70L455 70L455 70L455 105L455 105L420 105L420 105L420 70L420 70Z" fill="#111111" fill-rule="nonzero" opacity="1" stroke="none"/>
<path d="M490 82.0312C490 78.7045 488.826 75.8674 486.479 73.5206C484.133 71.1739 481.295 70 477.969 70L455 70L455 105L490 105L490 82.0312Z" fill="#111111" fill-rule="nonzero" opacity="1" stroke="none"/>
<path d="M560 82.0312C560 78.7045 558.826 75.8674 556.479 73.5206C554.133 71.1739 551.295 70 547.969 70L537.031 70C533.705 70 530.867 71.1735 528.521 73.5206C526.174 75.8677 525 78.7045 525 82.0312L525 92.9687C525 93.1511 525.023 93.4248 525.068 93.7891L525 93.7891L525 105L560 105L560 93.7892L559.932 93.7892C559.978 93.4248 560 93.1515 560 92.9688L560 82.0312Z" fill="#111111" fill-rule="nonzero" opacity="1" stroke="none"/>
<path d="M630 82.0312C630 78.7045 628.826 75.8674 626.479 73.5206C624.133 71.1739 621.295 70 617.969 70L607.031 70C603.705 70 600.867 71.1735 598.521 73.5206C596.174 75.8677 595 78.7045 595 82.0312L595 92.9687C595 93.1511 595.023 93.4248 595.068 93.7891L595 93.7891L595 105L630 105L630 93.7892L629.932 93.7892C629.978 93.4248 630 93.1515 630 92.9688L630 82.0312Z" fill="#111111" fill-rule="nonzero" opacity="1" stroke="none"/>
<path d="M700 82.0312L700 70L677.031 70C673.705 70 670.867 71.1735 668.521 73.5206C666.174 75.8677 665 78.7045 665 82.0312L665 92.9687C665 96.2955 666.174 99.1326 668.521 101.479C670.868 103.826 673.705 105 677.031 105L700 105L700 82.0312Z" fill="#111111" fill-rule="nonzero" opacity="1" stroke="none"/>
<path d="M735 82.0312C735 78.7045 733.826 75.8674 731.479 73.5206C729.133 71.1739 726.295 70 722.969 70L700 70L700 105L735 105L735 82.0312Z" fill="#111111" fill-rule="nonzero" opacity="1" stroke="none"/>
<path d="M420 105L385 105L385 127.969C385 131.295 386.174 134.133 388.521 136.479C390.868 138.826 393.705 140 397.031 140L420 140L420 105Z" fill="#111111" fill-rule="nonzero" opacity="1" stroke="none"/>
<path d="M420 105L455 105L455 105L455 140L455 140L420 140L420 140L420 105L420 105Z" fill="#111111" fill-rule="nonzero" opacity="1" stroke="none"/>
<path d="M490 105L455 105L455 140L477.969 140C481.295 140 484.133 138.826 486.479 136.479C488.826 134.133 490 131.295 490 127.969L490 105Z" fill="#111111" fill-rule="nonzero" opacity="1" stroke="none"/>
<path d="M560 105L525 105L525 127.969C525 131.295 526.174 134.133 528.521 136.479C530.868 138.826 533.705 140 537.031 140L560 140L560 105Z" fill="#111111" fill-rule="nonzero" opacity="1" stroke="none"/>
<path d="M560 105L595 105L595 105L595 140L595 140L560 140L560 140L560 105L560 105Z" fill="#111111" fill-rule="nonzero" opacity="1" stroke="none"/>
<path d="M595 105L630 105L630 105L630 140L630 140L595 140L595 140L595 105L595 105Z" fill="#111111" fill-rule="nonzero" opacity="1" stroke="none"/>
<path d="M734.932 116.211L735 116.211L735 105L700 105L700 116.211L700.068 116.211C700.023 116.576 700 116.849 700 117.031L700 127.969C700 131.295 701.174 134.133 703.521 136.479C705.868 138.826 708.705 140 712.031 140L722.969 140C726.295 140 729.133 138.826 731.479 136.479C733.826 134.133 735 131.295 735 127.969L735 117.031C735 116.849 734.978 116.576 734.932 116.211Z" fill="#111111" fill-rule="nonzero" opacity="1" stroke="none"/>
<path d="M805 127.969C805 131.296 803.826 134.133 801.479 136.479C799.133 138.826 796.296 140 792.969 140L782.031 140C778.705 140 775.868 138.826 773.521 136.479C771.174 134.133 770 131.296 770 127.969L770 117.031C770 113.705 771.174 110.868 773.521 108.521C775.868 106.174 778.705 105 782.031 105L792.969 105C796.297 105 799.133 106.174 801.479 108.521C803.826 110.868 805 113.705 805 117.031L805 127.969Z" fill="#111111" fill-rule="nonzero" opacity="1" stroke="none"/>
<path d="M385 162.969C385 166.296 383.826 169.133 381.479 171.479C379.133 173.826 376.296 175 372.969 175L362.031 175C358.705 175 355.868 173.826 353.521 171.479C351.174 169.133 350 166.296 350 162.969L350 152.031C350 148.705 351.174 145.868 353.521 143.521C355.868 141.174 358.705 140 362.031 140L372.969 140C376.297 140 379.133 141.174 381.479 143.521C383.826 145.868 385 148.705 385 152.031L385 162.969Z" fill="#111111" fill-rule="nonzero" opacity="1" stroke="none"/>
<path d="M454.932 151.211L455 151.211L455 140L420 140L420 151.211L420.068 151.211C420.023 151.576 420 151.849 420 152.031L420 162.969C420 166.295 421.174 169.133 423.521 171.479C425.868 173.826 428.705 175 432.031 175L442.969 175C446.295 175 449.133 173.826 451.479 171.479C453.826 169.133 455 166.295 455 162.969L455 152.031C455 151.849 454.978 151.576 454.932 151.211Z" fill="#111111" fill-rule="nonzero" opacity="1" stroke="none"/>
<path d="M525 152.031C525 148.704 523.826 145.867 521.479 143.521C519.133 141.174 516.295 140 512.969 140L502.031 140C498.705 140 495.867 141.174 493.521 143.521C491.174 145.868 490 148.705 490 152.031L490 162.969C490 163.151 490.023 163.425 490.068 163.789L490 163.789L490 175L525 175L525 163.789L524.932 163.789C524.978 163.425 525 163.151 525 162.969L525 152.031Z" fill="#111111" fill-rule="nonzero" opacity="1" stroke="none"/>
<path d="M595 140L630 140L630 140L630 175L630 175L595 175L595 175L595 140L595 140Z" fill="#111111" fill-rule="nonzero" opacity="1" stroke="none"/>
<path d="M652.969 140L630 140L630 175L652.969 175C656.295 175 659.133 173.826 661.479 171.479C663.826 169.133 665 166.295 665 162.969L665 152.031C665 148.704 663.826 145.867 661.479 143.521C659.133 141.174 656.295 140 652.969 140Z" fill="#111111" fill-rule="nonzero" opacity="1" stroke="none"/>
<path d="M525 175L490 175L490 197.969C490 201.295 491.174 204.133 493.521 206.479C495.868 208.826 498.705 210 502.031 210L525 210L525 175Z" fill="#111111" fill-rule="nonzero" opacity="1" stroke="none"/>
<path d="M525 175L560 175L560 175L560 210L560 210L525 210L525 210L525 175L525 175Z" fill="#111111" fill-rule="nonzero" opacity="1" stroke="none"/>
<path d="M560 175L595 175L595 175L595 210L595 210L560 210L560 210L560 175L560 175Z" fill="#111111" fill-rule="nonzero" opacity="1" stroke="none"/>
<path d="M595 175L630 175L630 175L630 210L630 210L595 210L595 210L595 175L595 175Z" fill="#111111" fill-rule="nonzero" opacity="1" stroke="none"/>
<path d="M700 187.031C700 183.704 698.826 180.867 696.479 178.521C694.133 176.174 691.295 175 687.969 175L677.031 175C673.705 175 670.867 176.174 668.521 178.521C666.174 180.868 665 183.705 665 187.031L665 197.969C665 198.151 665.023 198.425 665.068 198.789L665 198.789L665 210L700 210L700 198.789L699.932 198.789C699.978 198.425 700 198.151 700 197.969L700 187.031Z" fill="#111111" fill-rule="nonzero" opacity="1" stroke="none"/>
<path d="M770 187.031L770 175L747.031 175C743.705 175 740.867 176.174 738.521 178.521C736.174 180.868 735 183.705 735 187.031L735 210L770 210L770 187.031Z" fill="#111111" fill-rule="nonzero" opacity="1" stroke="none"/>
<path d="M805 187.031C805 183.704 803.826 180.867 801.479 178.521C799.133 176.174 796.295 175 792.969 175L770 175L770 210L805 210L805 187.031Z" fill="#111111" fill-rule="nonzero" opacity="1" stroke="none"/>
<path d="M385 222.031L385 210L362.031 210C358.705 210 355.867 211.174 353.521 213.521C351.174 215.868 350 218.705 350 222.031L350 232.969C350 236.295 351.174 239.133 353.521 241.479C355.868 243.826 358.705 245 362.031 245L385 245L385 222.031Z" fill="#111111" fill-rule="nonzero" opacity="1" stroke="none"/>
<path d="M420 222.031C420 218.704 418.826 215.867 416.479 213.521C414.133 211.174 411.295 210 407.969 210L385 210L385 245L420 245L420 222.031Z" fill="#111111" fill-rule="nonzero" opacity="1" stroke="none"/>
<path d="M559.932 221.211L560 221.211L560 210L525 210L525 221.211L525.068 221.211C525.023 221.576 525 221.849 525 222.031L525 232.969C525 236.295 526.174 239.133 528.521 241.479C530.868 243.826 533.705 245 537.031 245L547.969 245C551.295 245 554.133 243.826 556.479 241.479C558.826 239.133 560 236.295 560 232.969L560 222.031C560 221.849 559.978 221.576 559.932 221.211Z" fill="#111111" fill-rule="nonzero" opacity="1" stroke="none"/>
<path d="M595 210L630 210L630 210L630 245L630 245L595 245L595 245L595 210L595 210Z" fill="#111111" fill-rule="nonzero" opacity="1" stroke="none"/>
<path d="M665 210L700 210L700 210L700 245L700 245L665 245L665 245L665 210L665 210Z" fill="#111111" fill-rule="nonzero" opacity="1" stroke="none"/>
<path d="M700 210L735 210L735 210L735 245L735 245L700 245L700 245L700 210L700 210Z" fill="#111111" fill-rule="nonzero" opacity="1" stroke="none"/>
<path d="M735 210L770 210L770 210L770 245L770 245L735 245L735 245L735 210L735 210Z" fill="#111111" fill-rule="nonzero" opacity="1" stroke="none"/>
<path d="M770 210L805 210L805 210L805 245L805 245L770 245L770 245L770 210L770 210Z" fill="#111111" fill-rule="nonzero" opacity="1" stroke="none"/>
<path d="M420 245L385 245L385 267.969C385 271.295 386.174 274.133 388.521 276.479C390.868 278.826 393.705 280 397.031 280L420 280L420 245Z" fill="#111111" fill-rule="nonzero" opacity="1" stroke="none"/>
<path d="M420 245L455 245L455 245L455 280L455 280L420 280L420 280L420 245L420 245Z" fill="#111111" fill-rule="nonzero" opacity="1" stroke="none"/>
<path d="M477.969 245L455 245L455 280L477.969 280C481.295 280 484.133 278.826 486.479 276.479C488.826 274.133 490 271.295 490 267.969L490 257.031C490 253.704 488.826 250.867 486.479 248.521C484.133 246.174 481.295 245 477.969 245Z" fill="#111111" fill-rule="nonzero" opacity="1" stroke="none"/>
<path d="M629.932 256.211L630 256.211L630 245L595 245L595 256.211L595.068 256.211C595.023 256.576 595 256.849 595 257.031L595 267.969C595 271.295 596.174 274.133 598.521 276.479C600.868 278.826 603.705 280 607.031 280L617.969 280C621.295 280 624.133 278.826 626.479 276.479C628.826 274.133 630 271.295 630 267.969L630 257.031C630 256.849 629.978 256.576 629.932 256.211Z" fill="#111111" fill-rule="nonzero" opacity="1" stroke="none"/>
<path d="M699.932 256.211L700 256.211L700 245L665 245L665 256.211L665.068 256.211C665.023 256.576 665 256.849 665 257.031L665 267.969C665 271.295 666.174 274.133 668.521 276.479C670.868 278.826 673.705 280 677.031 280L687.969 280C691.295 280 694.133 278.826 696.479 276.479C698.826 274.133 700 271.295 700 267.969L700 257.031C700 256.849 699.978 256.576 699.932 256.211Z" fill="#111111" fill-rule="nonzero" opacity="1" stroke="none"/>
<path d="M770 245L805 245L805 245L805 280L805 280L770 280L770 280L770 245L770 245Z" fill="#111111" fill-rule="nonzero" opacity="1" stroke="none"/>
<path d="M385 292.031C385 288.704 383.826 285.867 381.479 283.521C379.133 281.174 376.295 280 372.969 280L362.031 280C358.705 280 355.867 281.174 353.521 283.521C351.174 285.868 350 288.705 350 292.031L350 302.969C350 303.151 350.023 303.425 350.068 303.789L350 303.789L350 315L385 315L385 303.789L384.932 303.789C384.978 303.425 385 303.151 385 302.969L385 292.031Z" fill="#111111" fill-rule="nonzero" opacity="1" stroke="none"/>
<path d="M420 280L455 280L455 280L455 315L455 315L420 315L420 315L420 280L420 280Z" fill="#111111" fill-rule="nonzero" opacity="1" stroke="none"/>
<path d="M525 302.969C525 306.296 523.826 309.133 521.479 311.479C519.133 313.826 516.296 315 512.969 315L502.031 315C498.705 315 495.868 313.826 493.521 311.479C491.174 309.133 490 306.296 490 302.969L490 292.031C490 288.705 491.174 285.868 493.521 283.521C495.868 281.174 498.705 280 502.031 280L512.969 280C516.297 280 519.133 281.174 521.479 283.521C523.826 285.868 525 288.705 525 292.031L525 302.969Z" fill="#111111" fill-rule="nonzero" opacity="1" stroke="none"/>
<path d="M595 302.969C595 306.296 593.826 309.133 591.479 311.479C589.133 313.826 586.296 315 582.969 315L572.031 315C568.705 315 565.868 313.826 563.521 311.479C561.174 309.133 560 306.296 560 302.969L560 292.031C560 288.705 561.174 285.868 563.521 283.521C565.868 281.174 568.705 280 572.031 280L582.969 280C586.297 280 589.133 281.174 591.479 283.521C593.826 285.868 595 288.705 595 292.031L595 302.969Z" fill="#111111" fill-rule="nonzero" opacity="1" stroke="none"/>
<path d="M665 302.969C665 306.296 663.826 309.133 661.479 311.479C659.133 313.826 656.296 315 652.969 315L642.031 315C638.705 315 635.868 313.826 633.521 311.479C631.174 309.133 630 306.296 630 302.969L630 292.031C630 288.705 631.174 285.868 633.521 283.521C635.868 281.174 638.705 280 642.031 280L652.969 280C656.297 280 659.133 281.174 661.479 283.521C663.826 285.868 665 288.705 665 292.031L665 302.969Z" fill="#111111" fill-rule="nonzero" opacity="1" stroke="none"/>
<path d="M735 302.969C735 306.296 733.826 309.133 731.479 311.479C729.133 313.826 726.296 315 722.969 315L712.031 315C708.705 315 705.868 313.826 703.521 311.479C701.174 309.133 700 306.296 700 302.969L700 292.031C700 288.705 701.174 285.868 703.521 283.521C705.868 281.174 708.705 280 712.031 280L722.969 280C726.297 280 729.133 281.174 731.479 283.521C733.826 285.868 735 288.705 735 292.031L735 302.969Z" fill="#111111" fill-rule="nonzero" opacity="1" stroke="none"/>
<path d="M770 280L805 280L805 280L805 315L805 315L770 315L770 315L770 280L770 280Z" fill="#111111" fill-rule="nonzero" opacity="1" stroke="none"/>
<path d="M384.932 326.211L385 326.211L385 315L350 315L350 326.211L350.068 326.211C350.023 326.576 350 326.849 350 327.031L350 337.969C350 341.295 351.174 344.133 353.521 346.479C355.868 348.826 358.705 350 362.031 350L372.969 350C376.295 350 379.133 348.826 381.479 346.479C383.826 344.133 385 341.295 385 337.969L385 327.031C385 326.849 384.978 326.576 384.932 326.211Z" fill="#111111" fill-rule="nonzero" opacity="1" stroke="none"/>
<path d="M420 315L455 315L455 315L455 350L455 350L420 350L420 350L420 315L420 315Z" fill="#111111" fill-rule="nonzero" opacity="1" stroke="none"/>
<path d="M490 327.031C490 323.704 488.826 320.867 486.479 318.521C484.133 316.174 481.295 315 477.969 315L455 315L455 350L490 350L490 327.031Z" fill="#111111" fill-rule="nonzero" opacity="1" stroke="none"/>
<path d="M804.932 326.211L805 326.211L805 315L770 315L770 326.211L770.068 326.211C770.023 326.576 770 326.849 770 327.031L770 337.969C770 341.295 771.174 344.133 773.521 346.479C775.868 348.826 778.705 350 782.031 350L792.969 350C796.295 350 799.133 348.826 801.479 346.479C803.826 344.133 805 341.295 805 337.969L805 327.031C805 326.849 804.978 326.576 804.932 326.211Z" fill="#111111" fill-rule="nonzero" opacity="1" stroke="none"/>
<path d="M280 362.031L280 350L257.031 350C253.705 350 250.867 351.174 248.521 353.521C246.174 355.868 245 358.705 245 362.031L245 372.969C245 376.295 246.174 379.133 248.521 381.479C250.868 383.826 253.705 385 257.031 385L280 385L280 362.031Z" fill="#111111" fill-rule="nonzero" opacity="1" stroke="none"/>
<path d="M302.969 350L280 350L280 385L302.969 385C306.295 385 309.133 383.826 311.479 381.479C313.826 379.133 315 376.295 315 372.969L315 362.031C315 358.704 313.826 355.867 311.479 353.521C309.133 351.174 306.295 350 302.969 350Z" fill="#111111" fill-rule="nonzero" opacity="1" stroke="none"/>
<path d="M420 350L455 350L455 350L455 385L455 385L420 385L420 385L420 350L420 350Z" fill="#111111" fill-rule="nonzero" opacity="1" stroke="none"/>
<path d="M455 350L490 350L490 350L490 385L490 385L455 385L455 385L455 350L455 350Z" fill="#111111" fill-rule="nonzero" opacity="1" stroke="none"/>
<path d="M512.969 350L490 350L490 385L512.969 385C516.295 385 519.133 383.826 521.479 381.479C523.826 379.133 525 376.295 525 372.969L525 362.031C525 358.704 523.826 355.867 521.479 353.521C519.133 351.174 516.295 350 512.969 350Z" fill="#111111" fill-rule="nonzero" opacity="1" stroke="none"/>
<path d="M665 362.031C665 358.704 663.826 355.867 661.479 353.521C659.133 351.174 656.295 350 652.969 350L642.031 350C638.705 350 635.867 351.174 633.521 353.521C631.174 355.868 630 358.705 630 362.031L630 372.969C630 373.151 630.023 373.425 630.068 373.789L630 373.789L630 385L665 385L665 373.789L664.932 373.789C664.978 373.425 665 373.151 665 372.969L665 362.031Z" fill="#111111" fill-rule="nonzero" opacity="1" stroke="none"/>
<path d="M735 362.031C735 358.704 733.826 355.867 731.479 353.521C729.133 351.174 726.295 350 722.969 350L712.031 350C708.705 350 705.867 351.174 703.521 353.521C701.174 355.868 700 358.705 700 362.031L700 372.969C700 373.151 700.023 373.425 700.068 373.789L700 373.789L700 385L735 385L735 373.789L734.932 373.789C734.978 373.425 735 373.151 735 372.969L735 362.031Z" fill="#111111" fill-rule="nonzero" opacity="1" stroke="none"/>
<path d="M875 372.969C875 376.296 873.826 379.133 871.479 381.479C869.133 383.826 866.296 385 862.969 385L852.031 385C848.705 385 845.868 383.826 843.521 381.479C841.174 379.133 840 376.296 840 372.969L840 362.031C840 358.705 841.174 355.868 843.521 353.521C845.868 351.174 848.705 350 852.031 350L862.969 350C866.297 350 869.133 351.174 871.479 353.521C873.826 355.868 875 358.705 875 362.031L875 372.969Z" fill="#111111" fill-rule="nonzero" opacity="1" stroke="none"/>
<path d="M945 362.031C945 358.704 943.826 355.867 941.479 353.521C939.133 351.174 936.295 350 932.969 350L922.031 350C918.705 350 915.867 351.174 913.521 353.521C911.174 355.868 910 358.705 910 362.031L910 372.969C910 373.151 910.023 373.425 910.068 373.789L910 373.789L910 385L945 385L945 373.789L944.932 373.789C944.978 373.425 945 373.151 945 372.969L945 362.031Z" fill="#111111" fill-rule="nonzero" opacity="1" stroke="none"/>
<path d="M1015 362.031C1015 358.704 1013.83 355.867 1011.48 353.521C1009.13 351.174 1006.3 350 1002.97 350L992.031 350C988.705 350 985.867 351.174 983.521 353.521C981.174 355.868 980 358.705 980 362.031L980 372.969C980 373.151 980.023 373.425 980.068 373.789L980 373.789L980 385L1015 385L1015 373.789L1014.93 373.789C1014.98 373.425 1015 373.151 1015 372.969L1015 362.031Z" fill="#111111" fill-rule="nonzero" opacity="1" stroke="none"/>
<path d="M1085 372.969C1085 376.296 1083.83 379.133 1081.48 381.479C1079.13 383.826 1076.3 385 1072.97 385L1062.03 385C1058.7 385 1055.87 383.826 1053.52 381.479C1051.17 379.133 1050 376.296 1050 372.969L1050 362.031C1050 358.705 1051.17 355.868 1053.52 353.521C1055.87 351.174 1058.7 350 1062.03 350L1072.97 350C1076.3 350 1079.13 351.174 1081.48 353.521C1083.83 355.868 1085 358.705 1085 362.031L1085 372.969Z" fill="#111111" fill-rule="nonzero" opacity="1" stroke="none"/>
<path d="M210 397.031L210 385L187.031 385C183.705 385 180.867 386.174 178.521 388.521C176.174 390.868 175 393.705 175 397.031L175 407.969C175 411.295 176.174 414.133 178.521 416.479C180.868 418.826 183.705 420 187.031 420L210 420L210 397.031Z" fill="#111111" fill-rule="nonzero" opacity="1" stroke="none"/>
<path d="M232.969 385L210 385L210 420L232.969 420C236.295 420 239.133 418.826 241.479 416.479C243.826 414.133 245 411.295 245 407.969L245 397.031C245 393.704 243.826 390.867 241.479 388.521C239.133 386.174 236.295 385 232.969 385Z" fill="#111111" fill-rule="nonzero" opacity="1" stroke="none"/>
<path d="M420 397.031L420 385L397.031 385C393.705 385 390.867 386.174 388.521 388.521C386.174 390.868 385 393.705 385 397.031L385 407.969C385 411.295 386.174 414.133 388.521 416.479C390.868 418.826 393.705 420 397.031 420L420 420L420 397.031Z" fill="#111111" fill-rule="nonzero" opacity="1" stroke="none"/>
<path d="M420 385L455 385L455 385L455 420L455 420L420 420L420 420L420 385L420 385Z" fill="#111111" fill-rule="nonzero" opacity="1" stroke="none"/>
<path d="M630 385L665 385L665 385L665 420L665 420L630 420L630 420L630 385L630 385Z" fill="#111111" fill-rule="nonzero" opacity="1" stroke="none"/>
<path d="M700 385L735 385L735 385L735 420L735 420L700 420L700 420L700 385L700 385Z" fill="#111111" fill-rule="nonzero" opacity="1" stroke="none"/>
<path d="M757.969 385L735 385L735 420L757.969 420C761.295 420 764.133 418.826 766.479 416.479C768.826 414.133 770 411.295 770 407.969L770 397.031C770 393.704 768.826 390.867 766.479 388.521C764.133 386.174 761.295 385 757.969 385Z" fill="#111111" fill-rule="nonzero" opacity="1" stroke="none"/>
<path d="M910 397.031L910 385L887.031 385C883.705 385 880.867 386.174 878.521 388.521C876.174 390.868 875 393.705 875 397.031L875 407.969C875 411.295 876.174 414.133 878.521 416.479C880.868 418.826 883.705 420 887.031 420L910 420L910 397.031Z" fill="#111111" fill-rule="nonzero" opacity="1" stroke="none"/>
<path d="M910 385L945 385L945 385L945 420L945 420L910 420L910 420L910 385L910 385Z" fill="#111111" fill-rule="nonzero" opacity="1" stroke="none"/>
<path d="M980 385L1015 385L1015 385L1015 420L1015 420L980 420L980 420L980 385L980 385Z" fill="#111111" fill-rule="nonzero" opacity="1" stroke="none"/>
<path d="M1037.97 385L1015 385L1015 420L1037.97 420C1041.3 420 1044.13 418.826 1046.48 416.479C1048.83 414.133 1050 411.295 1050 407.969L1050 397.031C1050 393.704 1048.83 390.867 1046.48 388.521C1044.13 386.174 1041.3 385 1037.97 385Z" fill="#111111" fill-rule="nonzero" opacity="1" stroke="none"/>
<path d="M105 432.031L105 420L82.0312 420C78.7045 420 75.8674 421.174 73.5206 423.521C71.1739 425.868 70 428.705 70 432.031L70 455L105 455L105 432.031Z" fill="#111111" fill-rule="nonzero" opacity="1" stroke="none"/>
<path d="M105 420L140 420L140 420L140 455L140 455L105 455L105 455L105 420L105 420Z" fill="#111111" fill-rule="nonzero" opacity="1" stroke="none"/>
<path d="M162.969 420L140 420L140 455L162.969 455C166.295 455 169.133 453.826 171.479 451.479C173.826 449.133 175 446.295 175 442.969L175 432.031C175 428.704 173.826 425.867 171.479 423.521C169.133 421.174 166.295 420 162.969 420Z" fill="#111111" fill-rule="nonzero" opacity="1" stroke="none"/>
<path d="M315 442.969C315 446.296 313.826 449.133 311.479 451.479C309.133 453.826 306.296 455 302.969 455L292.031 455C288.705 455 285.868 453.826 283.521 451.479C281.174 449.133 280 446.296 280 442.969L280 432.031C280 428.705 281.174 425.868 283.521 423.521C285.868 421.174 288.705 420 292.031 420L302.969 420C306.297 420 309.133 421.174 311.479 423.521C313.826 425.868 315 428.705 315 432.031L315 442.969Z" fill="#111111" fill-rule="nonzero" opacity="1" stroke="none"/>
<path d="M420 420L455 420L455 420L455 455L455 455L420 455L420 455L420 420L420 420Z" fill="#111111" fill-rule="nonzero" opacity="1" stroke="none"/>
<path d="M525 432.031C525 428.704 523.826 425.867 521.479 423.521C519.133 421.174 516.295 420 512.969 420L502.031 420C498.705 420 495.867 421.174 493.521 423.521C491.174 425.868 490 428.705 490 432.031L490 442.969C490 443.151 490.023 443.425 490.068 443.789L490 443.789L490 455L525 455L525 443.789L524.932 443.789C524.978 443.425 525 443.151 525 442.969L525 432.031Z" fill="#111111" fill-rule="nonzero" opacity="1" stroke="none"/>
<path d="M665 420L630 420L630 442.969C630 446.295 631.174 449.133 633.521 451.479C635.868 453.826 638.705 455 642.031 455L665 455L665 420Z" fill="#111111" fill-rule="nonzero" opacity="1" stroke="none"/>
<path d="M665 420L700 420L700 420L700 455L700 455L665 455L665 455L665 420L665 420Z" fill="#111111" fill-rule="nonzero" opacity="1" stroke="none"/>
<path d="M735 420L700 420L700 455L722.969 455C726.295 455 729.133 453.826 731.479 451.479C733.826 449.133 735 446.295 735 442.969L735 420Z" fill="#111111" fill-rule="nonzero" opacity="1" stroke="none"/>
<path d="M840 432.031L840 420L817.031 420C813.705 420 810.867 421.174 808.521 423.521C806.174 425.868 805 428.705 805 432.031L805 442.969C805 446.295 806.174 449.133 808.521 451.479C810.868 453.826 813.705 455 817.031 455L840 455L840 432.031Z" fill="#111111" fill-rule="nonzero" opacity="1" stroke="none"/>
<path d="M875 432.031C875 428.704 873.826 425.867 871.479 423.521C869.133 421.174 866.295 420 862.969 420L840 420L840 455L875 455L875 432.031Z" fill="#111111" fill-rule="nonzero" opacity="1" stroke="none"/>
<path d="M910 420L945 420L945 420L945 455L945 455L910 455L910 455L910 420L910 420Z" fill="#111111" fill-rule="nonzero" opacity="1" stroke="none"/>
<path d="M1014.93 431.211L1015 431.211L1015 420L980 420L980 431.211L980.068 431.211C980.023 431.576 980 431.849 980 432.031L980 442.969C980 446.295 981.174 449.133 983.521 451.479C985.868 453.826 988.705 455 992.031 455L1002.97 455C1006.3 455 1009.13 453.826 1011.48 451.479C1013.83 449.133 1015 446.295 1015 442.969L1015 432.031C1015 431.849 1014.98 431.576 1014.93 431.211Z" fill="#111111" fill-rule="nonzero" opacity="1" stroke="none"/>
<path d="M70 455L105 455L105 455L105 490L105 490L70 490L70 490L70 455L70 455Z" fill="#111111" fill-rule="nonzero" opacity="1" stroke="none"/>
<path d="M140 455L105 455L105 490L127.969 490C131.295 490 134.133 488.826 136.479 486.479C138.826 484.133 140 481.295 140 477.969L140 455Z" fill="#111111" fill-rule="nonzero" opacity="1" stroke="none"/>
<path d="M280 467.031C280 463.704 278.826 460.867 276.479 458.521C274.133 456.174 271.295 455 267.969 455L257.031 455C253.705 455 250.867 456.174 248.521 458.521C246.174 460.868 245 463.705 245 467.031L245 477.969C245 478.151 245.023 478.425 245.068 478.789L245 478.789L245 490L280 490L280 478.789L279.932 478.789C279.978 478.425 280 478.151 280 477.969L280 467.031Z" fill="#111111" fill-rule="nonzero" opacity="1" stroke="none"/>
<path d="M350 467.031C350 463.704 348.826 460.867 346.479 458.521C344.133 456.174 341.295 455 337.969 455L327.031 455C323.705 455 320.867 456.174 318.521 458.521C316.174 460.868 315 463.705 315 467.031L315 477.969C315 478.151 315.023 478.425 315.068 478.789L315 478.789L315 490L350 490L350 478.789L349.932 478.789C349.978 478.425 350 478.151 350 477.969L350 467.031Z" fill="#111111" fill-rule="nonzero" opacity="1" stroke="none"/>
<path d="M420 467.031L420 455L397.031 455C393.705 455 390.867 456.174 388.521 458.521C386.174 460.868 385 463.705 385 467.031L385 490L420 490L420 467.031Z" fill="#111111" fill-rule="nonzero" opacity="1" stroke="none"/>
<path d="M455 455L420 455L420 490L442.969 490C446.295 490 449.133 488.826 451.479 486.479C453.826 484.133 455 481.295 455 477.969L455 455Z" fill="#111111" fill-rule="nonzero" opacity="1" stroke="none"/>
<path d="M524.932 466.211L525 466.211L525 455L490 455L490 466.211L490.068 466.211C490.023 466.576 490 466.849 490 467.031L490 477.969C490 481.295 491.174 484.133 493.521 486.479C495.868 488.826 498.705 490 502.031 490L512.969 490C516.295 490 519.133 488.826 521.479 486.479C523.826 484.133 525 481.295 525 477.969L525 467.031C525 466.849 524.978 466.576 524.932 466.211Z" fill="#111111" fill-rule="nonzero" opacity="1" stroke="none"/>
<path d="M595 467.031C595 463.704 593.826 460.867 591.479 458.521C589.133 456.174 586.295 455 582.969 455L572.031 455C568.705 455 565.867 456.174 563.521 458.521C561.174 460.868 560 463.705 560 467.031L560 477.969C560 478.151 560.023 478.425 560.068 478.789L560 478.789L560 490L595 490L595 478.789L594.932 478.789C594.978 478.425 595 478.151 595 477.969L595 467.031Z" fill="#111111" fill-rule="nonzero" opacity="1" stroke="none"/>
<path d="M770 467.031L770 455L747.031 455C743.705 455 740.867 456.174 738.521 458.521C736.174 460.868 735 463.705 735 467.031L735 477.969C735 481.295 736.174 484.133 738.521 486.479C740.868 488.826 743.705 490 747.031 490L770 490L770 467.031Z" fill="#111111" fill-rule="nonzero" opacity="1" stroke="none"/>
<path d="M792.969 455L770 455L770 490L792.969 490C796.295 490 799.133 488.826 801.479 486.479C803.826 484.133 805 481.295 805 477.969L805 467.031C805 463.704 803.826 460.867 801.479 458.521C799.133 456.174 796.295 455 792.969 455Z" fill="#111111" fill-rule="nonzero" opacity="1" stroke="none"/>
<path d="M840 455L875 455L875 455L875 490L875 490L840 490L840 490L840 455L840 455Z" fill="#111111" fill-rule="nonzero" opacity="1" stroke="none"/>
<path d="M875 455L910 455L910 455L910 490L910 490L875 490L875 490L875 455L875 455Z" fill="#111111" fill-rule="nonzero" opacity="1" stroke="none"/>
<path d="M945 455L910 455L910 490L932.969 490C936.295 490 939.133 488.826 941.479 486.479C943.826 484.133 945 481.295 945 477.969L945 455Z" fill="#111111" fill-rule="nonzero" opacity="1" stroke="none"/>
<path d="M104.932 501.211L105 501.211L105 490L70 490L70 501.211L70.0682 501.211C70.0227 501.576 70 501.849 70 502.031L70 512.969C70 516.295 71.1735 519.133 73.5206 521.479C75.8677 523.826 78.7045 525 82.0312 525L92.9687 525C96.2955 525 99.1326 523.826 101.479 521.479C103.826 519.133 105 516.295 105 512.969L105 502.031C105 501.849 104.978 501.576 104.932 501.211Z" fill="#111111" fill-rule="nonzero" opacity="1" stroke="none"/>
<path d="M175 502.031L175 490L152.031 490C148.705 490 145.867 491.174 143.521 493.521C141.174 495.868 140 498.705 140 502.031L140 512.969C140 516.295 141.174 519.133 143.521 521.479C145.868 523.826 148.705 525 152.031 525L175 525L175 502.031Z" fill="#111111" fill-rule="nonzero" opacity="1" stroke="none"/>
<path d="M197.969 490L175 490L175 525L197.969 525C201.295 525 204.133 523.826 206.479 521.479C208.826 519.133 210 516.295 210 512.969L210 502.031C210 498.704 208.826 495.867 206.479 493.521C204.133 491.174 201.295 490 197.969 490Z" fill="#111111" fill-rule="nonzero" opacity="1" stroke="none"/>
<path d="M280 490L245 490L245 512.969C245 516.295 246.174 519.133 248.521 521.479C250.868 523.826 253.705 525 257.031 525L280 525L280 490Z" fill="#111111" fill-rule="nonzero" opacity="1" stroke="none"/>
<path d="M280 490L315 490L315 490L315 525L315 525L280 525L280 525L280 490L280 490Z" fill="#111111" fill-rule="nonzero" opacity="1" stroke="none"/>
<path d="M315 490L350 490L350 490L350 525L350 525L315 525L315 525L315 490L315 490Z" fill="#111111" fill-rule="nonzero" opacity="1" stroke="none"/>
<path d="M350 490L385 490L385 490L385 525L385 525L350 525L350 525L350 490L350 490Z" fill="#111111" fill-rule="nonzero" opacity="1" stroke="none"/>
<path d="M420 490L385 490L385 525L407.969 525C411.295 525 414.133 523.826 416.479 521.479C418.826 519.133 420 516.295 420 512.969L420 490Z" fill="#111111" fill-rule="nonzero" opacity="1" stroke="none"/>
<path d="M490 502.031C490 498.704 488.826 495.867 486.479 493.521C484.133 491.174 481.295 490 477.969 490L467.031 490C463.705 490 460.867 491.174 458.521 493.521C456.174 495.868 455 498.705 455 502.031L455 512.969C455 513.151 455.023 513.425 455.068 513.789L455 513.789L455 525L490 525L490 513.789L489.932 513.789C489.978 513.425 490 513.151 490 512.969L490 502.031Z" fill="#111111" fill-rule="nonzero" opacity="1" stroke="none"/>
<path d="M560 502.031L560 490L537.031 490C533.705 490 530.867 491.174 528.521 493.521C526.174 495.868 525 498.705 525 502.031L525 512.969C525 516.295 526.174 519.133 528.521 521.479C530.868 523.826 533.705 525 537.031 525L560 525L560 502.031Z" fill="#111111" fill-rule="nonzero" opacity="1" stroke="none"/>
<path d="M595 490L560 490L560 525L582.969 525C586.295 525 589.133 523.826 591.479 521.479C593.826 519.133 595 516.295 595 512.969L595 490Z" fill="#111111" fill-rule="nonzero" opacity="1" stroke="none"/>
<path d="M665 502.031C665 498.704 663.826 495.867 661.479 493.521C659.133 491.174 656.295 490 652.969 490L642.031 490C638.705 490 635.867 491.174 633.521 493.521C631.174 495.868 630 498.705 630 502.031L630 512.969C630 513.151 630.023 513.425 630.068 513.789L630 513.789L630 525L665 525L665 513.789L664.932 513.789C664.978 513.425 665 513.151 665 512.969L665 502.031Z" fill="#111111" fill-rule="nonzero" opacity="1" stroke="none"/>
<path d="M735 512.969C735 516.296 733.826 519.133 731.479 521.479C729.133 523.826 726.296 525 722.969 525L712.031 525C708.705 525 705.868 523.826 703.521 521.479C701.174 519.133 700 516.296 700 512.969L700 502.031C700 498.705 701.174 495.868 703.521 493.521C705.868 491.174 708.705 490 712.031 490L722.969 490C726.297 490 729.133 491.174 731.479 493.521C733.826 495.868 735 498.705 735 502.031L735 512.969Z" fill="#111111" fill-rule="nonzero" opacity="1" stroke="none"/>
<path d="M840 502.031L840 490L817.031 490C813.705 490 810.867 491.174 808.521 493.521C806.174 495.868 805 498.705 805 502.031L805 512.969C805 516.295 806.174 519.133 808.521 521.479C810.868 523.826 813.705 525 817.031 525L840 525L840 502.031Z" fill="#111111" fill-rule="nonzero" opacity="1" stroke="none"/>
<path d="M840 490L875 490L875 490L875 525L875 525L840 525L840 525L840 490L840 490Z" fill="#111111" fill-rule="nonzero" opacity="1" stroke="none"/>
<path d="M980 502.031C980 498.704 978.826 495.867 976.479 493.521C974.133 491.174 971.295 490 967.969 490L957.031 490C953.705 490 950.867 491.174 948.521 493.521C946.174 495.868 945 498.705 945 502.031L945 512.969C945 513.151 945.023 513.425 945.068 513.789L945 513.789L945 525L980 525L980 513.789L979.932 513.789C979.978 513.425 980 513.151 980 512.969L980 502.031Z" fill="#111111" fill-rule="nonzero" opacity="1" stroke="none"/>
<path d="M1050 502.031C1050 498.704 1048.83 495.867 1046.48 493.521C1044.13 491.174 1041.3 490 1037.97 490L1027.03 490C1023.7 490 1020.87 491.174 1018.52 493.521C1016.17 495.868 1015 498.705 1015 502.031L1015 512.969C1015 513.151 1015.02 513.425 1015.07 513.789L1015 513.789L1015 525L1050 525L1050 513.789L1049.93 513.789C1049.98 513.425 1050 513.151 1050 512.969L1050 502.031Z" fill="#111111" fill-rule="nonzero" opacity="1" stroke="none"/>
<path d="M140 537.031C140 533.704 138.826 530.867 136.479 528.521C134.133 526.174 131.295 525 127.969 525L117.031 525C113.705 525 110.867 526.174 108.521 528.521C106.174 530.868 105 533.705 105 537.031L105 547.969C105 548.151 105.023 548.425 105.068 548.789L105 548.789L105 560L140 560L140 548.789L139.932 548.789C139.978 548.425 140 548.151 140 547.969L140 537.031Z" fill="#111111" fill-rule="nonzero" opacity="1" stroke="none"/>
<path d="M245 547.969C245 551.296 243.826 554.133 241.479 556.479C239.133 558.826 236.296 560 232.969 560L222.031 560C218.705 560 215.868 558.826 213.521 556.479C211.174 554.133 210 551.296 210 547.969L210 537.031C210 533.705 211.174 530.868 213.521 528.521C215.868 526.174 218.705 525 222.031 525L232.969 525C236.297 525 239.133 526.174 241.479 528.521C243.826 530.868 245 533.705 245 537.031L245 547.969Z" fill="#111111" fill-rule="nonzero" opacity="1" stroke="none"/>
<path d="M455 537.031L455 525L432.031 525C428.705 525 425.867 526.174 423.521 528.521C421.174 530.868 420 533.705 420 537.031L420 560L455 560L455 537.031Z" fill="#111111" fill-rule="nonzero" opacity="1" stroke="none"/>
<path d="M455 525L490 525L490 525L490 560L490 560L455 560L455 560L455 525L455 525Z" fill="#111111" fill-rule="nonzero" opacity="1" stroke="none"/>
<path d="M512.969 525L490 525L490 560L512.969 560C516.295 560 519.133 558.826 521.479 556.479C523.826 554.133 525 551.295 525 547.969L525 537.031C525 533.704 523.826 530.867 521.479 528.521C519.133 526.174 516.295 525 512.969 525Z" fill="#111111" fill-rule="nonzero" opacity="1" stroke="none"/>
<path d="M664.932 536.211L665 536.211L665 525L630 525L630 536.211L630.068 536.211C630.023 536.576 630 536.849 630 537.031L630 547.969C630 551.295 631.174 554.133 633.521 556.479C635.868 558.826 638.705 560 642.031 560L652.969 560C656.295 560 659.133 558.826 661.479 556.479C663.826 554.133 665 551.295 665 547.969L665 537.031C665 536.849 664.978 536.576 664.932 536.211Z" fill="#111111" fill-rule="nonzero" opacity="1" stroke="none"/>
<path d="M770 537.031L770 525L747.031 525C743.705 525 740.867 526.174 738.521 528.521C736.174 530.868 735 533.705 735 537.031L735 547.969C735 551.295 736.174 554.133 738.521 556.479C740.868 558.826 743.705 560 747.031 560L770 560L770 537.031Z" fill="#111111" fill-rule="nonzero" opacity="1" stroke="none"/>
<path d="M805 537.031C805 533.704 803.826 530.867 801.479 528.521C799.133 526.174 796.295 525 792.969 525L770 525L770 560L805 560L805 537.031Z" fill="#111111" fill-rule="nonzero" opacity="1" stroke="none"/>
<path d="M840 525L875 525L875 525L875 560L875 560L840 560L840 560L840 525L840 525Z" fill="#111111" fill-rule="nonzero" opacity="1" stroke="none"/>
<path d="M945 537.031L945 525L922.031 525C918.705 525 915.867 526.174 913.521 528.521C911.174 530.868 910 533.705 910 537.031L910 547.969C910 551.295 911.174 554.133 913.521 556.479C915.868 558.826 918.705 560 922.031 560L945 560L945 537.031Z" fill="#111111" fill-rule="nonzero" opacity="1" stroke="none"/>
<path d="M980 525L945 525L945 560L967.969 560C971.295 560 974.133 558.826 976.479 556.479C978.826 554.133 980 551.295 980 547.969L980 525Z" fill="#111111" fill-rule="nonzero" opacity="1" stroke="none"/>
<path d="M1050 525L1015 525L1015 547.969C1015 551.295 1016.17 554.133 1018.52 556.479C1020.87 558.826 1023.7 560 1027.03 560L1050 560L1050 525Z" fill="#111111" fill-rule="nonzero" opacity="1" stroke="none"/>
<path d="M1072.97 525L1050 525L1050 560L1072.97 560C1076.3 560 1079.13 558.826 1081.48 556.479C1083.83 554.133 1085 551.295 1085 547.969L1085 537.031C1085 533.704 1083.83 530.867 1081.48 528.521C1079.13 526.174 1076.3 525 1072.97 525Z" fill="#111111" fill-rule="nonzero" opacity="1" stroke="none"/>
<path d="M105 560L140 560L140 560L140 595L140 595L105 595L105 595L105 560L105 560Z" fill="#111111" fill-rule="nonzero" opacity="1" stroke="none"/>
<path d="M210 582.969C210 586.296 208.826 589.133 206.479 591.479C204.133 593.826 201.296 595 197.969 595L187.031 595C183.705 595 180.868 593.826 178.521 591.479C176.174 589.133 175 586.296 175 582.969L175 572.031C175 568.705 176.174 565.868 178.521 563.521C180.868 561.174 183.705 560 187.031 560L197.969 560C201.297 560 204.133 561.174 206.479 563.521C208.826 565.868 210 568.705 210 572.031L210 582.969Z" fill="#111111" fill-rule="nonzero" opacity="1" stroke="none"/>
<path d="M315 582.969C315 586.296 313.826 589.133 311.479 591.479C309.133 593.826 306.296 595 302.969 595L292.031 595C288.705 595 285.868 593.826 283.521 591.479C281.174 589.133 280 586.296 280 582.969L280 572.031C280 568.705 281.174 565.868 283.521 563.521C285.868 561.174 288.705 560 292.031 560L302.969 560C306.297 560 309.133 561.174 311.479 563.521C313.826 565.868 315 568.705 315 572.031L315 582.969Z" fill="#111111" fill-rule="nonzero" opacity="1" stroke="none"/>
<path d="M385 572.031L385 560L362.031 560C358.705 560 355.867 561.174 353.521 563.521C351.174 565.868 350 568.705 350 572.031L350 595L385 595L385 572.031Z" fill="#111111" fill-rule="nonzero" opacity="1" stroke="none"/>
<path d="M385 560L420 560L420 560L420 595L420 595L385 595L385 595L385 560L385 560Z" fill="#111111" fill-rule="nonzero" opacity="1" stroke="none"/>
<path d="M420 560L455 560L455 560L455 595L455 595L420 595L420 595L420 560L420 560Z" fill="#111111" fill-rule="nonzero" opacity="1" stroke="none"/>
<path d="M560 572.031L560 560L537.031 560C533.705 560 530.867 561.174 528.521 563.521C526.174 565.868 525 568.705 525 572.031L525 582.969C525 586.295 526.174 589.133 528.521 591.479C530.868 593.826 533.705 595 537.031 595L560 595L560 572.031Z" fill="#111111" fill-rule="nonzero" opacity="1" stroke="none"/>
<path d="M560 560L595 560L595 560L595 595L595 595L560 595L560 595L560 560L560 560Z" fill="#111111" fill-rule="nonzero" opacity="1" stroke="none"/>
<path d="M617.969 560L595 560L595 595L617.969 595C621.295 595 624.133 593.826 626.479 591.479C628.826 589.133 630 586.295 630 582.969L630 572.031C630 568.704 628.826 565.867 626.479 563.521C624.133 561.174 621.295 560 617.969 560Z" fill="#111111" fill-rule="nonzero" opacity="1" stroke="none"/>
<path d="M700 572.031C700 568.704 698.826 565.867 696.479 563.521C694.133 561.174 691.295 560 687.969 560L677.031 560C673.705 560 670.867 561.174 668.521 563.521C666.174 565.868 665 568.705 665 572.031L665 582.969C665 583.151 665.023 583.425 665.068 583.789L665 583.789L665 595L700 595L700 583.789L699.932 583.789C699.978 583.425 700 583.151 700 582.969L700 572.031Z" fill="#111111" fill-rule="nonzero" opacity="1" stroke="none"/>
<path d="M770 560L805 560L805 560L805 595L805 595L770 595L770 595L770 560L770 560Z" fill="#111111" fill-rule="nonzero" opacity="1" stroke="none"/>
<path d="M805 560L840 560L840 560L840 595L840 595L805 595L805 595L805 560L805 560Z" fill="#111111" fill-rule="nonzero" opacity="1" stroke="none"/>
<path d="M840 560L875 560L875 560L875 595L875 595L840 595L840 595L840 560L840 560Z" fill="#111111" fill-rule="nonzero" opacity="1" stroke="none"/>
<path d="M897.969 560L875 560L875 595L897.969 595C901.295 595 904.133 593.826 906.479 591.479C908.826 589.133 910 586.295 910 582.969L910 572.031C910 568.704 908.826 565.867 906.479 563.521C904.133 561.174 901.295 560 897.969 560Z" fill="#111111" fill-rule="nonzero" opacity="1" stroke="none"/>
<path d="M105 607.031L105 595L82.0312 595C78.7045 595 75.8674 596.174 73.5206 598.521C71.1739 600.868 70 603.705 70 607.031L70 630L105 630L105 607.031Z" fill="#111111" fill-rule="nonzero" opacity="1" stroke="none"/>
<path d="M105 595L140 595L140 595L140 630L140 630L105 630L105 630L105 595L105 595Z" fill="#111111" fill-rule="nonzero" opacity="1" stroke="none"/>
<path d="M350 607.031L350 595L327.031 595C323.705 595 320.867 596.174 318.521 598.521C316.174 600.868 315 603.705 315 607.031L315 617.969C315 621.295 316.174 624.133 318.521 626.479C320.868 628.826 323.705 630 327.031 630L350 630L350 607.031Z" fill="#111111" fill-rule="nonzero" opacity="1" stroke="none"/>
<path d="M350 595L385 595L385 595L385 630L385 630L350 630L350 630L350 595L350 595Z" fill="#111111" fill-rule="nonzero" opacity="1" stroke="none"/>
<path d="M385 595L420 595L420 595L420 630L420 630L385 630L385 630L385 595L385 595Z" fill="#111111" fill-rule="nonzero" opacity="1" stroke="none"/>
<path d="M420 595L455 595L455 595L455 630L455 630L420 630L420 630L420 595L420 595Z" fill="#111111" fill-rule="nonzero" opacity="1" stroke="none"/>
<path d="M490 607.031C490 603.704 488.826 600.867 486.479 598.521C484.133 596.174 481.295 595 477.969 595L455 595L455 630L490 630L490 607.031Z" fill="#111111" fill-rule="nonzero" opacity="1" stroke="none"/>
<path d="M665 607.031L665 595L642.031 595C638.705 595 635.867 596.174 633.521 598.521C631.174 600.868 630 603.705 630 607.031L630 617.969C630 621.295 631.174 624.133 633.521 626.479C635.868 628.826 638.705 630 642.031 630L665 630L665 607.031Z" fill="#111111" fill-rule="nonzero" opacity="1" stroke="none"/>
<path d="M700 595L665 595L665 630L687.969 630C691.295 630 694.133 628.826 696.479 626.479C698.826 624.133 700 621.295 700 617.969L700 595Z" fill="#111111" fill-rule="nonzero" opacity="1" stroke="none"/>
<path d="M770 607.031L770 595L747.031 595C743.705 595 740.867 596.174 738.521 598.521C736.174 600.868 735 603.705 735 607.031L735 617.969C735 621.295 736.174 624.133 738.521 626.479C740.868 628.826 743.705 630 747.031 630L770 630L770 607.031Z" fill="#111111" fill-rule="nonzero" opacity="1" stroke="none"/>
<path d="M805 595L770 595L770 630L792.969 630C796.295 630 799.133 628.826 801.479 626.479C803.826 624.133 805 621.295 805 617.969L805 595Z" fill="#111111" fill-rule="nonzero" opacity="1" stroke="none"/>
<path d="M874.932 606.211L875 606.211L875 595L840 595L840 606.211L840.068 606.211C840.023 606.576 840 606.849 840 607.031L840 617.969C840 621.295 841.174 624.133 843.521 626.479C845.868 628.826 848.705 630 852.031 630L862.969 630C866.295 630 869.133 628.826 871.479 626.479C873.826 624.133 875 621.295 875 617.969L875 607.031C875 606.849 874.978 606.576 874.932 606.211Z" fill="#111111" fill-rule="nonzero" opacity="1" stroke="none"/>
<path d="M945 607.031L945 595L922.031 595C918.705 595 915.867 596.174 913.521 598.521C911.174 600.868 910 603.705 910 607.031L910 617.969C910 621.295 911.174 624.133 913.521 626.479C915.868 628.826 918.705 630 922.031 630L945 630L945 607.031Z" fill="#111111" fill-rule="nonzero" opacity="1" stroke="none"/>
<path d="M945 595L980 595L980 595L980 630L980 630L945 630L945 630L945 595L945 595Z" fill="#111111" fill-rule="nonzero" opacity="1" stroke="none"/>
<path d="M980 595L1015 595L1015 595L1015 630L1015 630L980 630L980 630L980 595L980 595Z" fill="#111111" fill-rule="nonzero" opacity="1" stroke="none"/>
<path d="M1015 595L1050 595L1050 595L1050 630L1050 630L1015 630L1015 630L1015 595L1015 595Z" fill="#111111" fill-rule="nonzero" opacity="1" stroke="none"/>
<path d="M1085 607.031C1085 603.704 1083.83 600.867 1081.48 598.521C1079.13 596.174 1076.3 595 1072.97 595L1050 595L1050 630L1085 630L1085 607.031Z" fill="#111111" fill-rule="nonzero" opacity="1" stroke="none"/>
<path d="M70 630L105 630L105 630L105 665L105 665L70 665L70 665L70 630L70 630Z" fill="#111111" fill-rule="nonzero" opacity="1" stroke="none"/>
<path d="M140 630L105 630L105 665L127.969 665C131.295 665 134.133 663.826 136.479 661.479C138.826 659.133 140 656.295 140 652.969L140 630Z" fill="#111111" fill-rule="nonzero" opacity="1" stroke="none"/>
<path d="M280 642.031L280 630L257.031 630C253.705 630 250.867 631.174 248.521 633.521C246.174 635.868 245 638.705 245 642.031L245 652.969C245 656.295 246.174 659.133 248.521 661.479C250.868 663.826 253.705 665 257.031 665L280 665L280 642.031Z" fill="#111111" fill-rule="nonzero" opacity="1" stroke="none"/>
<path d="M302.969 630L280 630L280 665L302.969 665C306.295 665 309.133 663.826 311.479 661.479C313.826 659.133 315 656.295 315 652.969L315 642.031C315 638.704 313.826 635.867 311.479 633.521C309.133 631.174 306.295 630 302.969 630Z" fill="#111111" fill-rule="nonzero" opacity="1" stroke="none"/>
<path d="M385 630L420 630L420 630L420 665L420 665L385 665L385 665L385 630L385 630Z" fill="#111111" fill-rule="nonzero" opacity="1" stroke="none"/>
<path d="M489.932 641.211L490 641.211L490 630L455 630L455 641.211L455.068 641.211C455.023 641.576 455 641.849 455 642.031L455 652.969C455 656.295 456.174 659.133 458.521 661.479C460.868 663.826 463.705 665 467.031 665L477.969 665C481.295 665 484.133 663.826 486.479 661.479C488.826 659.133 490 656.295 490 652.969L490 642.031C490 641.849 489.978 641.576 489.932 641.211Z" fill="#111111" fill-rule="nonzero" opacity="1" stroke="none"/>
<path d="M560 642.031L560 630L537.031 630C533.705 630 530.867 631.174 528.521 633.521C526.174 635.868 525 638.705 525 642.031L525 652.969C525 656.295 526.174 659.133 528.521 661.479C530.868 663.826 533.705 665 537.031 665L560 665L560 642.031Z" fill="#111111" fill-rule="nonzero" opacity="1" stroke="none"/>
<path d="M560 630L595 630L595 630L595 665L595 665L560 665L560 665L560 630L560 630Z" fill="#111111" fill-rule="nonzero" opacity="1" stroke="none"/>
<path d="M630 642.031C630 638.704 628.826 635.867 626.479 633.521C624.133 631.174 621.295 630 617.969 630L595 630L595 665L630 665L630 642.031Z" fill="#111111" fill-rule="nonzero" opacity="1" stroke="none"/>
<path d="M910 642.031C910 638.704 908.826 635.867 906.479 633.521C904.133 631.174 901.295 630 897.969 630L887.031 630C883.705 630 880.867 631.174 878.521 633.521C876.174 635.868 875 638.705 875 642.031L875 652.969C875 653.151 875.023 653.425 875.068 653.789L875 653.789L875 665L910 665L910 653.789L909.932 653.789C909.978 653.425 910 653.151 910 652.969L910 642.031Z" fill="#111111" fill-rule="nonzero" opacity="1" stroke="none"/>
<path d="M945 630L980 630L980 630L980 665L980 665L945 665L945 665L945 630L945 630Z" fill="#111111" fill-rule="nonzero" opacity="1" stroke="none"/>
<path d="M980 630L1015 630L1015 630L1015 665L1015 665L980 665L980 665L980 630L980 630Z" fill="#111111" fill-rule="nonzero" opacity="1" stroke="none"/>
<path d="M1015 630L1050 630L1050 630L1050 665L1050 665L1015 665L1015 665L1015 630L1015 630Z" fill="#111111" fill-rule="nonzero" opacity="1" stroke="none"/>
<path d="M1050 630L1085 630L1085 630L1085 665L1085 665L1050 665L1050 665L1050 630L1050 630Z" fill="#111111" fill-rule="nonzero" opacity="1" stroke="none"/>
<path d="M70 665L105 665L105 665L105 700L105 700L70 700L70 700L70 665L70 665Z" fill="#111111" fill-rule="nonzero" opacity="1" stroke="none"/>
<path d="M210 687.969C210 691.296 208.826 694.133 206.479 696.479C204.133 698.826 201.296 700 197.969 700L187.031 700C183.705 700 180.868 698.826 178.521 696.479C176.174 694.133 175 691.296 175 687.969L175 677.031C175 673.705 176.174 670.868 178.521 668.521C180.868 666.174 183.705 665 187.031 665L197.969 665C201.297 665 204.133 666.174 206.479 668.521C208.826 670.868 210 673.705 210 677.031L210 687.969Z" fill="#111111" fill-rule="nonzero" opacity="1" stroke="none"/>
<path d="M350 677.031L350 665L327.031 665C323.705 665 320.867 666.174 318.521 668.521C316.174 670.868 315 673.705 315 677.031L315 687.969C315 691.295 316.174 694.133 318.521 696.479C320.868 698.826 323.705 700 327.031 700L350 700L350 677.031Z" fill="#111111" fill-rule="nonzero" opacity="1" stroke="none"/>
<path d="M350 665L385 665L385 665L385 700L385 700L350 700L350 700L350 665L350 665Z" fill="#111111" fill-rule="nonzero" opacity="1" stroke="none"/>
<path d="M420 665L385 665L385 700L407.969 700C411.295 700 414.133 698.826 416.479 696.479C418.826 694.133 420 691.295 420 687.969L420 665Z" fill="#111111" fill-rule="nonzero" opacity="1" stroke="none"/>
<path d="M525 687.969C525 691.296 523.826 694.133 521.479 696.479C519.133 698.826 516.296 700 512.969 700L502.031 700C498.705 700 495.868 698.826 493.521 696.479C491.174 694.133 490 691.296 490 687.969L490 677.031C490 673.705 491.174 670.868 493.521 668.521C495.868 666.174 498.705 665 502.031 665L512.969 665C516.297 665 519.133 666.174 521.479 668.521C523.826 670.868 525 673.705 525 677.031L525 687.969Z" fill="#111111" fill-rule="nonzero" opacity="1" stroke="none"/>
<path d="M560 665L595 665L595 665L595 700L595 700L560 700L560 700L560 665L560 665Z" fill="#111111" fill-rule="nonzero" opacity="1" stroke="none"/>
<path d="M630 665L595 665L595 700L617.969 700C621.295 700 624.133 698.826 626.479 696.479C628.826 694.133 630 691.295 630 687.969L630 665Z" fill="#111111" fill-rule="nonzero" opacity="1" stroke="none"/>
<path d="M735 677.031L735 665L712.031 665C708.705 665 705.867 666.174 703.521 668.521C701.174 670.868 700 673.705 700 677.031L700 687.969C700 691.295 701.174 694.133 703.521 696.479C705.868 698.826 708.705 700 712.031 700L735 700L735 677.031Z" fill="#111111" fill-rule="nonzero" opacity="1" stroke="none"/>
<path d="M770 677.031C770 673.704 768.826 670.867 766.479 668.521C764.133 666.174 761.295 665 757.969 665L735 665L735 700L770 700L770 677.031Z" fill="#111111" fill-rule="nonzero" opacity="1" stroke="none"/>
<path d="M840 677.031L840 665L817.031 665C813.705 665 810.867 666.174 808.521 668.521C806.174 670.868 805 673.705 805 677.031L805 687.969C805 691.295 806.174 694.133 808.521 696.479C810.868 698.826 813.705 700 817.031 700L840 700L840 677.031Z" fill="#111111" fill-rule="nonzero" opacity="1" stroke="none"/>
<path d="M840 665L875 665L875 665L875 700L875 700L840 700L840 700L840 665L840 665Z" fill="#111111" fill-rule="nonzero" opacity="1" stroke="none"/>
<path d="M875 665L910 665L910 665L910 700L910 700L875 700L875 700L875 665L875 665Z" fill="#111111" fill-rule="nonzero" opacity="1" stroke="none"/>
<path d="M910 665L945 665L945 665L945 700L945 700L910 700L910 700L910 665L910 665Z" fill="#111111" fill-rule="nonzero" opacity="1" stroke="none"/>
<path d="M945 665L980 665L980 665L980 700L980 700L945 700L945 700L945 665L945 665Z" fill="#111111" fill-rule="nonzero" opacity="1" stroke="none"/>
<path d="M1015 665L980 665L980 700L1002.97 700C1006.3 700 1009.13 698.826 1011.48 696.479C1013.83 694.133 1015 691.295 1015 687.969L1015 665Z" fill="#111111" fill-rule="nonzero" opacity="1" stroke="none"/>
<path d="M1050 665L1085 665L1085 665L1085 700L1085 700L1050 700L1050 700L1050 665L1050 665Z" fill="#111111" fill-rule="nonzero" opacity="1" stroke="none"/>
<path d="M70 700L105 700L105 700L105 735L105 735L70 735L70 735L70 700L70 700Z" fill="#111111" fill-rule="nonzero" opacity="1" stroke="none"/>
<path d="M127.969 700L105 700L105 735L127.969 735C131.295 735 134.133 733.826 136.479 731.479C138.826 729.133 140 726.295 140 722.969L140 712.031C140 708.704 138.826 705.867 136.479 703.521C134.133 701.174 131.295 700 127.969 700Z" fill="#111111" fill-rule="nonzero" opacity="1" stroke="none"/>
<path d="M315 722.969C315 726.296 313.826 729.133 311.479 731.479C309.133 733.826 306.296 735 302.969 735L292.031 735C288.705 735 285.868 733.826 283.521 731.479C281.174 729.133 280 726.296 280 722.969L280 712.031C280 708.705 281.174 705.868 283.521 703.521C285.868 701.174 288.705 700 292.031 700L302.969 700C306.297 700 309.133 701.174 311.479 703.521C313.826 705.868 315 708.705 315 712.031L315 722.969Z" fill="#111111" fill-rule="nonzero" opacity="1" stroke="none"/>
<path d="M490 712.031C490 708.704 488.826 705.867 486.479 703.521C484.133 701.174 481.295 700 477.969 700L467.031 700C463.705 700 460.867 701.174 458.521 703.521C456.174 705.868 455 708.705 455 712.031L455 722.969C455 723.151 455.023 723.425 455.068 723.789L455 723.789L455 735L490 735L490 723.789L489.932 723.789C489.978 723.425 490 723.151 490 722.969L490 712.031Z" fill="#111111" fill-rule="nonzero" opacity="1" stroke="none"/>
<path d="M560 712.031L560 700L537.031 700C533.705 700 530.867 701.174 528.521 703.521C526.174 705.868 525 708.705 525 712.031L525 722.969C525 726.295 526.174 729.133 528.521 731.479C530.868 733.826 533.705 735 537.031 735L560 735L560 712.031Z" fill="#111111" fill-rule="nonzero" opacity="1" stroke="none"/>
<path d="M560 700L595 700L595 700L595 735L595 735L560 735L560 735L560 700L560 700Z" fill="#111111" fill-rule="nonzero" opacity="1" stroke="none"/>
<path d="M665 712.031L665 700L642.031 700C638.705 700 635.867 701.174 633.521 703.521C631.174 705.868 630 708.705 630 712.031L630 722.969C630 726.295 631.174 729.133 633.521 731.479C635.868 733.826 638.705 735 642.031 735L665 735L665 712.031Z" fill="#111111" fill-rule="nonzero" opacity="1" stroke="none"/>
<path d="M700 712.031C700 708.704 698.826 705.867 696.479 703.521C694.133 701.174 691.295 700 687.969 700L665 700L665 735L700 735L700 712.031Z" fill="#111111" fill-rule="nonzero" opacity="1" stroke="none"/>
<path d="M735 700L770 700L770 700L770 735L770 735L735 735L735 735L735 700L735 700Z" fill="#111111" fill-rule="nonzero" opacity="1" stroke="none"/>
<path d="M792.969 700L770 700L770 735L792.969 735C796.295 735 799.133 733.826 801.479 731.479C803.826 729.133 805 726.295 805 722.969L805 712.031C805 708.704 803.826 705.867 801.479 703.521C799.133 701.174 796.295 700 792.969 700Z" fill="#111111" fill-rule="nonzero" opacity="1" stroke="none"/>
<path d="M945 700L910 700L910 722.969C910 726.295 911.174 729.133 913.521 731.479C915.868 733.826 918.705 735 922.031 735L945 735L945 700Z" fill="#111111" fill-rule="nonzero" opacity="1" stroke="none"/>
<path d="M945 700L980 700L980 700L980 735L980 735L945 735L945 735L945 700L945 700Z" fill="#111111" fill-rule="nonzero" opacity="1" stroke="none"/>
<path d="M1084.93 711.211L1085 711.211L1085 700L1050 700L1050 711.211L1050.07 711.211C1050.02 711.576 1050 711.849 1050 712.031L1050 722.969C1050 726.295 1051.17 729.133 1053.52 731.479C1055.87 733.826 1058.7 735 1062.03 735L1072.97 735C1076.3 735 1079.13 733.826 1081.48 731.479C1083.83 729.133 1085 726.295 1085 722.969L1085 712.031C1085 711.849 1084.98 711.576 1084.93 711.211Z" fill="#111111" fill-rule="nonzero" opacity="1" stroke="none"/>
<path d="M70 735L105 735L105 735L105 770L105 770L70 770L70 770L70 735L70 735Z" fill="#111111" fill-rule="nonzero" opacity="1" stroke="none"/>
<path d="M245 747.031C245 743.704 243.826 740.867 241.479 738.521C239.133 736.174 236.295 735 232.969 735L222.031 735C218.705 735 215.867 736.174 213.521 738.521C211.174 740.868 210 743.705 210 747.031L210 757.969C210 758.151 210.023 758.425 210.068 758.789L210 758.789L210 770L245 770L245 758.789L244.932 758.789C244.978 758.425 245 758.151 245 757.969L245 747.031Z" fill="#111111" fill-rule="nonzero" opacity="1" stroke="none"/>
<path d="M350 747.031C350 743.704 348.826 740.867 346.479 738.521C344.133 736.174 341.295 735 337.969 735L327.031 735C323.705 735 320.867 736.174 318.521 738.521C316.174 740.868 315 743.705 315 747.031L315 757.969C315 758.151 315.023 758.425 315.068 758.789L315 758.789L315 770L350 770L350 758.789L349.932 758.789C349.978 758.425 350 758.151 350 757.969L350 747.031Z" fill="#111111" fill-rule="nonzero" opacity="1" stroke="none"/>
<path d="M420 747.031C420 743.704 418.826 740.867 416.479 738.521C414.133 736.174 411.295 735 407.969 735L397.031 735C393.705 735 390.867 736.174 388.521 738.521C386.174 740.868 385 743.705 385 747.031L385 757.969C385 758.151 385.023 758.425 385.068 758.789L385 758.789L385 770L420 770L420 758.789L419.932 758.789C419.978 758.425 420 758.151 420 757.969L420 747.031Z" fill="#111111" fill-rule="nonzero" opacity="1" stroke="none"/>
<path d="M489.932 746.211L490 746.211L490 735L455 735L455 746.211L455.068 746.211C455.023 746.576 455 746.849 455 747.031L455 757.969C455 761.295 456.174 764.133 458.521 766.479C460.868 768.826 463.705 770 467.031 770L477.969 770C481.295 770 484.133 768.826 486.479 766.479C488.826 764.133 490 761.295 490 757.969L490 747.031C490 746.849 489.978 746.576 489.932 746.211Z" fill="#111111" fill-rule="nonzero" opacity="1" stroke="none"/>
<path d="M595 735L560 735L560 757.969C560 761.295 561.174 764.133 563.521 766.479C565.868 768.826 568.705 770 572.031 770L595 770L595 735Z" fill="#111111" fill-rule="nonzero" opacity="1" stroke="none"/>
<path d="M630 747.031C630 743.704 628.826 740.867 626.479 738.521C624.133 736.174 621.295 735 617.969 735L595 735L595 770L630 770L630 747.031Z" fill="#111111" fill-rule="nonzero" opacity="1" stroke="none"/>
<path d="M699.932 746.211L700 746.211L700 735L665 735L665 746.211L665.068 746.211C665.023 746.576 665 746.849 665 747.031L665 757.969C665 761.295 666.174 764.133 668.521 766.479C670.868 768.826 673.705 770 677.031 770L687.969 770C691.295 770 694.133 768.826 696.479 766.479C698.826 764.133 700 761.295 700 757.969L700 747.031C700 746.849 699.978 746.576 699.932 746.211Z" fill="#111111" fill-rule="nonzero" opacity="1" stroke="none"/>
<path d="M769.932 746.211L770 746.211L770 735L735 735L735 746.211L735.068 746.211C735.023 746.576 735 746.849 735 747.031L735 757.969C735 761.295 736.174 764.133 738.521 766.479C740.868 768.826 743.705 770 747.031 770L757.969 770C761.295 770 764.133 768.826 766.479 766.479C768.826 764.133 770 761.295 770 757.969L770 747.031C770 746.849 769.978 746.576 769.932 746.211Z" fill="#111111" fill-rule="nonzero" opacity="1" stroke="none"/>
<path d="M840 747.031L840 735L817.031 735C813.705 735 810.867 736.174 808.521 738.521C806.174 740.868 805 743.705 805 747.031L805 770L840 770L840 747.031Z" fill="#111111" fill-rule="nonzero" opacity="1" stroke="none"/>
<path d="M875 747.031C875 743.704 873.826 740.867 871.479 738.521C869.133 736.174 866.295 735 862.969 735L840 735L840 770L875 770L875 747.031Z" fill="#111111" fill-rule="nonzero" opacity="1" stroke="none"/>
<path d="M979.932 746.211L980 746.211L980 735L945 735L945 746.211L945.068 746.211C945.023 746.576 945 746.849 945 747.031L945 757.969C945 761.295 946.174 764.133 948.521 766.479C950.868 768.826 953.705 770 957.031 770L967.969 770C971.295 770 974.133 768.826 976.479 766.479C978.826 764.133 980 761.295 980 757.969L980 747.031C980 746.849 979.978 746.576 979.932 746.211Z" fill="#111111" fill-rule="nonzero" opacity="1" stroke="none"/>
<path d="M104.932 781.211L105 781.211L105 770L70 770L70 781.211L70.0682 781.211C70.0227 781.576 70 781.849 70 782.031L70 792.969C70 796.295 71.1735 799.133 73.5206 801.479C75.8677 803.826 78.7045 805 82.0312 805L92.9687 805C96.2955 805 99.1326 803.826 101.479 801.479C103.826 799.133 105 796.295 105 792.969L105 782.031C105 781.849 104.978 781.576 104.932 781.211Z" fill="#111111" fill-rule="nonzero" opacity="1" stroke="none"/>
<path d="M175 782.031L175 770L152.031 770C148.705 770 145.867 771.174 143.521 773.521C141.174 775.868 140 778.705 140 782.031L140 792.969C140 796.295 141.174 799.133 143.521 801.479C145.868 803.826 148.705 805 152.031 805L175 805L175 782.031Z" fill="#111111" fill-rule="nonzero" opacity="1" stroke="none"/>
<path d="M175 770L210 770L210 770L210 805L210 805L175 805L175 805L175 770L175 770Z" fill="#111111" fill-rule="nonzero" opacity="1" stroke="none"/>
<path d="M210 770L245 770L245 770L245 805L245 805L210 805L210 805L210 770L210 770Z" fill="#111111" fill-rule="nonzero" opacity="1" stroke="none"/>
<path d="M245 770L280 770L280 770L280 805L280 805L245 805L245 805L245 770L245 770Z" fill="#111111" fill-rule="nonzero" opacity="1" stroke="none"/>
<path d="M280 770L315 770L315 770L315 805L315 805L280 805L280 805L280 770L280 770Z" fill="#111111" fill-rule="nonzero" opacity="1" stroke="none"/>
<path d="M315 770L350 770L350 770L350 805L350 805L315 805L315 805L315 770L315 770Z" fill="#111111" fill-rule="nonzero" opacity="1" stroke="none"/>
<path d="M350 770L385 770L385 770L385 805L385 805L350 805L350 805L350 770L350 770Z" fill="#111111" fill-rule="nonzero" opacity="1" stroke="none"/>
<path d="M385 770L420 770L420 770L420 805L420 805L385 805L385 805L385 770L385 770Z" fill="#111111" fill-rule="nonzero" opacity="1" stroke="none"/>
<path d="M629.932 781.211L630 781.211L630 770L595 770L595 781.211L595.068 781.211C595.023 781.576 595 781.849 595 782.031L595 792.969C595 796.295 596.174 799.133 598.521 801.479C600.868 803.826 603.705 805 607.031 805L617.969 805C621.295 805 624.133 803.826 626.479 801.479C628.826 799.133 630 796.295 630 792.969L630 782.031C630 781.849 629.978 781.576 629.932 781.211Z" fill="#111111" fill-rule="nonzero" opacity="1" stroke="none"/>
<path d="M735 792.969C735 796.296 733.826 799.133 731.479 801.479C729.133 803.826 726.296 805 722.969 805L712.031 805C708.705 805 705.868 803.826 703.521 801.479C701.174 799.133 700 796.296 700 792.969L700 782.031C700 778.705 701.174 775.868 703.521 773.521C705.868 771.174 708.705 770 712.031 770L722.969 770C726.297 770 729.133 771.174 731.479 773.521C733.826 775.868 735 778.705 735 782.031L735 792.969Z" fill="#111111" fill-rule="nonzero" opacity="1" stroke="none"/>
<path d="M805 782.031L805 770L782.031 770C778.705 770 775.867 771.174 773.521 773.521C771.174 775.868 770 778.705 770 782.031L770 805L805 805L805 782.031Z" fill="#111111" fill-rule="nonzero" opacity="1" stroke="none"/>
<path d="M805 770L840 770L840 770L840 805L840 805L805 805L805 805L805 770L805 770Z" fill="#111111" fill-rule="nonzero" opacity="1" stroke="none"/>
<path d="M840 770L875 770L875 770L875 805L875 805L840 805L840 805L840 770L840 770Z" fill="#111111" fill-rule="nonzero" opacity="1" stroke="none"/>
<path d="M875 770L910 770L910 770L910 805L910 805L875 805L875 805L875 770L875 770Z" fill="#111111" fill-rule="nonzero" opacity="1" stroke="none"/>
<path d="M945 782.031C945 778.704 943.826 775.867 941.479 773.521C939.133 771.174 936.295 770 932.969 770L910 770L910 805L945 805L945 782.031Z" fill="#111111" fill-rule="nonzero" opacity="1" stroke="none"/>
<path d="M1015 782.031L1015 770L992.031 770C988.705 770 985.867 771.174 983.521 773.521C981.174 775.868 980 778.705 980 782.031L980 805L1015 805L1015 782.031Z" fill="#111111" fill-rule="nonzero" opacity="1" stroke="none"/>
<path d="M1015 770L1050 770L1050 770L1050 805L1050 805L1015 805L1015 805L1015 770L1015 770Z" fill="#111111" fill-rule="nonzero" opacity="1" stroke="none"/>
<path d="M1072.97 770L1050 770L1050 805L1072.97 805C1076.3 805 1079.13 803.826 1081.48 801.479C1083.83 799.133 1085 796.295 1085 792.969L1085 782.031C1085 778.704 1083.83 775.867 1081.48 773.521C1079.13 771.174 1076.3 770 1072.97 770Z" fill="#111111" fill-rule="nonzero" opacity="1" stroke="none"/>
<path d="M385 805L350 805L350 827.969C350 831.295 351.174 834.133 353.521 836.479C355.868 838.826 358.705 840 362.031 840L385 840L385 805Z" fill="#111111" fill-rule="nonzero" opacity="1" stroke="none"/>
<path d="M385 805L420 805L420 805L420 840L420 840L385 840L385 840L385 805L385 805Z" fill="#111111" fill-rule="nonzero" opacity="1" stroke="none"/>
<path d="M442.969 805L420 805L420 840L442.969 840C446.295 840 449.133 838.826 451.479 836.479C453.826 834.133 455 831.295 455 827.969L455 817.031C455 813.704 453.826 810.867 451.479 808.521C449.133 806.174 446.295 805 442.969 805Z" fill="#111111" fill-rule="nonzero" opacity="1" stroke="none"/>
<path d="M525 827.969C525 831.296 523.826 834.133 521.479 836.479C519.133 838.826 516.296 840 512.969 840L502.031 840C498.705 840 495.868 838.826 493.521 836.479C491.174 834.133 490 831.296 490 827.969L490 817.031C490 813.705 491.174 810.868 493.521 808.521C495.868 806.174 498.705 805 502.031 805L512.969 805C516.297 805 519.133 806.174 521.479 808.521C523.826 810.868 525 813.705 525 817.031L525 827.969Z" fill="#111111" fill-rule="nonzero" opacity="1" stroke="none"/>
<path d="M665 817.031L665 805L642.031 805C638.705 805 635.867 806.174 633.521 808.521C631.174 810.868 630 813.705 630 817.031L630 827.969C630 831.295 631.174 834.133 633.521 836.479C635.868 838.826 638.705 840 642.031 840L665 840L665 817.031Z" fill="#111111" fill-rule="nonzero" opacity="1" stroke="none"/>
<path d="M687.969 805L665 805L665 840L687.969 840C691.295 840 694.133 838.826 696.479 836.479C698.826 834.133 700 831.295 700 827.969L700 817.031C700 813.704 698.826 810.867 696.479 808.521C694.133 806.174 691.295 805 687.969 805Z" fill="#111111" fill-rule="nonzero" opacity="1" stroke="none"/>
<path d="M770 817.031L770 805L747.031 805C743.705 805 740.867 806.174 738.521 808.521C736.174 810.868 735 813.705 735 817.031L735 840L770 840L770 817.031Z" fill="#111111" fill-rule="nonzero" opacity="1" stroke="none"/>
<path d="M770 805L805 805L805 805L805 840L805 840L770 840L770 840L770 805L770 805Z" fill="#111111" fill-rule="nonzero" opacity="1" stroke="none"/>
<path d="M910 805L945 805L945 805L945 840L945 840L910 840L910 840L910 805L910 805Z" fill="#111111" fill-rule="nonzero" opacity="1" stroke="none"/>
<path d="M945 805L980 805L980 805L980 840L980 840L945 840L945 840L945 805L945 805Z" fill="#111111" fill-rule="nonzero" opacity="1" stroke="none"/>
<path d="M1015 805L980 805L980 840L1002.97 840C1006.3 840 1009.13 838.826 1011.48 836.479C1013.83 834.133 1015 831.295 1015 827.969L1015 805Z" fill="#111111" fill-rule="nonzero" opacity="1" stroke="none"/>
<path d="M385 840L420 840L420 840L420 875L420 875L385 875L385 875L385 840L385 840Z" fill="#111111" fill-rule="nonzero" opacity="1" stroke="none"/>
<path d="M490 862.969C490 866.296 488.826 869.133 486.479 871.479C484.133 873.826 481.296 875 477.969 875L467.031 875C463.705 875 460.868 873.826 458.521 871.479C456.174 869.133 455 866.296 455 862.969L455 852.031C455 848.705 456.174 845.868 458.521 843.521C460.868 841.174 463.705 840 467.031 840L477.969 840C481.297 840 484.133 841.174 486.479 843.521C488.826 845.868 490 848.705 490 852.031L490 862.969Z" fill="#111111" fill-rule="nonzero" opacity="1" stroke="none"/>
<path d="M595 852.031L595 840L572.031 840C568.705 840 565.867 841.174 563.521 843.521C561.174 845.868 560 848.705 560 852.031L560 862.969C560 866.295 561.174 869.133 563.521 871.479C565.868 873.826 568.705 875 572.031 875L595 875L595 852.031Z" fill="#111111" fill-rule="nonzero" opacity="1" stroke="none"/>
<path d="M617.969 840L595 840L595 875L617.969 875C621.295 875 624.133 873.826 626.479 871.479C628.826 869.133 630 866.295 630 862.969L630 852.031C630 848.704 628.826 845.867 626.479 843.521C624.133 841.174 621.295 840 617.969 840Z" fill="#111111" fill-rule="nonzero" opacity="1" stroke="none"/>
<path d="M735 852.031L735 840L712.031 840C708.705 840 705.867 841.174 703.521 843.521C701.174 845.868 700 848.705 700 852.031L700 875L735 875L735 852.031Z" fill="#111111" fill-rule="nonzero" opacity="1" stroke="none"/>
<path d="M735 840L770 840L770 840L770 875L770 875L735 875L735 875L735 840L735 840Z" fill="#111111" fill-rule="nonzero" opacity="1" stroke="none"/>
<path d="M770 840L805 840L805 840L805 875L805 875L770 875L770 875L770 840L770 840Z" fill="#111111" fill-rule="nonzero" opacity="1" stroke="none"/>
<path d="M875 862.969C875 866.296 873.826 869.133 871.479 871.479C869.133 873.826 866.296 875 862.969 875L852.031 875C848.705 875 845.868 873.826 843.521 871.479C841.174 869.133 840 866.296 840 862.969L840 852.031C840 848.705 841.174 845.868 843.521 843.521C845.868 841.174 848.705 840 852.031 840L862.969 840C866.297 840 869.133 841.174 871.479 843.521C873.826 845.868 875 848.705 875 852.031L875 862.969Z" fill="#111111" fill-rule="nonzero" opacity="1" stroke="none"/>
<path d="M910 840L945 840L945 840L945 875L945 875L910 875L910 875L910 840L910 840Z" fill="#111111" fill-rule="nonzero" opacity="1" stroke="none"/>
<path d="M385 887.031L385 875L362.031 875C358.705 875 355.867 876.174 353.521 878.521C351.174 880.868 350 883.705 350 887.031L350 897.969C350 901.295 351.174 904.133 353.521 906.479C355.868 908.826 358.705 910 362.031 910L385 910L385 887.031Z" fill="#111111" fill-rule="nonzero" opacity="1" stroke="none"/>
<path d="M385 875L420 875L420 875L420 910L420 910L385 910L385 910L385 875L385 875Z" fill="#111111" fill-rule="nonzero" opacity="1" stroke="none"/>
<path d="M455 887.031C455 883.704 453.826 880.867 451.479 878.521C449.133 876.174 446.295 875 442.969 875L420 875L420 910L455 910L455 887.031Z" fill="#111111" fill-rule="nonzero" opacity="1" stroke="none"/>
<path d="M525 897.969C525 901.296 523.826 904.133 521.479 906.479C519.133 908.826 516.296 910 512.969 910L502.031 910C498.705 910 495.868 908.826 493.521 906.479C491.174 904.133 490 901.296 490 897.969L490 887.031C490 883.705 491.174 880.868 493.521 878.521C495.868 876.174 498.705 875 502.031 875L512.969 875C516.297 875 519.133 876.174 521.479 878.521C523.826 880.868 525 883.705 525 887.031L525 897.969Z" fill="#111111" fill-rule="nonzero" opacity="1" stroke="none"/>
<path d="M700 875L735 875L735 875L735 910L735 910L700 910L700 910L700 875L700 875Z" fill="#111111" fill-rule="nonzero" opacity="1" stroke="none"/>
<path d="M735 875L770 875L770 875L770 910L770 910L735 910L735 910L735 875L735 875Z" fill="#111111" fill-rule="nonzero" opacity="1" stroke="none"/>
<path d="M770 875L805 875L805 875L805 910L805 910L770 910L770 910L770 875L770 875Z" fill="#111111" fill-rule="nonzero" opacity="1" stroke="none"/>
<path d="M910 875L945 875L945 875L945 910L945 910L910 910L910 910L910 875L910 875Z" fill="#111111" fill-rule="nonzero" opacity="1" stroke="none"/>
<path d="M967.969 875L945 875L945 910L967.969 910C971.295 910 974.133 908.826 976.479 906.479C978.826 904.133 980 901.295 980 897.969L980 887.031C980 883.704 978.826 880.867 976.479 878.521C974.133 876.174 971.295 875 967.969 875Z" fill="#111111" fill-rule="nonzero" opacity="1" stroke="none"/>
<path d="M1050 897.969C1050 901.296 1048.83 904.133 1046.48 906.479C1044.13 908.826 1041.3 910 1037.97 910L1027.03 910C1023.7 910 1020.87 908.826 1018.52 906.479C1016.17 904.133 1015 901.296 1015 897.969L1015 887.031C1015 883.705 1016.17 880.868 1018.52 878.521C1020.87 876.174 1023.7 875 1027.03 875L1037.97 875C1041.3 875 1044.13 876.174 1046.48 878.521C1048.83 880.868 1050 883.705 1050 887.031L1050 897.969Z" fill="#111111" fill-rule="nonzero" opacity="1" stroke="none"/>
<path d="M420 910L385 910L385 932.969C385 936.295 386.174 939.133 388.521 941.479C390.868 943.826 393.705 945 397.031 945L420 945L420 910Z" fill="#111111" fill-rule="nonzero" opacity="1" stroke="none"/>
<path d="M420 910L455 910L455 910L455 945L455 945L420 945L420 945L420 910L420 910Z" fill="#111111" fill-rule="nonzero" opacity="1" stroke="none"/>
<path d="M595 922.031L595 910L572.031 910C568.705 910 565.867 911.174 563.521 913.521C561.174 915.868 560 918.705 560 922.031L560 932.969C560 936.295 561.174 939.133 563.521 941.479C565.868 943.826 568.705 945 572.031 945L595 945L595 922.031Z" fill="#111111" fill-rule="nonzero" opacity="1" stroke="none"/>
<path d="M630 922.031C630 918.704 628.826 915.867 626.479 913.521C624.133 911.174 621.295 910 617.969 910L595 910L595 945L630 945L630 922.031Z" fill="#111111" fill-rule="nonzero" opacity="1" stroke="none"/>
<path d="M700 910L735 910L735 910L735 945L735 945L700 945L700 945L700 910L700 910Z" fill="#111111" fill-rule="nonzero" opacity="1" stroke="none"/>
<path d="M735 910L770 910L770 910L770 945L770 945L735 945L735 945L735 910L735 910Z" fill="#111111" fill-rule="nonzero" opacity="1" stroke="none"/>
<path d="M770 910L805 910L805 910L805 945L805 945L770 945L770 945L770 910L770 910Z" fill="#111111" fill-rule="nonzero" opacity="1" stroke="none"/>
<path d="M805 910L840 910L840 910L840 945L840 945L805 945L805 945L805 910L805 910Z" fill="#111111" fill-rule="nonzero" opacity="1" stroke="none"/>
<path d="M840 910L875 910L875 910L875 945L875 945L840 945L840 945L840 910L840 910Z" fill="#111111" fill-rule="nonzero" opacity="1" stroke="none"/>
<path d="M875 910L910 910L910 910L910 945L910 945L875 945L875 945L875 910L875 910Z" fill="#111111" fill-rule="nonzero" opacity="1" stroke="none"/>
<path d="M945 910L910 910L910 945L932.969 945C936.295 945 939.133 943.826 941.479 941.479C943.826 939.133 945 936.295 945 932.969L945 910Z" fill="#111111" fill-rule="nonzero" opacity="1" stroke="none"/>
<path d="M454.932 956.211L455 956.211L455 945L420 945L420 956.211L420.068 956.211C420.023 956.576 420 956.849 420 957.031L420 967.969C420 971.295 421.174 974.133 423.521 976.479C425.868 978.826 428.705 980 432.031 980L442.969 980C446.295 980 449.133 978.826 451.479 976.479C453.826 974.133 455 971.295 455 967.969L455 957.031C455 956.849 454.978 956.576 454.932 956.211Z" fill="#111111" fill-rule="nonzero" opacity="1" stroke="none"/>
<path d="M560 967.969C560 971.296 558.826 974.133 556.479 976.479C554.133 978.826 551.296 980 547.969 980L537.031 980C533.705 980 530.868 978.826 528.521 976.479C526.174 974.133 525 971.296 525 967.969L525 957.031C525 953.705 526.174 950.868 528.521 948.521C530.868 946.174 533.705 945 537.031 945L547.969 945C551.297 945 554.133 946.174 556.479 948.521C558.826 950.868 560 953.705 560 957.031L560 967.969Z" fill="#111111" fill-rule="nonzero" opacity="1" stroke="none"/>
<path d="M595 945L630 945L630 945L630 980L630 980L595 980L595 980L595 945L595 945Z" fill="#111111" fill-rule="nonzero" opacity="1" stroke="none"/>
<path d="M630 945L665 945L665 945L665 980L665 980L630 980L630 980L630 945L630 945Z" fill="#111111" fill-rule="nonzero" opacity="1" stroke="none"/>
<path d="M665 945L700 945L700 945L700 980L700 980L665 980L665 980L665 945L665 945Z" fill="#111111" fill-rule="nonzero" opacity="1" stroke="none"/>
<path d="M700 945L735 945L735 945L735 980L735 980L700 980L700 980L700 945L700 945Z" fill="#111111" fill-rule="nonzero" opacity="1" stroke="none"/>
<path d="M735 945L770 945L770 945L770 980L770 980L735 980L735 980L735 945L735 945Z" fill="#111111" fill-rule="nonzero" opacity="1" stroke="none"/>
<path d="M770 945L805 945L805 945L805 980L805 980L770 980L770 980L770 945L770 945Z" fill="#111111" fill-rule="nonzero" opacity="1" stroke="none"/>
<path d="M875 945L910 945L910 945L910 980L910 980L875 980L875 980L875 945L875 945Z" fill="#111111" fill-rule="nonzero" opacity="1" stroke="none"/>
<path d="M980 957.031C980 953.704 978.826 950.867 976.479 948.521C974.133 946.174 971.295 945 967.969 945L957.031 945C953.705 945 950.867 946.174 948.521 948.521C946.174 950.868 945 953.705 945 957.031L945 967.969C945 968.151 945.023 968.425 945.068 968.789L945 968.789L945 980L980 980L980 968.789L979.932 968.789C979.978 968.425 980 968.151 980 967.969L980 957.031Z" fill="#111111" fill-rule="nonzero" opacity="1" stroke="none"/>
<path d="M1050 957.031C1050 953.704 1048.83 950.867 1046.48 948.521C1044.13 946.174 1041.3 945 1037.97 945L1027.03 945C1023.7 945 1020.87 946.174 1018.52 948.521C1016.17 950.868 1015 953.705 1015 957.031L1015 967.969C1015 968.151 1015.02 968.425 1015.07 968.789L1015 968.789L1015 980L1050 980L1050 968.789L1049.93 968.789C1049.98 968.425 1050 968.151 1050 967.969L1050 957.031Z" fill="#111111" fill-rule="nonzero" opacity="1" stroke="none"/>
<path d="M420 992.031C420 988.704 418.826 985.867 416.479 983.521C414.133 981.174 411.295 980 407.969 980L397.031 980C393.705 980 390.867 981.174 388.521 983.521C386.174 985.868 385 988.705 385 992.031L385 1002.97C385 1003.15 385.023 1003.42 385.068 1003.79L385 1003.79L385 1015L420 1015L420 1003.79L419.932 1003.79C419.978 1003.42 420 1003.15 420 1002.97L420 992.031Z" fill="#111111" fill-rule="nonzero" opacity="1" stroke="none"/>
<path d="M490 992.031L490 980L467.031 980C463.705 980 460.867 981.174 458.521 983.521C456.174 985.868 455 988.705 455 992.031L455 1015L490 1015L490 992.031Z" fill="#111111" fill-rule="nonzero" opacity="1" stroke="none"/>
<path d="M525 992.031C525 988.704 523.826 985.867 521.479 983.521C519.133 981.174 516.295 980 512.969 980L490 980L490 1015L525 1015L525 992.031Z" fill="#111111" fill-rule="nonzero" opacity="1" stroke="none"/>
<path d="M595 992.031L595 980L572.031 980C568.705 980 565.867 981.174 563.521 983.521C561.174 985.868 560 988.705 560 992.031L560 1002.97C560 1006.3 561.174 1009.13 563.521 1011.48C565.868 1013.83 568.705 1015 572.031 1015L595 1015L595 992.031Z" fill="#111111" fill-rule="nonzero" opacity="1" stroke="none"/>
<path d="M595 980L630 980L630 980L630 1015L630 1015L595 1015L595 1015L595 980L595 980Z" fill="#111111" fill-rule="nonzero" opacity="1" stroke="none"/>
<path d="M700 980L665 980L665 1002.97C665 1006.3 666.174 1009.13 668.521 1011.48C670.868 1013.83 673.705 1015 677.031 1015L700 1015L700 980Z" fill="#111111" fill-rule="nonzero" opacity="1" stroke="none"/>
<path d="M700 980L735 980L735 980L735 1015L735 1015L700 1015L700 1015L700 980L700 980Z" fill="#111111" fill-rule="nonzero" opacity="1" stroke="none"/>
<path d="M735 980L770 980L770 980L770 1015L770 1015L735 1015L735 1015L735 980L735 980Z" fill="#111111" fill-rule="nonzero" opacity="1" stroke="none"/>
<path d="M770 980L805 980L805 980L805 1015L805 1015L770 1015L770 1015L770 980L770 980Z" fill="#111111" fill-rule="nonzero" opacity="1" stroke="none"/>
<path d="M805 980L840 980L840 980L840 1015L840 1015L805 1015L805 1015L805 980L805 980Z" fill="#111111" fill-rule="nonzero" opacity="1" stroke="none"/>
<path d="M840 980L875 980L875 980L875 1015L875 1015L840 1015L840 1015L840 980L840 980Z" fill="#111111" fill-rule="nonzero" opacity="1" stroke="none"/>
<path d="M875 980L910 980L910 980L910 1015L910 1015L875 1015L875 1015L875 980L875 980Z" fill="#111111" fill-rule="nonzero" opacity="1" stroke="none"/>
<path d="M910 980L945 980L945 980L945 1015L945 1015L910 1015L910 1015L910 980L910 980Z" fill="#111111" fill-rule="nonzero" opacity="1" stroke="none"/>
<path d="M945 980L980 980L980 980L980 1015L980 1015L945 1015L945 1015L945 980L945 980Z" fill="#111111" fill-rule="nonzero" opacity="1" stroke="none"/>
<path d="M980 980L1015 980L1015 980L1015 1015L1015 1015L980 1015L980 1015L980 980L980 980Z" fill="#111111" fill-rule="nonzero" opacity="1" stroke="none"/>
<path d="M1050 980L1015 980L1015 1015L1037.97 1015C1041.3 1015 1044.13 1013.83 1046.48 1011.48C1048.83 1009.13 1050 1006.3 1050 1002.97L1050 980Z" fill="#111111" fill-rule="nonzero" opacity="1" stroke="none"/>
<path d="M385 1015L420 1015L420 1015L420 1050L420 1050L385 1050L385 1050L385 1015L385 1015Z" fill="#111111" fill-rule="nonzero" opacity="1" stroke="none"/>
<path d="M420 1015L455 1015L455 1015L455 1050L455 1050L420 1050L420 1050L420 1015L420 1015Z" fill="#111111" fill-rule="nonzero" opacity="1" stroke="none"/>
<path d="M455 1015L490 1015L490 1015L490 1050L490 1050L455 1050L455 1050L455 1015L455 1015Z" fill="#111111" fill-rule="nonzero" opacity="1" stroke="none"/>
<path d="M490 1015L525 1015L525 1015L525 1050L525 1050L490 1050L490 1050L490 1015L490 1015Z" fill="#111111" fill-rule="nonzero" opacity="1" stroke="none"/>
<path d="M560 1027.03C560 1023.7 558.826 1020.87 556.479 1018.52C554.133 1016.17 551.295 1015 547.969 1015L525 1015L525 1050L560 1050L560 1027.03Z" fill="#111111" fill-rule="nonzero" opacity="1" stroke="none"/>
<path d="M629.932 1026.21L630 1026.21L630 1015L595 1015L595 1026.21L595.068 1026.21C595.023 1026.58 595 1026.85 595 1027.03L595 1037.97C595 1041.3 596.174 1044.13 598.521 1046.48C600.868 1048.83 603.705 1050 607.031 1050L617.969 1050C621.295 1050 624.133 1048.83 626.479 1046.48C628.826 1044.13 630 1041.3 630 1037.97L630 1027.03C630 1026.85 629.978 1026.58 629.932 1026.21Z" fill="#111111" fill-rule="nonzero" opacity="1" stroke="none"/>
<path d="M840 1015L805 1015L805 1037.97C805 1041.3 806.174 1044.13 808.521 1046.48C810.868 1048.83 813.705 1050 817.031 1050L840 1050L840 1015Z" fill="#111111" fill-rule="nonzero" opacity="1" stroke="none"/>
<path d="M875 1015L840 1015L840 1050L862.969 1050C866.295 1050 869.133 1048.83 871.479 1046.48C873.826 1044.13 875 1041.3 875 1037.97L875 1015Z" fill="#111111" fill-rule="nonzero" opacity="1" stroke="none"/>
<path d="M910 1015L945 1015L945 1015L945 1050L945 1050L910 1050L910 1050L910 1015L910 1015Z" fill="#111111" fill-rule="nonzero" opacity="1" stroke="none"/>
<path d="M945 1015L980 1015L980 1015L980 1050L980 1050L945 1050L945 1050L945 1015L945 1015Z" fill="#111111" fill-rule="nonzero" opacity="1" stroke="none"/>
<path d="M980 1015L1015 1015L1015 1015L1015 1050L1015 1050L980 1050L980 1050L980 1015L980 1015Z" fill="#111111" fill-rule="nonzero" opacity="1" stroke="none"/>
<path d="M1085 1037.97C1085 1041.3 1083.83 1044.13 1081.48 1046.48C1079.13 1048.83 1076.3 1050 1072.97 1050L1062.03 1050C1058.7 1050 1055.87 1048.83 1053.52 1046.48C1051.17 1044.13 1050 1041.3 1050 1037.97L1050 1027.03C1050 1023.7 1051.17 1020.87 1053.52 1018.52C1055.87 1016.17 1058.7 1015 1062.03 1015L1072.97 1015C1076.3 1015 1079.13 1016.17 1081.48 1018.52C1083.83 1020.87 1085 1023.7 1085 1027.03L1085 1037.97Z" fill="#111111" fill-rule="nonzero" opacity="1" stroke="none"/>
<path d="M420 1050L385 1050L385 1072.97C385 1076.3 386.174 1079.13 388.521 1081.48C390.868 1083.83 393.705 1085 397.031 1085L420 1085L420 1050Z" fill="#111111" fill-rule="nonzero" opacity="1" stroke="none"/>
<path d="M455 1050L420 1050L420 1085L442.969 1085C446.295 1085 449.133 1083.83 451.479 1081.48C453.826 1079.13 455 1076.3 455 1072.97L455 1050Z" fill="#111111" fill-rule="nonzero" opacity="1" stroke="none"/>
<path d="M525 1050L490 1050L490 1072.97C490 1076.3 491.174 1079.13 493.521 1081.48C495.868 1083.83 498.705 1085 502.031 1085L525 1085L525 1050Z" fill="#111111" fill-rule="nonzero" opacity="1" stroke="none"/>
<path d="M525 1050L560 1050L560 1050L560 1085L560 1085L525 1085L525 1085L525 1050L525 1050Z" fill="#111111" fill-rule="nonzero" opacity="1" stroke="none"/>
<path d="M582.969 1050L560 1050L560 1085L582.969 1085C586.295 1085 589.133 1083.83 591.479 1081.48C593.826 1079.13 595 1076.3 595 1072.97L595 1062.03C595 1058.7 593.826 1055.87 591.479 1053.52C589.133 1051.17 586.295 1050 582.969 1050Z" fill="#111111" fill-rule="nonzero" opacity="1" stroke="none"/>
<path d="M665 1072.97C665 1076.3 663.826 1079.13 661.479 1081.48C659.133 1083.83 656.296 1085 652.969 1085L642.031 1085C638.705 1085 635.868 1083.83 633.521 1081.48C631.174 1079.13 630 1076.3 630 1072.97L630 1062.03C630 1058.7 631.174 1055.87 633.521 1053.52C635.868 1051.17 638.705 1050 642.031 1050L652.969 1050C656.297 1050 659.133 1051.17 661.479 1053.52C663.826 1055.87 665 1058.7 665 1062.03L665 1072.97Z" fill="#111111" fill-rule="nonzero" opacity="1" stroke="none"/>
<path d="M770 1072.97C770 1076.3 768.826 1079.13 766.479 1081.48C764.133 1083.83 761.296 1085 757.969 1085L747.031 1085C743.705 1085 740.868 1083.83 738.521 1081.48C736.174 1079.13 735 1076.3 735 1072.97L735 1062.03C735 1058.7 736.174 1055.87 738.521 1053.52C740.868 1051.17 743.705 1050 747.031 1050L757.969 1050C761.297 1050 764.133 1051.17 766.479 1053.52C768.826 1055.87 770 1058.7 770 1062.03L770 1072.97Z" fill="#111111" fill-rule="nonzero" opacity="1" stroke="none"/>
<path d="M944.932 1061.21L945 1061.21L945 1050L910 1050L910 1061.21L910.068 1061.21C910.023 1061.58 910 1061.85 910 1062.03L910 1072.97C910 1076.3 911.174 1079.13 913.521 1081.48C915.868 1083.83 918.705 1085 922.031 1085L932.969 1085C936.295 1085 939.133 1083.83 941.479 1081.48C943.826 1079.13 945 1076.3 945 1072.97L945 1062.03C945 1061.85 944.978 1061.58 944.932 1061.21Z" fill="#111111" fill-rule="nonzero" opacity="1" stroke="none"/>
<path d="M1014.93 1061.21L1015 1061.21L1015 1050L980 1050L980 1061.21L980.068 1061.21C980.023 1061.58 980 1061.85 980 1062.03L980 1072.97C980 1076.3 981.174 1079.13 983.521 1081.48C985.868 1083.83 988.705 1085 992.031 1085L1002.97 1085C1006.3 1085 1009.13 1083.83 1011.48 1081.48C1013.83 1079.13 1015 1076.3 1015 1072.97L1015 1062.03C1015 1061.85 1014.98 1061.58 1014.93 1061.21Z" fill="#111111" fill-rule="nonzero" opacity="1" stroke="none"/>
<g opacity="1">
<path d="M231.355 70.0196L153.645 70.0196L153.645 70.0196C115.773 70.0196 83.6882 95.0414 73.43 129.241C72.3691 132.779 71.541 136.415 70.9653 140.131C70.3308 144.233 70 148.432 70 152.707L70 232.261C70 277.878 107.534 314.973 153.645 314.973L192.5 314.98L231.355 314.971C277.464 314.971 315 277.875 315 232.259L315 152.707C315 107.113 277.466 70.0196 231.355 70.0196ZM278.25 232.261C278.25 257.604 257.214 278.223 231.345 278.223L192.5 278.23L153.655 278.221C127.786 278.221 106.75 257.601 106.75 232.261L106.75 152.707C106.75 144.791 108.803 137.338 112.417 130.826C115.896 124.562 120.818 119.174 126.744 115.095C134.364 109.849 143.642 106.77 153.643 106.77L231.355 106.77C257.214 106.77 278.25 127.377 278.25 152.707L278.25 232.261Z" fill="#111111" fill-rule="nonzero" opacity="1" stroke="none"/>
</g>
<g opacity="1">
<path d="M1001.35 70.0196L923.645 70.0196L923.645 70.0196C885.773 70.0196 853.688 95.0414 843.43 129.241C842.369 132.779 841.541 136.415 840.965 140.131C840.331 144.233 840 148.432 840 152.707L840 232.261C840 277.878 877.534 314.973 923.645 314.973L962.5 314.98L1001.35 314.971C1047.46 314.971 1085 277.875 1085 232.259L1085 152.707C1085 107.113 1047.47 70.0196 1001.35 70.0196ZM1048.25 232.261C1048.25 257.604 1027.21 278.223 1001.34 278.223L962.5 278.23L923.655 278.221C897.786 278.221 876.75 257.601 876.75 232.261L876.75 152.707C876.75 144.791 878.803 137.338 882.417 130.826C885.896 124.562 890.818 119.174 896.744 115.095C904.364 109.849 913.642 106.77 923.643 106.77L1001.35 106.77C1027.21 106.77 1048.25 127.377 1048.25 152.707L1048.25 232.261Z" fill="#111111" fill-rule="nonzero" opacity="1" stroke="none"/>
</g>
<g opacity="1">
<path d="M231.355 840.02L153.645 840.02L153.645 840.02C115.773 840.02 83.6882 865.041 73.43 899.241C72.3691 902.779 71.541 906.415 70.9653 910.131C70.3308 914.233 70 918.432 70 922.707L70 1002.26C70 1047.88 107.534 1084.97 153.645 1084.97L192.5 1084.98L231.355 1084.97C277.464 1084.97 315 1047.88 315 1002.26L315 922.707C315 877.113 277.466 840.02 231.355 840.02ZM278.25 1002.26C278.25 1027.6 257.214 1048.22 231.345 1048.22L192.5 1048.23L153.655 1048.22C127.786 1048.22 106.75 1027.6 106.75 1002.26L106.75 922.707C106.75 914.791 108.803 907.338 112.417 900.826C115.896 894.562 120.818 889.174 126.744 885.095C134.364 879.849 143.642 876.77 153.643 876.77L231.355 876.77C257.214 876.77 278.25 897.377 278.25 922.707L278.25 1002.26Z" fill="#111111" fill-rule="nonzero" opacity="1" stroke="none"/>
</g>
<path d="M168.719 245C152.874 245 139.985 232.366 139.985 216.852L139.985 168.134C139.985 163.287 141.245 158.726 143.451 154.735C145.582 150.894 148.597 147.593 152.229 145.102C156.894 141.891 162.581 140 168.703 140L216.296 140C232.126 140 245.015 152.619 245.015 168.133L245.015 216.851C245.015 232.364 232.127 244.999 216.296 244.999L192.5 244.999L168.719 244.999L168.719 245Z" fill="#111111" fill-rule="nonzero" opacity="1" stroke="none"/>
<path d="M938.719 245C922.874 245 909.985 232.366 909.985 216.852L909.985 168.134C909.985 163.287 911.245 158.726 913.451 154.735C915.582 150.894 918.597 147.593 922.229 145.102C926.894 141.891 932.581 140 938.703 140L986.296 140C1002.13 140 1015.01 152.619 1015.01 168.133L1015.01 216.851C1015.01 232.364 1002.13 244.999 986.296 244.999L962.5 244.999L938.719 244.999L938.719 245Z" fill="#111111" fill-rule="nonzero" opacity="1" stroke="none"/>
<path d="M168.719 1015C152.874 1015 139.985 1002.37 139.985 986.852L139.985 938.134C139.985 933.287 141.245 928.726 143.451 924.735C145.582 920.894 148.597 917.593 152.229 915.102C156.894 911.891 162.581 910 168.703 910L216.296 910C232.126 910 245.015 922.619 245.015 938.133L245.015 986.851C245.015 1002.36 232.127 1015 216.296 1015L192.5 1015L168.719 1015L168.719 1015Z" fill="#111111" fill-rule="nonzero" opacity="1" stroke="none"/>
</g>
</g>
</svg>
