<?xml version="1.0" encoding="UTF-8" standalone="no"?>
<!DOCTYPE svg PUBLIC "-//W3C//DTD SVG 1.1//EN" "http://www.w3.org/Graphics/SVG/1.1/DTD/svg11.dtd">
<!-- Created with Vectornator (http://vectornator.io/) -->
<svg height="100%" stroke-miterlimit="10" style="fill-rule:nonzero;clip-rule:evenodd;stroke-linecap:round;stroke-linejoin:round;" version="1.1" viewBox="0 0 2277 2277" width="100%" xml:space="preserve" xmlns="http://www.w3.org/2000/svg" xmlns:vectornator="http://vectornator.io" xmlns:xlink="http://www.w3.org/1999/xlink">
<defs/>
<g id="Untitled" vectornator:layerName="Untitled">
<g opacity="1">
<path d="M1035 161.719L1035 138L989.719 138C983.16 138 977.567 140.314 972.941 144.941C968.314 149.568 966 155.16 966 161.719L966 183.281C966 189.84 968.314 195.433 972.941 200.059C977.568 204.686 983.16 207 989.719 207L1035 207L1035 161.719Z" fill="#000000" fill-rule="nonzero" opacity="1" stroke="none"/>
<path d="M1104 161.719C1104 155.16 1101.69 149.567 1097.06 144.941C1092.43 140.314 1086.84 138 1080.28 138L1035 138L1035 207L1104 207L1104 161.719Z" fill="#000000" fill-rule="nonzero" opacity="1" stroke="none"/>
<path d="M1311 161.719L1311 138L1265.72 138C1259.16 138 1253.57 140.314 1248.94 144.941C1244.31 149.568 1242 155.16 1242 161.719L1242 183.281C1242 189.84 1244.31 195.433 1248.94 200.059C1253.57 204.686 1259.16 207 1265.72 207L1311 207L1311 161.719Z" fill="#000000" fill-rule="nonzero" opacity="1" stroke="none"/>
<path d="M1311 138L1380 138L1380 138L1380 207L1380 207L1311 207L1311 207L1311 138L1311 138Z" fill="#000000" fill-rule="nonzero" opacity="1" stroke="none"/>
<path d="M1380 138L1449 138L1449 138L1449 207L1449 207L1380 207L1380 207L1380 138L1380 138Z" fill="#000000" fill-rule="nonzero" opacity="1" stroke="none"/>
<path d="M1494.28 138L1449 138L1449 207L1494.28 207C1500.84 207 1506.43 204.686 1511.06 200.059C1515.69 195.433 1518 189.84 1518 183.281L1518 161.719C1518 155.16 1515.69 149.567 1511.06 144.941C1506.43 140.314 1500.84 138 1494.28 138Z" fill="#000000" fill-rule="nonzero" opacity="1" stroke="none"/>
<path d="M759 252.281C759 258.841 756.685 264.433 752.059 269.059C747.433 273.685 741.841 276 735.281 276L713.719 276C707.161 276 701.568 273.685 696.941 269.059C692.314 264.433 690 258.841 690 252.281L690 230.719C690 224.161 692.314 218.568 696.941 213.941C701.569 209.314 707.161 207 713.719 207L735.281 207C741.842 207 747.434 209.314 752.059 213.941C756.686 218.569 759 224.161 759 230.719L759 252.281Z" fill="#000000" fill-rule="nonzero" opacity="1" stroke="none"/>
<path d="M1104 207L1035 207L1035 252.281C1035 258.84 1037.31 264.433 1041.94 269.059C1046.57 273.686 1052.16 276 1058.72 276L1104 276L1104 207Z" fill="#000000" fill-rule="nonzero" opacity="1" stroke="none"/>
<path d="M1173 230.719C1173 224.16 1170.69 218.567 1166.06 213.941C1161.43 209.314 1155.84 207 1149.28 207L1104 207L1104 276L1173 276L1173 230.719Z" fill="#000000" fill-rule="nonzero" opacity="1" stroke="none"/>
<path d="M1587 230.719C1587 224.16 1584.69 218.567 1580.06 213.941C1575.43 209.314 1569.84 207 1563.28 207L1541.72 207C1535.16 207 1529.57 209.314 1524.94 213.941C1520.31 218.568 1518 224.16 1518 230.719L1518 252.281C1518 252.641 1518.04 253.18 1518.13 253.899L1518 253.899L1518 276L1587 276L1587 253.899L1586.87 253.899C1586.96 253.18 1587 252.641 1587 252.281L1587 230.719Z" fill="#000000" fill-rule="nonzero" opacity="1" stroke="none"/>
<path d="M828 321.281C828 327.841 825.685 333.433 821.059 338.059C816.433 342.685 810.841 345 804.281 345L782.719 345C776.161 345 770.568 342.685 765.941 338.059C761.314 333.433 759 327.841 759 321.281L759 299.719C759 293.161 761.314 287.568 765.941 282.941C770.569 278.314 776.161 276 782.719 276L804.281 276C810.842 276 816.434 278.314 821.059 282.941C825.686 287.569 828 293.161 828 299.719L828 321.281Z" fill="#000000" fill-rule="nonzero" opacity="1" stroke="none"/>
<path d="M966 321.281C966 327.841 963.685 333.433 959.059 338.059C954.433 342.685 948.841 345 942.281 345L920.719 345C914.161 345 908.568 342.685 903.941 338.059C899.314 333.433 897 327.841 897 321.281L897 299.719C897 293.161 899.314 287.568 903.941 282.941C908.569 278.314 914.161 276 920.719 276L942.281 276C948.842 276 954.434 278.314 959.059 282.941C963.686 287.569 966 293.161 966 299.719L966 321.281Z" fill="#000000" fill-rule="nonzero" opacity="1" stroke="none"/>
<path d="M1172.87 298.101L1173 298.101L1173 276L1104 276L1104 298.101L1104.13 298.101C1104.04 298.82 1104 299.359 1104 299.719L1104 321.281C1104 327.84 1106.31 333.433 1110.94 338.059C1115.57 342.686 1121.16 345 1127.72 345L1149.28 345C1155.84 345 1161.43 342.686 1166.06 338.059C1170.69 333.433 1173 327.84 1173 321.281L1173 299.719C1173 299.359 1172.96 298.82 1172.87 298.101Z" fill="#000000" fill-rule="nonzero" opacity="1" stroke="none"/>
<path d="M1311 299.719L1311 276L1265.72 276C1259.16 276 1253.57 278.314 1248.94 282.941C1244.31 287.568 1242 293.16 1242 299.719L1242 345L1311 345L1311 299.719Z" fill="#000000" fill-rule="nonzero" opacity="1" stroke="none"/>
<path d="M1311 276L1380 276L1380 276L1380 345L1380 345L1311 345L1311 345L1311 276L1311 276Z" fill="#000000" fill-rule="nonzero" opacity="1" stroke="none"/>
<path d="M1380 276L1449 276L1449 276L1449 345L1449 345L1380 345L1380 345L1380 276L1380 276Z" fill="#000000" fill-rule="nonzero" opacity="1" stroke="none"/>
<path d="M1449 276L1518 276L1518 276L1518 345L1518 345L1449 345L1449 345L1449 276L1449 276Z" fill="#000000" fill-rule="nonzero" opacity="1" stroke="none"/>
<path d="M1587 276L1518 276L1518 345L1563.28 345C1569.84 345 1575.43 342.686 1580.06 338.059C1584.69 333.433 1587 327.84 1587 321.281L1587 276Z" fill="#000000" fill-rule="nonzero" opacity="1" stroke="none"/>
<path d="M1035 390.281C1035 396.841 1032.69 402.433 1028.06 407.059C1023.43 411.685 1017.84 414 1011.28 414L989.719 414C983.161 414 977.568 411.685 972.941 407.059C968.314 402.433 966 396.841 966 390.281L966 368.719C966 362.161 968.314 356.568 972.941 351.941C977.569 347.314 983.161 345 989.719 345L1011.28 345C1017.84 345 1023.43 347.314 1028.06 351.941C1032.69 356.569 1035 362.161 1035 368.719L1035 390.281Z" fill="#000000" fill-rule="nonzero" opacity="1" stroke="none"/>
<path d="M1310.87 367.101L1311 367.101L1311 345L1242 345L1242 367.101L1242.13 367.101C1242.04 367.82 1242 368.359 1242 368.719L1242 390.281C1242 396.84 1244.31 402.433 1248.94 407.059C1253.57 411.686 1259.16 414 1265.72 414L1287.28 414C1293.84 414 1299.43 411.686 1304.06 407.059C1308.69 402.433 1311 396.84 1311 390.281L1311 368.719C1311 368.359 1310.96 367.82 1310.87 367.101Z" fill="#000000" fill-rule="nonzero" opacity="1" stroke="none"/>
<path d="M1449 345L1380 345L1380 390.281C1380 396.84 1382.31 402.433 1386.94 407.059C1391.57 411.686 1397.16 414 1403.72 414L1449 414L1449 345Z" fill="#000000" fill-rule="nonzero" opacity="1" stroke="none"/>
<path d="M1518 345L1449 345L1449 414L1494.28 414C1500.84 414 1506.43 411.686 1511.06 407.059C1515.69 402.433 1518 396.84 1518 390.281L1518 345Z" fill="#000000" fill-rule="nonzero" opacity="1" stroke="none"/>
<path d="M1104 437.719C1104 431.16 1101.69 425.567 1097.06 420.941C1092.43 416.314 1086.84 414 1080.28 414L1058.72 414C1052.16 414 1046.57 416.314 1041.94 420.941C1037.31 425.568 1035 431.16 1035 437.719L1035 459.281C1035 459.641 1035.04 460.18 1035.13 460.899L1035 460.899L1035 483L1104 483L1104 460.899L1103.87 460.899C1103.96 460.18 1104 459.641 1104 459.281L1104 437.719Z" fill="#000000" fill-rule="nonzero" opacity="1" stroke="none"/>
<path d="M1242 459.281C1242 465.841 1239.69 471.433 1235.06 476.059C1230.43 480.685 1224.84 483 1218.28 483L1196.72 483C1190.16 483 1184.57 480.685 1179.94 476.059C1175.31 471.433 1173 465.841 1173 459.281L1173 437.719C1173 431.161 1175.31 425.568 1179.94 420.941C1184.57 416.314 1190.16 414 1196.72 414L1218.28 414C1224.84 414 1230.43 416.314 1235.06 420.941C1239.69 425.569 1242 431.161 1242 437.719L1242 459.281Z" fill="#000000" fill-rule="nonzero" opacity="1" stroke="none"/>
<path d="M1587 459.281C1587 465.841 1584.69 471.433 1580.06 476.059C1575.43 480.685 1569.84 483 1563.28 483L1541.72 483C1535.16 483 1529.57 480.685 1524.94 476.059C1520.31 471.433 1518 465.841 1518 459.281L1518 437.719C1518 431.161 1520.31 425.568 1524.94 420.941C1529.57 416.314 1535.16 414 1541.72 414L1563.28 414C1569.84 414 1575.43 416.314 1580.06 420.941C1584.69 425.569 1587 431.161 1587 437.719L1587 459.281Z" fill="#000000" fill-rule="nonzero" opacity="1" stroke="none"/>
<path d="M759 506.719C759 500.16 756.686 494.567 752.059 489.941C747.433 485.314 741.84 483 735.281 483L713.719 483C707.16 483 701.567 485.314 696.941 489.941C692.314 494.568 690 500.16 690 506.719L690 528.281C690 528.641 690.045 529.18 690.135 529.899L690 529.899L690 552L759 552L759 529.899L758.865 529.899C758.957 529.18 759 528.641 759 528.281L759 506.719Z" fill="#000000" fill-rule="nonzero" opacity="1" stroke="none"/>
<path d="M897 506.719L897 483L851.719 483C845.16 483 839.567 485.314 834.941 489.941C830.314 494.568 828 500.16 828 506.719L828 552L897 552L897 506.719Z" fill="#000000" fill-rule="nonzero" opacity="1" stroke="none"/>
<path d="M942.281 483L897 483L897 552L942.281 552C948.84 552 954.433 549.686 959.059 545.059C963.686 540.433 966 534.84 966 528.281L966 506.719C966 500.16 963.686 494.567 959.059 489.941C954.433 485.314 948.84 483 942.281 483Z" fill="#000000" fill-rule="nonzero" opacity="1" stroke="none"/>
<path d="M1104 483L1035 483L1035 528.281C1035 534.84 1037.31 540.433 1041.94 545.059C1046.57 549.686 1052.16 552 1058.72 552L1104 552L1104 483Z" fill="#000000" fill-rule="nonzero" opacity="1" stroke="none"/>
<path d="M1173 506.719C1173 500.16 1170.69 494.567 1166.06 489.941C1161.43 485.314 1155.84 483 1149.28 483L1104 483L1104 552L1173 552L1173 506.719Z" fill="#000000" fill-rule="nonzero" opacity="1" stroke="none"/>
<path d="M1311 506.719C1311 500.16 1308.69 494.567 1304.06 489.941C1299.43 485.314 1293.84 483 1287.28 483L1265.72 483C1259.16 483 1253.57 485.314 1248.94 489.941C1244.31 494.568 1242 500.16 1242 506.719L1242 528.281C1242 528.641 1242.04 529.18 1242.13 529.899L1242 529.899L1242 552L1311 552L1311 529.899L1310.87 529.899C1310.96 529.18 1311 528.641 1311 528.281L1311 506.719Z" fill="#000000" fill-rule="nonzero" opacity="1" stroke="none"/>
<path d="M1449 506.719L1449 483L1403.72 483C1397.16 483 1391.57 485.314 1386.94 489.941C1382.31 494.568 1380 500.16 1380 506.719L1380 552L1449 552L1449 506.719Z" fill="#000000" fill-rule="nonzero" opacity="1" stroke="none"/>
<path d="M1494.28 483L1449 483L1449 552L1494.28 552C1500.84 552 1506.43 549.686 1511.06 545.059C1515.69 540.433 1518 534.84 1518 528.281L1518 506.719C1518 500.16 1515.69 494.567 1511.06 489.941C1506.43 485.314 1500.84 483 1494.28 483Z" fill="#000000" fill-rule="nonzero" opacity="1" stroke="none"/>
<path d="M690 552L759 552L759 552L759 621L759 621L690 621L690 621L690 552L690 552Z" fill="#000000" fill-rule="nonzero" opacity="1" stroke="none"/>
<path d="M896.865 574.101L897 574.101L897 552L828 552L828 574.101L828.135 574.101C828.045 574.82 828 575.359 828 575.719L828 597.281C828 603.84 830.314 609.433 834.941 614.059C839.568 618.686 845.16 621 851.719 621L873.281 621C879.84 621 885.433 618.686 890.059 614.059C894.686 609.433 897 603.84 897 597.281L897 575.719C897 575.359 896.957 574.82 896.865 574.101Z" fill="#000000" fill-rule="nonzero" opacity="1" stroke="none"/>
<path d="M1035 575.719C1035 569.16 1032.69 563.567 1028.06 558.941C1023.43 554.314 1017.84 552 1011.28 552L989.719 552C983.16 552 977.567 554.314 972.941 558.941C968.314 563.568 966 569.16 966 575.719L966 597.281C966 597.641 966.045 598.18 966.135 598.899L966 598.899L966 621L1035 621L1035 598.899L1034.87 598.899C1034.96 598.18 1035 597.641 1035 597.281L1035 575.719Z" fill="#000000" fill-rule="nonzero" opacity="1" stroke="none"/>
<path d="M1172.87 574.101L1173 574.101L1173 552L1104 552L1104 574.101L1104.13 574.101C1104.04 574.82 1104 575.359 1104 575.719L1104 597.281C1104 603.84 1106.31 609.433 1110.94 614.059C1115.57 618.686 1121.16 621 1127.72 621L1149.28 621C1155.84 621 1161.43 618.686 1166.06 614.059C1170.69 609.433 1173 603.84 1173 597.281L1173 575.719C1173 575.359 1172.96 574.82 1172.87 574.101Z" fill="#000000" fill-rule="nonzero" opacity="1" stroke="none"/>
<path d="M1242 552L1311 552L1311 552L1311 621L1311 621L1242 621L1242 621L1242 552L1242 552Z" fill="#000000" fill-rule="nonzero" opacity="1" stroke="none"/>
<path d="M1380 552L1449 552L1449 552L1449 621L1449 621L1380 621L1380 621L1380 552L1380 552Z" fill="#000000" fill-rule="nonzero" opacity="1" stroke="none"/>
<path d="M1587 575.719C1587 569.16 1584.69 563.567 1580.06 558.941C1575.43 554.314 1569.84 552 1563.28 552L1541.72 552C1535.16 552 1529.57 554.314 1524.94 558.941C1520.31 563.568 1518 569.16 1518 575.719L1518 597.281C1518 597.641 1518.04 598.18 1518.13 598.899L1518 598.899L1518 621L1587 621L1587 598.899L1586.87 598.899C1586.96 598.18 1587 597.641 1587 597.281L1587 575.719Z" fill="#000000" fill-rule="nonzero" opacity="1" stroke="none"/>
<path d="M759 621L690 621L690 666.281C690 672.84 692.314 678.433 696.941 683.059C701.568 687.686 707.16 690 713.719 690L759 690L759 621Z" fill="#000000" fill-rule="nonzero" opacity="1" stroke="none"/>
<path d="M804.281 621L759 621L759 690L804.281 690C810.84 690 816.433 687.686 821.059 683.059C825.686 678.433 828 672.84 828 666.281L828 644.719C828 638.16 825.686 632.567 821.059 627.941C816.433 623.314 810.84 621 804.281 621Z" fill="#000000" fill-rule="nonzero" opacity="1" stroke="none"/>
<path d="M966 644.719L966 621L920.719 621C914.16 621 908.567 623.314 903.941 627.941C899.314 632.568 897 638.16 897 644.719L897 690L966 690L966 644.719Z" fill="#000000" fill-rule="nonzero" opacity="1" stroke="none"/>
<path d="M1035 621L966 621L966 690L1011.28 690C1017.84 690 1023.43 687.686 1028.06 683.059C1032.69 678.433 1035 672.84 1035 666.281L1035 621Z" fill="#000000" fill-rule="nonzero" opacity="1" stroke="none"/>
<path d="M1242 621L1311 621L1311 621L1311 690L1311 690L1242 690L1242 690L1242 621L1242 621Z" fill="#000000" fill-rule="nonzero" opacity="1" stroke="none"/>
<path d="M1311 621L1380 621L1380 621L1380 690L1380 690L1311 690L1311 690L1311 621L1311 621Z" fill="#000000" fill-rule="nonzero" opacity="1" stroke="none"/>
<path d="M1380 621L1449 621L1449 621L1449 690L1449 690L1380 690L1380 690L1380 621L1380 621Z" fill="#000000" fill-rule="nonzero" opacity="1" stroke="none"/>
<path d="M1518 621L1587 621L1587 621L1587 690L1587 690L1518 690L1518 690L1518 621L1518 621Z" fill="#000000" fill-rule="nonzero" opacity="1" stroke="none"/>
<path d="M483 713.719L483 690L437.719 690C431.16 690 425.567 692.314 420.941 696.941C416.314 701.568 414 707.16 414 713.719L414 759L483 759L483 713.719Z" fill="#000000" fill-rule="nonzero" opacity="1" stroke="none"/>
<path d="M483 690L552 690L552 690L552 759L552 759L483 759L483 759L483 690L483 690Z" fill="#000000" fill-rule="nonzero" opacity="1" stroke="none"/>
<path d="M552 690L621 690L621 690L621 759L621 759L552 759L552 759L552 690L552 690Z" fill="#000000" fill-rule="nonzero" opacity="1" stroke="none"/>
<path d="M690 713.719C690 707.16 687.686 701.567 683.059 696.941C678.433 692.314 672.84 690 666.281 690L621 690L621 759L690 759L690 713.719Z" fill="#000000" fill-rule="nonzero" opacity="1" stroke="none"/>
<path d="M965.865 712.101L966 712.101L966 690L897 690L897 712.101L897.135 712.101C897.045 712.82 897 713.359 897 713.719L897 735.281C897 741.84 899.314 747.433 903.941 752.059C908.568 756.686 914.16 759 920.719 759L942.281 759C948.84 759 954.433 756.686 959.059 752.059C963.686 747.433 966 741.84 966 735.281L966 713.719C966 713.359 965.957 712.82 965.865 712.101Z" fill="#000000" fill-rule="nonzero" opacity="1" stroke="none"/>
<path d="M1310.87 712.101L1311 712.101L1311 690L1242 690L1242 712.101L1242.13 712.101C1242.04 712.82 1242 713.359 1242 713.719L1242 735.281C1242 741.84 1244.31 747.433 1248.94 752.059C1253.57 756.686 1259.16 759 1265.72 759L1287.28 759C1293.84 759 1299.43 756.686 1304.06 752.059C1308.69 747.433 1311 741.84 1311 735.281L1311 713.719C1311 713.359 1310.96 712.82 1310.87 712.101Z" fill="#000000" fill-rule="nonzero" opacity="1" stroke="none"/>
<path d="M1448.87 712.101L1449 712.101L1449 690L1380 690L1380 712.101L1380.13 712.101C1380.04 712.82 1380 713.359 1380 713.719L1380 735.281C1380 741.84 1382.31 747.433 1386.94 752.059C1391.57 756.686 1397.16 759 1403.72 759L1425.28 759C1431.84 759 1437.43 756.686 1442.06 752.059C1446.69 747.433 1449 741.84 1449 735.281L1449 713.719C1449 713.359 1448.96 712.82 1448.87 712.101Z" fill="#000000" fill-rule="nonzero" opacity="1" stroke="none"/>
<path d="M1518 690L1587 690L1587 690L1587 759L1587 759L1518 759L1518 759L1518 690L1518 690Z" fill="#000000" fill-rule="nonzero" opacity="1" stroke="none"/>
<path d="M1725 713.719L1725 690L1679.72 690C1673.16 690 1667.57 692.314 1662.94 696.941C1658.31 701.568 1656 707.16 1656 713.719L1656 759L1725 759L1725 713.719Z" fill="#000000" fill-rule="nonzero" opacity="1" stroke="none"/>
<path d="M1794 713.719C1794 707.16 1791.69 701.567 1787.06 696.941C1782.43 692.314 1776.84 690 1770.28 690L1725 690L1725 759L1794 759L1794 713.719Z" fill="#000000" fill-rule="nonzero" opacity="1" stroke="none"/>
<path d="M2070 713.719C2070 707.16 2067.69 701.567 2063.06 696.941C2058.43 692.314 2052.84 690 2046.28 690L2024.72 690C2018.16 690 2012.57 692.314 2007.94 696.941C2003.31 701.568 2001 707.16 2001 713.719L2001 735.281C2001 735.641 2001.04 736.18 2001.13 736.899L2001 736.899L2001 759L2070 759L2070 736.899L2069.87 736.899C2069.96 736.18 2070 735.641 2070 735.281L2070 713.719Z" fill="#000000" fill-rule="nonzero" opacity="1" stroke="none"/>
<path d="M207 782.719L207 759L161.719 759C155.16 759 149.567 761.314 144.941 765.941C140.314 770.568 138 776.16 138 782.719L138 804.281C138 810.84 140.314 816.433 144.941 821.059C149.568 825.686 155.16 828 161.719 828L207 828L207 782.719Z" fill="#000000" fill-rule="nonzero" opacity="1" stroke="none"/>
<path d="M207 759L276 759L276 759L276 828L276 828L207 828L207 828L207 759L207 759Z" fill="#000000" fill-rule="nonzero" opacity="1" stroke="none"/>
<path d="M276 759L345 759L345 759L345 828L345 828L276 828L276 828L276 759L276 759Z" fill="#000000" fill-rule="nonzero" opacity="1" stroke="none"/>
<path d="M345 759L414 759L414 759L414 828L414 828L345 828L345 828L345 759L345 759Z" fill="#000000" fill-rule="nonzero" opacity="1" stroke="none"/>
<path d="M414 759L483 759L483 759L483 828L483 828L414 828L414 828L414 759L414 759Z" fill="#000000" fill-rule="nonzero" opacity="1" stroke="none"/>
<path d="M483 759L552 759L552 759L552 828L552 828L483 828L483 828L483 759L483 759Z" fill="#000000" fill-rule="nonzero" opacity="1" stroke="none"/>
<path d="M690 759L621 759L621 804.281C621 810.84 623.314 816.433 627.941 821.059C632.568 825.686 638.16 828 644.719 828L690 828L690 759Z" fill="#000000" fill-rule="nonzero" opacity="1" stroke="none"/>
<path d="M690 759L759 759L759 759L759 828L759 828L690 828L690 828L690 759L690 759Z" fill="#000000" fill-rule="nonzero" opacity="1" stroke="none"/>
<path d="M804.281 759L759 759L759 828L804.281 828C810.84 828 816.433 825.686 821.059 821.059C825.686 816.433 828 810.84 828 804.281L828 782.719C828 776.16 825.686 770.567 821.059 765.941C816.433 761.314 810.84 759 804.281 759Z" fill="#000000" fill-rule="nonzero" opacity="1" stroke="none"/>
<path d="M1104 804.281C1104 810.841 1101.69 816.433 1097.06 821.059C1092.43 825.685 1086.84 828 1080.28 828L1058.72 828C1052.16 828 1046.57 825.685 1041.94 821.059C1037.31 816.433 1035 810.841 1035 804.281L1035 782.719C1035 776.161 1037.31 770.568 1041.94 765.941C1046.57 761.314 1052.16 759 1058.72 759L1080.28 759C1086.84 759 1092.43 761.314 1097.06 765.941C1101.69 770.569 1104 776.161 1104 782.719L1104 804.281Z" fill="#000000" fill-rule="nonzero" opacity="1" stroke="none"/>
<path d="M1242 782.719C1242 776.16 1239.69 770.567 1235.06 765.941C1230.43 761.314 1224.84 759 1218.28 759L1196.72 759C1190.16 759 1184.57 761.314 1179.94 765.941C1175.31 770.568 1173 776.16 1173 782.719L1173 804.281C1173 804.641 1173.04 805.18 1173.13 805.899L1173 805.899L1173 828L1242 828L1242 805.899L1241.87 805.899C1241.96 805.18 1242 804.641 1242 804.281L1242 782.719Z" fill="#000000" fill-rule="nonzero" opacity="1" stroke="none"/>
<path d="M1518 782.719L1518 759L1472.72 759C1466.16 759 1460.57 761.314 1455.94 765.941C1451.31 770.568 1449 776.16 1449 782.719L1449 804.281C1449 810.84 1451.31 816.433 1455.94 821.059C1460.57 825.686 1466.16 828 1472.72 828L1518 828L1518 782.719Z" fill="#000000" fill-rule="nonzero" opacity="1" stroke="none"/>
<path d="M1518 759L1587 759L1587 759L1587 828L1587 828L1518 828L1518 828L1518 759L1518 759Z" fill="#000000" fill-rule="nonzero" opacity="1" stroke="none"/>
<path d="M1725 759L1656 759L1656 804.281C1656 810.84 1658.31 816.433 1662.94 821.059C1667.57 825.686 1673.16 828 1679.72 828L1725 828L1725 759Z" fill="#000000" fill-rule="nonzero" opacity="1" stroke="none"/>
<path d="M1725 759L1794 759L1794 759L1794 828L1794 828L1725 828L1725 828L1725 759L1725 759Z" fill="#000000" fill-rule="nonzero" opacity="1" stroke="none"/>
<path d="M1839.28 759L1794 759L1794 828L1839.28 828C1845.84 828 1851.43 825.686 1856.06 821.059C1860.69 816.433 1863 810.84 1863 804.281L1863 782.719C1863 776.16 1860.69 770.567 1856.06 765.941C1851.43 761.314 1845.84 759 1839.28 759Z" fill="#000000" fill-rule="nonzero" opacity="1" stroke="none"/>
<path d="M2001 782.719L2001 759L1955.72 759C1949.16 759 1943.57 761.314 1938.94 765.941C1934.31 770.568 1932 776.16 1932 782.719L1932 828L2001 828L2001 782.719Z" fill="#000000" fill-rule="nonzero" opacity="1" stroke="none"/>
<path d="M2001 759L2070 759L2070 759L2070 828L2070 828L2001 828L2001 828L2001 759L2001 759Z" fill="#000000" fill-rule="nonzero" opacity="1" stroke="none"/>
<path d="M2139 782.719C2139 776.16 2136.69 770.567 2132.06 765.941C2127.43 761.314 2121.84 759 2115.28 759L2070 759L2070 828L2139 828L2139 782.719Z" fill="#000000" fill-rule="nonzero" opacity="1" stroke="none"/>
<path d="M276 828L207 828L207 873.281C207 879.84 209.314 885.433 213.941 890.059C218.568 894.686 224.16 897 230.719 897L276 897L276 828Z" fill="#000000" fill-rule="nonzero" opacity="1" stroke="none"/>
<path d="M276 828L345 828L345 828L345 897L345 897L276 897L276 897L276 828L276 828Z" fill="#000000" fill-rule="nonzero" opacity="1" stroke="none"/>
<path d="M414 828L345 828L345 897L390.281 897C396.84 897 402.433 894.686 407.059 890.059C411.686 885.433 414 879.84 414 873.281L414 828Z" fill="#000000" fill-rule="nonzero" opacity="1" stroke="none"/>
<path d="M552 828L483 828L483 873.281C483 879.84 485.314 885.433 489.941 890.059C494.568 894.686 500.16 897 506.719 897L552 897L552 828Z" fill="#000000" fill-rule="nonzero" opacity="1" stroke="none"/>
<path d="M597.281 828L552 828L552 897L597.281 897C603.84 897 609.433 894.686 614.059 890.059C618.686 885.433 621 879.84 621 873.281L621 851.719C621 845.16 618.686 839.567 614.059 834.941C609.433 830.314 603.84 828 597.281 828Z" fill="#000000" fill-rule="nonzero" opacity="1" stroke="none"/>
<path d="M690 828L759 828L759 828L759 897L759 897L690 897L690 897L690 828L690 828Z" fill="#000000" fill-rule="nonzero" opacity="1" stroke="none"/>
<path d="M966 851.719L966 828L920.719 828C914.16 828 908.567 830.314 903.941 834.941C899.314 839.568 897 845.16 897 851.719L897 873.281C897 879.84 899.314 885.433 903.941 890.059C908.568 894.686 914.16 897 920.719 897L966 897L966 851.719Z" fill="#000000" fill-rule="nonzero" opacity="1" stroke="none"/>
<path d="M1011.28 828L966 828L966 897L1011.28 897C1017.84 897 1023.43 894.686 1028.06 890.059C1032.69 885.433 1035 879.84 1035 873.281L1035 851.719C1035 845.16 1032.69 839.567 1028.06 834.941C1023.43 830.314 1017.84 828 1011.28 828Z" fill="#000000" fill-rule="nonzero" opacity="1" stroke="none"/>
<path d="M1242 828L1173 828L1173 873.281C1173 879.84 1175.31 885.433 1179.94 890.059C1184.57 894.686 1190.16 897 1196.72 897L1242 897L1242 828Z" fill="#000000" fill-rule="nonzero" opacity="1" stroke="none"/>
<path d="M1242 828L1311 828L1311 828L1311 897L1311 897L1242 897L1242 897L1242 828L1242 828Z" fill="#000000" fill-rule="nonzero" opacity="1" stroke="none"/>
<path d="M1311 828L1380 828L1380 828L1380 897L1380 897L1311 897L1311 897L1311 828L1311 828Z" fill="#000000" fill-rule="nonzero" opacity="1" stroke="none"/>
<path d="M1425.28 828L1380 828L1380 897L1425.28 897C1431.84 897 1437.43 894.686 1442.06 890.059C1446.69 885.433 1449 879.84 1449 873.281L1449 851.719C1449 845.16 1446.69 839.567 1442.06 834.941C1437.43 830.314 1431.84 828 1425.28 828Z" fill="#000000" fill-rule="nonzero" opacity="1" stroke="none"/>
<path d="M1518 828L1587 828L1587 828L1587 897L1587 897L1518 897L1518 897L1518 828L1518 828Z" fill="#000000" fill-rule="nonzero" opacity="1" stroke="none"/>
<path d="M1656 851.719C1656 845.16 1653.69 839.567 1649.06 834.941C1644.43 830.314 1638.84 828 1632.28 828L1587 828L1587 897L1656 897L1656 851.719Z" fill="#000000" fill-rule="nonzero" opacity="1" stroke="none"/>
<path d="M1932 851.719L1932 828L1886.72 828C1880.16 828 1874.57 830.314 1869.94 834.941C1865.31 839.568 1863 845.16 1863 851.719L1863 897L1932 897L1932 851.719Z" fill="#000000" fill-rule="nonzero" opacity="1" stroke="none"/>
<path d="M2001 828L1932 828L1932 897L1977.28 897C1983.84 897 1989.43 894.686 1994.06 890.059C1998.69 885.433 2001 879.84 2001 873.281L2001 828Z" fill="#000000" fill-rule="nonzero" opacity="1" stroke="none"/>
<path d="M2070 828L2139 828L2139 828L2139 897L2139 897L2070 897L2070 897L2070 828L2070 828Z" fill="#000000" fill-rule="nonzero" opacity="1" stroke="none"/>
<path d="M207 920.719C207 914.16 204.686 908.567 200.059 903.941C195.433 899.314 189.84 897 183.281 897L161.719 897C155.16 897 149.567 899.314 144.941 903.941C140.314 908.568 138 914.16 138 920.719L138 942.281C138 942.641 138.045 943.18 138.135 943.899L138 943.899L138 966L207 966L207 943.899L206.865 943.899C206.957 943.18 207 942.641 207 942.281L207 920.719Z" fill="#000000" fill-rule="nonzero" opacity="1" stroke="none"/>
<path d="M483 920.719C483 914.16 480.686 908.567 476.059 903.941C471.433 899.314 465.84 897 459.281 897L437.719 897C431.16 897 425.567 899.314 420.941 903.941C416.314 908.568 414 914.16 414 920.719L414 942.281C414 942.641 414.045 943.18 414.135 943.899L414 943.899L414 966L483 966L483 943.899L482.865 943.899C482.957 943.18 483 942.641 483 942.281L483 920.719Z" fill="#000000" fill-rule="nonzero" opacity="1" stroke="none"/>
<path d="M690 920.719L690 897L644.719 897C638.16 897 632.567 899.314 627.941 903.941C623.314 908.568 621 914.16 621 920.719L621 942.281C621 948.84 623.314 954.433 627.941 959.059C632.568 963.686 638.16 966 644.719 966L690 966L690 920.719Z" fill="#000000" fill-rule="nonzero" opacity="1" stroke="none"/>
<path d="M690 897L759 897L759 897L759 966L759 966L690 966L690 966L690 897L690 897Z" fill="#000000" fill-rule="nonzero" opacity="1" stroke="none"/>
<path d="M759 897L828 897L828 897L828 966L828 966L759 966L759 966L759 897L759 897Z" fill="#000000" fill-rule="nonzero" opacity="1" stroke="none"/>
<path d="M897 920.719C897 914.16 894.686 908.567 890.059 903.941C885.433 899.314 879.84 897 873.281 897L828 897L828 966L897 966L897 920.719Z" fill="#000000" fill-rule="nonzero" opacity="1" stroke="none"/>
<path d="M1104 920.719C1104 914.16 1101.69 908.567 1097.06 903.941C1092.43 899.314 1086.84 897 1080.28 897L1058.72 897C1052.16 897 1046.57 899.314 1041.94 903.941C1037.31 908.568 1035 914.16 1035 920.719L1035 942.281C1035 942.641 1035.04 943.18 1035.13 943.899L1035 943.899L1035 966L1104 966L1104 943.899L1103.87 943.899C1103.96 943.18 1104 942.641 1104 942.281L1104 920.719Z" fill="#000000" fill-rule="nonzero" opacity="1" stroke="none"/>
<path d="M1242 897L1311 897L1311 897L1311 966L1311 966L1242 966L1242 966L1242 897L1242 897Z" fill="#000000" fill-rule="nonzero" opacity="1" stroke="none"/>
<path d="M1518 920.719L1518 897L1472.72 897C1466.16 897 1460.57 899.314 1455.94 903.941C1451.31 908.568 1449 914.16 1449 920.719L1449 942.281C1449 948.84 1451.31 954.433 1455.94 959.059C1460.57 963.686 1466.16 966 1472.72 966L1518 966L1518 920.719Z" fill="#000000" fill-rule="nonzero" opacity="1" stroke="none"/>
<path d="M1518 897L1587 897L1587 897L1587 966L1587 966L1518 966L1518 966L1518 897L1518 897Z" fill="#000000" fill-rule="nonzero" opacity="1" stroke="none"/>
<path d="M1656 897L1587 897L1587 966L1632.28 966C1638.84 966 1644.43 963.686 1649.06 959.059C1653.69 954.433 1656 948.84 1656 942.281L1656 897Z" fill="#000000" fill-rule="nonzero" opacity="1" stroke="none"/>
<path d="M1863 897L1932 897L1932 897L1932 966L1932 966L1863 966L1863 966L1863 897L1863 897Z" fill="#000000" fill-rule="nonzero" opacity="1" stroke="none"/>
<path d="M2070 920.719L2070 897L2024.72 897C2018.16 897 2012.57 899.314 2007.94 903.941C2003.31 908.568 2001 914.16 2001 920.719L2001 942.281C2001 948.84 2003.31 954.433 2007.94 959.059C2012.57 963.686 2018.16 966 2024.72 966L2070 966L2070 920.719Z" fill="#000000" fill-rule="nonzero" opacity="1" stroke="none"/>
<path d="M2070 897L2139 897L2139 897L2139 966L2139 966L2070 966L2070 966L2070 897L2070 897Z" fill="#000000" fill-rule="nonzero" opacity="1" stroke="none"/>
<path d="M138 966L207 966L207 966L207 1035L207 1035L138 1035L138 1035L138 966L138 966Z" fill="#000000" fill-rule="nonzero" opacity="1" stroke="none"/>
<path d="M276 989.719C276 983.16 273.686 977.567 269.059 972.941C264.433 968.314 258.84 966 252.281 966L207 966L207 1035L276 1035L276 989.719Z" fill="#000000" fill-rule="nonzero" opacity="1" stroke="none"/>
<path d="M414 989.719L414 966L368.719 966C362.16 966 356.567 968.314 351.941 972.941C347.314 977.568 345 983.16 345 989.719L345 1035L414 1035L414 989.719Z" fill="#000000" fill-rule="nonzero" opacity="1" stroke="none"/>
<path d="M414 966L483 966L483 966L483 1035L483 1035L414 1035L414 1035L414 966L414 966Z" fill="#000000" fill-rule="nonzero" opacity="1" stroke="none"/>
<path d="M621 1011.28C621 1017.84 618.685 1023.43 614.059 1028.06C609.433 1032.69 603.841 1035 597.281 1035L575.719 1035C569.161 1035 563.568 1032.69 558.941 1028.06C554.314 1023.43 552 1017.84 552 1011.28L552 989.719C552 983.161 554.314 977.568 558.941 972.941C563.569 968.314 569.161 966 575.719 966L597.281 966C603.842 966 609.434 968.314 614.059 972.941C618.686 977.569 621 983.161 621 989.719L621 1011.28Z" fill="#000000" fill-rule="nonzero" opacity="1" stroke="none"/>
<path d="M828 966L759 966L759 1011.28C759 1017.84 761.314 1023.43 765.941 1028.06C770.568 1032.69 776.16 1035 782.719 1035L828 1035L828 966Z" fill="#000000" fill-rule="nonzero" opacity="1" stroke="none"/>
<path d="M828 966L897 966L897 966L897 1035L897 1035L828 1035L828 1035L828 966L828 966Z" fill="#000000" fill-rule="nonzero" opacity="1" stroke="none"/>
<path d="M1103.87 988.101L1104 988.101L1104 966L1035 966L1035 988.101L1035.13 988.101C1035.04 988.82 1035 989.359 1035 989.719L1035 1011.28C1035 1017.84 1037.31 1023.43 1041.94 1028.06C1046.57 1032.69 1052.16 1035 1058.72 1035L1080.28 1035C1086.84 1035 1092.43 1032.69 1097.06 1028.06C1101.69 1023.43 1104 1017.84 1104 1011.28L1104 989.719C1104 989.359 1103.96 988.82 1103.87 988.101Z" fill="#000000" fill-rule="nonzero" opacity="1" stroke="none"/>
<path d="M1242 989.719L1242 966L1196.72 966C1190.16 966 1184.57 968.314 1179.94 972.941C1175.31 977.568 1173 983.16 1173 989.719L1173 1035L1242 1035L1242 989.719Z" fill="#000000" fill-rule="nonzero" opacity="1" stroke="none"/>
<path d="M1242 966L1311 966L1311 966L1311 1035L1311 1035L1242 1035L1242 1035L1242 966L1242 966Z" fill="#000000" fill-rule="nonzero" opacity="1" stroke="none"/>
<path d="M1356.28 966L1311 966L1311 1035L1356.28 1035C1362.84 1035 1368.43 1032.69 1373.06 1028.06C1377.69 1023.43 1380 1017.84 1380 1011.28L1380 989.719C1380 983.16 1377.69 977.567 1373.06 972.941C1368.43 968.314 1362.84 966 1356.28 966Z" fill="#000000" fill-rule="nonzero" opacity="1" stroke="none"/>
<path d="M1586.87 988.101L1587 988.101L1587 966L1518 966L1518 988.101L1518.13 988.101C1518.04 988.82 1518 989.359 1518 989.719L1518 1011.28C1518 1017.84 1520.31 1023.43 1524.94 1028.06C1529.57 1032.69 1535.16 1035 1541.72 1035L1563.28 1035C1569.84 1035 1575.43 1032.69 1580.06 1028.06C1584.69 1023.43 1587 1017.84 1587 1011.28L1587 989.719C1587 989.359 1586.96 988.82 1586.87 988.101Z" fill="#000000" fill-rule="nonzero" opacity="1" stroke="none"/>
<path d="M1794 1011.28C1794 1017.84 1791.69 1023.43 1787.06 1028.06C1782.43 1032.69 1776.84 1035 1770.28 1035L1748.72 1035C1742.16 1035 1736.57 1032.69 1731.94 1028.06C1727.31 1023.43 1725 1017.84 1725 1011.28L1725 989.719C1725 983.161 1727.31 977.568 1731.94 972.941C1736.57 968.314 1742.16 966 1748.72 966L1770.28 966C1776.84 966 1782.43 968.314 1787.06 972.941C1791.69 977.569 1794 983.161 1794 989.719L1794 1011.28Z" fill="#000000" fill-rule="nonzero" opacity="1" stroke="none"/>
<path d="M1931.87 988.101L1932 988.101L1932 966L1863 966L1863 988.101L1863.13 988.101C1863.04 988.82 1863 989.359 1863 989.719L1863 1011.28C1863 1017.84 1865.31 1023.43 1869.94 1028.06C1874.57 1032.69 1880.16 1035 1886.72 1035L1908.28 1035C1914.84 1035 1920.43 1032.69 1925.06 1028.06C1929.69 1023.43 1932 1017.84 1932 1011.28L1932 989.719C1932 989.359 1931.96 988.82 1931.87 988.101Z" fill="#000000" fill-rule="nonzero" opacity="1" stroke="none"/>
<path d="M2070 966L2139 966L2139 966L2139 1035L2139 1035L2070 1035L2070 1035L2070 966L2070 966Z" fill="#000000" fill-rule="nonzero" opacity="1" stroke="none"/>
<path d="M138 1035L207 1035L207 1035L207 1104L207 1104L138 1104L138 1104L138 1035L138 1035Z" fill="#000000" fill-rule="nonzero" opacity="1" stroke="none"/>
<path d="M207 1035L276 1035L276 1035L276 1104L276 1104L207 1104L207 1104L207 1035L207 1035Z" fill="#000000" fill-rule="nonzero" opacity="1" stroke="none"/>
<path d="M276 1035L345 1035L345 1035L345 1104L345 1104L276 1104L276 1104L276 1035L276 1035Z" fill="#000000" fill-rule="nonzero" opacity="1" stroke="none"/>
<path d="M345 1035L414 1035L414 1035L414 1104L414 1104L345 1104L345 1104L345 1035L345 1035Z" fill="#000000" fill-rule="nonzero" opacity="1" stroke="none"/>
<path d="M414 1035L483 1035L483 1035L483 1104L483 1104L414 1104L414 1104L414 1035L414 1035Z" fill="#000000" fill-rule="nonzero" opacity="1" stroke="none"/>
<path d="M528.281 1035L483 1035L483 1104L528.281 1104C534.84 1104 540.433 1101.69 545.059 1097.06C549.686 1092.43 552 1086.84 552 1080.28L552 1058.72C552 1052.16 549.686 1046.57 545.059 1041.94C540.433 1037.31 534.84 1035 528.281 1035Z" fill="#000000" fill-rule="nonzero" opacity="1" stroke="none"/>
<path d="M828 1035L897 1035L897 1035L897 1104L897 1104L828 1104L828 1104L828 1035L828 1035Z" fill="#000000" fill-rule="nonzero" opacity="1" stroke="none"/>
<path d="M897 1035L966 1035L966 1035L966 1104L966 1104L897 1104L897 1104L897 1035L897 1035Z" fill="#000000" fill-rule="nonzero" opacity="1" stroke="none"/>
<path d="M1035 1058.72C1035 1052.16 1032.69 1046.57 1028.06 1041.94C1023.43 1037.31 1017.84 1035 1011.28 1035L966 1035L966 1104L1035 1104L1035 1058.72Z" fill="#000000" fill-rule="nonzero" opacity="1" stroke="none"/>
<path d="M1173 1035L1242 1035L1242 1035L1242 1104L1242 1104L1173 1104L1173 1104L1173 1035L1173 1035Z" fill="#000000" fill-rule="nonzero" opacity="1" stroke="none"/>
<path d="M1725 1058.72C1725 1052.16 1722.69 1046.57 1718.06 1041.94C1713.43 1037.31 1707.84 1035 1701.28 1035L1679.72 1035C1673.16 1035 1667.57 1037.31 1662.94 1041.94C1658.31 1046.57 1656 1052.16 1656 1058.72L1656 1080.28C1656 1080.64 1656.04 1081.18 1656.13 1081.9L1656 1081.9L1656 1104L1725 1104L1725 1081.9L1724.87 1081.9C1724.96 1081.18 1725 1080.64 1725 1080.28L1725 1058.72Z" fill="#000000" fill-rule="nonzero" opacity="1" stroke="none"/>
<path d="M1863 1058.72C1863 1052.16 1860.69 1046.57 1856.06 1041.94C1851.43 1037.31 1845.84 1035 1839.28 1035L1817.72 1035C1811.16 1035 1805.57 1037.31 1800.94 1041.94C1796.31 1046.57 1794 1052.16 1794 1058.72L1794 1080.28C1794 1080.64 1794.04 1081.18 1794.13 1081.9L1794 1081.9L1794 1104L1863 1104L1863 1081.9L1862.87 1081.9C1862.96 1081.18 1863 1080.64 1863 1080.28L1863 1058.72Z" fill="#000000" fill-rule="nonzero" opacity="1" stroke="none"/>
<path d="M2001 1080.28C2001 1086.84 1998.69 1092.43 1994.06 1097.06C1989.43 1101.69 1983.84 1104 1977.28 1104L1955.72 1104C1949.16 1104 1943.57 1101.69 1938.94 1097.06C1934.31 1092.43 1932 1086.84 1932 1080.28L1932 1058.72C1932 1052.16 1934.31 1046.57 1938.94 1041.94C1943.57 1037.31 1949.16 1035 1955.72 1035L1977.28 1035C1983.84 1035 1989.43 1037.31 1994.06 1041.94C1998.69 1046.57 2001 1052.16 2001 1058.72L2001 1080.28Z" fill="#000000" fill-rule="nonzero" opacity="1" stroke="none"/>
<path d="M2070 1035L2139 1035L2139 1035L2139 1104L2139 1104L2070 1104L2070 1104L2070 1035L2070 1035Z" fill="#000000" fill-rule="nonzero" opacity="1" stroke="none"/>
<path d="M138 1104L207 1104L207 1104L207 1173L207 1173L138 1173L138 1173L138 1104L138 1104Z" fill="#000000" fill-rule="nonzero" opacity="1" stroke="none"/>
<path d="M482.865 1126.1L483 1126.1L483 1104L414 1104L414 1126.1L414.135 1126.1C414.045 1126.82 414 1127.36 414 1127.72L414 1149.28C414 1155.84 416.314 1161.43 420.941 1166.06C425.568 1170.69 431.16 1173 437.719 1173L459.281 1173C465.84 1173 471.433 1170.69 476.059 1166.06C480.686 1161.43 483 1155.84 483 1149.28L483 1127.72C483 1127.36 482.957 1126.82 482.865 1126.1Z" fill="#000000" fill-rule="nonzero" opacity="1" stroke="none"/>
<path d="M621 1127.72L621 1104L575.719 1104C569.16 1104 563.567 1106.31 558.941 1110.94C554.314 1115.57 552 1121.16 552 1127.72L552 1149.28C552 1155.84 554.314 1161.43 558.941 1166.06C563.568 1170.69 569.16 1173 575.719 1173L621 1173L621 1127.72Z" fill="#000000" fill-rule="nonzero" opacity="1" stroke="none"/>
<path d="M666.281 1104L621 1104L621 1173L666.281 1173C672.84 1173 678.433 1170.69 683.059 1166.06C687.686 1161.43 690 1155.84 690 1149.28L690 1127.72C690 1121.16 687.686 1115.57 683.059 1110.94C678.433 1106.31 672.84 1104 666.281 1104Z" fill="#000000" fill-rule="nonzero" opacity="1" stroke="none"/>
<path d="M828 1127.72L828 1104L782.719 1104C776.16 1104 770.567 1106.31 765.941 1110.94C761.314 1115.57 759 1121.16 759 1127.72L759 1173L828 1173L828 1127.72Z" fill="#000000" fill-rule="nonzero" opacity="1" stroke="none"/>
<path d="M828 1104L897 1104L897 1104L897 1173L897 1173L828 1173L828 1173L828 1104L828 1104Z" fill="#000000" fill-rule="nonzero" opacity="1" stroke="none"/>
<path d="M897 1104L966 1104L966 1104L966 1173L966 1173L897 1173L897 1173L897 1104L897 1104Z" fill="#000000" fill-rule="nonzero" opacity="1" stroke="none"/>
<path d="M966 1104L1035 1104L1035 1104L1035 1173L1035 1173L966 1173L966 1173L966 1104L966 1104Z" fill="#000000" fill-rule="nonzero" opacity="1" stroke="none"/>
<path d="M1104 1127.72C1104 1121.16 1101.69 1115.57 1097.06 1110.94C1092.43 1106.31 1086.84 1104 1080.28 1104L1035 1104L1035 1173L1104 1173L1104 1127.72Z" fill="#000000" fill-rule="nonzero" opacity="1" stroke="none"/>
<path d="M1242 1104L1173 1104L1173 1149.28C1173 1155.84 1175.31 1161.43 1179.94 1166.06C1184.57 1170.69 1190.16 1173 1196.72 1173L1242 1173L1242 1104Z" fill="#000000" fill-rule="nonzero" opacity="1" stroke="none"/>
<path d="M1311 1127.72C1311 1121.16 1308.69 1115.57 1304.06 1110.94C1299.43 1106.31 1293.84 1104 1287.28 1104L1242 1104L1242 1173L1311 1173L1311 1127.72Z" fill="#000000" fill-rule="nonzero" opacity="1" stroke="none"/>
<path d="M1449 1127.72C1449 1121.16 1446.69 1115.57 1442.06 1110.94C1437.43 1106.31 1431.84 1104 1425.28 1104L1403.72 1104C1397.16 1104 1391.57 1106.31 1386.94 1110.94C1382.31 1115.57 1380 1121.16 1380 1127.72L1380 1149.28C1380 1149.64 1380.04 1150.18 1380.13 1150.9L1380 1150.9L1380 1173L1449 1173L1449 1150.9L1448.87 1150.9C1448.96 1150.18 1449 1149.64 1449 1149.28L1449 1127.72Z" fill="#000000" fill-rule="nonzero" opacity="1" stroke="none"/>
<path d="M1656 1127.72L1656 1104L1610.72 1104C1604.16 1104 1598.57 1106.31 1593.94 1110.94C1589.31 1115.57 1587 1121.16 1587 1127.72L1587 1173L1656 1173L1656 1127.72Z" fill="#000000" fill-rule="nonzero" opacity="1" stroke="none"/>
<path d="M1725 1104L1656 1104L1656 1173L1701.28 1173C1707.84 1173 1713.43 1170.69 1718.06 1166.06C1722.69 1161.43 1725 1155.84 1725 1149.28L1725 1104Z" fill="#000000" fill-rule="nonzero" opacity="1" stroke="none"/>
<path d="M1862.87 1126.1L1863 1126.1L1863 1104L1794 1104L1794 1126.1L1794.13 1126.1C1794.04 1126.82 1794 1127.36 1794 1127.72L1794 1149.28C1794 1155.84 1796.31 1161.43 1800.94 1166.06C1805.57 1170.69 1811.16 1173 1817.72 1173L1839.28 1173C1845.84 1173 1851.43 1170.69 1856.06 1166.06C1860.69 1161.43 1863 1155.84 1863 1149.28L1863 1127.72C1863 1127.36 1862.96 1126.82 1862.87 1126.1Z" fill="#000000" fill-rule="nonzero" opacity="1" stroke="none"/>
<path d="M2138.87 1126.1L2139 1126.1L2139 1104L2070 1104L2070 1126.1L2070.13 1126.1C2070.04 1126.82 2070 1127.36 2070 1127.72L2070 1149.28C2070 1155.84 2072.31 1161.43 2076.94 1166.06C2081.57 1170.69 2087.16 1173 2093.72 1173L2115.28 1173C2121.84 1173 2127.43 1170.69 2132.06 1166.06C2136.69 1161.43 2139 1155.84 2139 1149.28L2139 1127.72C2139 1127.36 2138.96 1126.82 2138.87 1126.1Z" fill="#000000" fill-rule="nonzero" opacity="1" stroke="none"/>
<path d="M138 1173L207 1173L207 1173L207 1242L207 1242L138 1242L138 1242L138 1173L138 1173Z" fill="#000000" fill-rule="nonzero" opacity="1" stroke="none"/>
<path d="M207 1173L276 1173L276 1173L276 1242L276 1242L207 1242L207 1242L207 1173L207 1173Z" fill="#000000" fill-rule="nonzero" opacity="1" stroke="none"/>
<path d="M321.281 1173L276 1173L276 1242L321.281 1242C327.84 1242 333.433 1239.69 338.059 1235.06C342.686 1230.43 345 1224.84 345 1218.28L345 1196.72C345 1190.16 342.686 1184.57 338.059 1179.94C333.433 1175.31 327.84 1173 321.281 1173Z" fill="#000000" fill-rule="nonzero" opacity="1" stroke="none"/>
<path d="M552 1196.72C552 1190.16 549.686 1184.57 545.059 1179.94C540.433 1175.31 534.84 1173 528.281 1173L506.719 1173C500.16 1173 494.567 1175.31 489.941 1179.94C485.314 1184.57 483 1190.16 483 1196.72L483 1218.28C483 1218.64 483.045 1219.18 483.135 1219.9L483 1219.9L483 1242L552 1242L552 1219.9L551.865 1219.9C551.957 1219.18 552 1218.64 552 1218.28L552 1196.72Z" fill="#000000" fill-rule="nonzero" opacity="1" stroke="none"/>
<path d="M759 1196.72L759 1173L713.719 1173C707.16 1173 701.567 1175.31 696.941 1179.94C692.314 1184.57 690 1190.16 690 1196.72L690 1218.28C690 1224.84 692.314 1230.43 696.941 1235.06C701.568 1239.69 707.16 1242 713.719 1242L759 1242L759 1196.72Z" fill="#000000" fill-rule="nonzero" opacity="1" stroke="none"/>
<path d="M759 1173L828 1173L828 1173L828 1242L828 1242L759 1242L759 1242L759 1173L759 1173Z" fill="#000000" fill-rule="nonzero" opacity="1" stroke="none"/>
<path d="M828 1173L897 1173L897 1173L897 1242L897 1242L828 1242L828 1242L828 1173L828 1173Z" fill="#000000" fill-rule="nonzero" opacity="1" stroke="none"/>
<path d="M1035 1173L1104 1173L1104 1173L1104 1242L1104 1242L1035 1242L1035 1242L1035 1173L1035 1173Z" fill="#000000" fill-rule="nonzero" opacity="1" stroke="none"/>
<path d="M1149.28 1173L1104 1173L1104 1242L1149.28 1242C1155.84 1242 1161.43 1239.69 1166.06 1235.06C1170.69 1230.43 1173 1224.84 1173 1218.28L1173 1196.72C1173 1190.16 1170.69 1184.57 1166.06 1179.94C1161.43 1175.31 1155.84 1173 1149.28 1173Z" fill="#000000" fill-rule="nonzero" opacity="1" stroke="none"/>
<path d="M1242 1173L1311 1173L1311 1173L1311 1242L1311 1242L1242 1242L1242 1242L1242 1173L1242 1173Z" fill="#000000" fill-rule="nonzero" opacity="1" stroke="none"/>
<path d="M1311 1173L1380 1173L1380 1173L1380 1242L1380 1242L1311 1242L1311 1242L1311 1173L1311 1173Z" fill="#000000" fill-rule="nonzero" opacity="1" stroke="none"/>
<path d="M1449 1173L1380 1173L1380 1242L1425.28 1242C1431.84 1242 1437.43 1239.69 1442.06 1235.06C1446.69 1230.43 1449 1224.84 1449 1218.28L1449 1173Z" fill="#000000" fill-rule="nonzero" opacity="1" stroke="none"/>
<path d="M1587 1196.72L1587 1173L1541.72 1173C1535.16 1173 1529.57 1175.31 1524.94 1179.94C1520.31 1184.57 1518 1190.16 1518 1196.72L1518 1242L1587 1242L1587 1196.72Z" fill="#000000" fill-rule="nonzero" opacity="1" stroke="none"/>
<path d="M1656 1173L1587 1173L1587 1242L1632.28 1242C1638.84 1242 1644.43 1239.69 1649.06 1235.06C1653.69 1230.43 1656 1224.84 1656 1218.28L1656 1173Z" fill="#000000" fill-rule="nonzero" opacity="1" stroke="none"/>
<path d="M1794 1196.72C1794 1190.16 1791.69 1184.57 1787.06 1179.94C1782.43 1175.31 1776.84 1173 1770.28 1173L1748.72 1173C1742.16 1173 1736.57 1175.31 1731.94 1179.94C1727.31 1184.57 1725 1190.16 1725 1196.72L1725 1218.28C1725 1218.64 1725.04 1219.18 1725.13 1219.9L1725 1219.9L1725 1242L1794 1242L1794 1219.9L1793.87 1219.9C1793.96 1219.18 1794 1218.64 1794 1218.28L1794 1196.72Z" fill="#000000" fill-rule="nonzero" opacity="1" stroke="none"/>
<path d="M1932 1218.28C1932 1224.84 1929.69 1230.43 1925.06 1235.06C1920.43 1239.69 1914.84 1242 1908.28 1242L1886.72 1242C1880.16 1242 1874.57 1239.69 1869.94 1235.06C1865.31 1230.43 1863 1224.84 1863 1218.28L1863 1196.72C1863 1190.16 1865.31 1184.57 1869.94 1179.94C1874.57 1175.31 1880.16 1173 1886.72 1173L1908.28 1173C1914.84 1173 1920.43 1175.31 1925.06 1179.94C1929.69 1184.57 1932 1190.16 1932 1196.72L1932 1218.28Z" fill="#000000" fill-rule="nonzero" opacity="1" stroke="none"/>
<path d="M2070 1196.72C2070 1190.16 2067.69 1184.57 2063.06 1179.94C2058.43 1175.31 2052.84 1173 2046.28 1173L2024.72 1173C2018.16 1173 2012.57 1175.31 2007.94 1179.94C2003.31 1184.57 2001 1190.16 2001 1196.72L2001 1218.28C2001 1218.64 2001.04 1219.18 2001.13 1219.9L2001 1219.9L2001 1242L2070 1242L2070 1219.9L2069.87 1219.9C2069.96 1219.18 2070 1218.64 2070 1218.28L2070 1196.72Z" fill="#000000" fill-rule="nonzero" opacity="1" stroke="none"/>
<path d="M138 1242L207 1242L207 1242L207 1311L207 1311L138 1311L138 1311L138 1242L138 1242Z" fill="#000000" fill-rule="nonzero" opacity="1" stroke="none"/>
<path d="M414 1265.72C414 1259.16 411.686 1253.57 407.059 1248.94C402.433 1244.31 396.84 1242 390.281 1242L368.719 1242C362.16 1242 356.567 1244.31 351.941 1248.94C347.314 1253.57 345 1259.16 345 1265.72L345 1287.28C345 1287.64 345.045 1288.18 345.135 1288.9L345 1288.9L345 1311L414 1311L414 1288.9L413.865 1288.9C413.957 1288.18 414 1287.64 414 1287.28L414 1265.72Z" fill="#000000" fill-rule="nonzero" opacity="1" stroke="none"/>
<path d="M483 1242L552 1242L552 1242L552 1311L552 1311L483 1311L483 1311L483 1242L483 1242Z" fill="#000000" fill-rule="nonzero" opacity="1" stroke="none"/>
<path d="M597.281 1242L552 1242L552 1311L597.281 1311C603.84 1311 609.433 1308.69 614.059 1304.06C618.686 1299.43 621 1293.84 621 1287.28L621 1265.72C621 1259.16 618.686 1253.57 614.059 1248.94C609.433 1244.31 603.84 1242 597.281 1242Z" fill="#000000" fill-rule="nonzero" opacity="1" stroke="none"/>
<path d="M759 1242L828 1242L828 1242L828 1311L828 1311L759 1311L759 1311L759 1242L759 1242Z" fill="#000000" fill-rule="nonzero" opacity="1" stroke="none"/>
<path d="M828 1242L897 1242L897 1242L897 1311L897 1311L828 1311L828 1311L828 1242L828 1242Z" fill="#000000" fill-rule="nonzero" opacity="1" stroke="none"/>
<path d="M897 1242L966 1242L966 1242L966 1311L966 1311L897 1311L897 1311L897 1242L897 1242Z" fill="#000000" fill-rule="nonzero" opacity="1" stroke="none"/>
<path d="M966 1242L1035 1242L1035 1242L1035 1311L1035 1311L966 1311L966 1311L966 1242L966 1242Z" fill="#000000" fill-rule="nonzero" opacity="1" stroke="none"/>
<path d="M1035 1242L1104 1242L1104 1242L1104 1311L1104 1311L1035 1311L1035 1311L1035 1242L1035 1242Z" fill="#000000" fill-rule="nonzero" opacity="1" stroke="none"/>
<path d="M1242 1265.72L1242 1242L1196.72 1242C1190.16 1242 1184.57 1244.31 1179.94 1248.94C1175.31 1253.57 1173 1259.16 1173 1265.72L1173 1287.28C1173 1293.84 1175.31 1299.43 1179.94 1304.06C1184.57 1308.69 1190.16 1311 1196.72 1311L1242 1311L1242 1265.72Z" fill="#000000" fill-rule="nonzero" opacity="1" stroke="none"/>
<path d="M1242 1242L1311 1242L1311 1242L1311 1311L1311 1311L1242 1311L1242 1311L1242 1242L1242 1242Z" fill="#000000" fill-rule="nonzero" opacity="1" stroke="none"/>
<path d="M1311 1242L1380 1242L1380 1242L1380 1311L1380 1311L1311 1311L1311 1311L1311 1242L1311 1242Z" fill="#000000" fill-rule="nonzero" opacity="1" stroke="none"/>
<path d="M1518 1265.72L1518 1242L1472.72 1242C1466.16 1242 1460.57 1244.31 1455.94 1248.94C1451.31 1253.57 1449 1259.16 1449 1265.72L1449 1287.28C1449 1293.84 1451.31 1299.43 1455.94 1304.06C1460.57 1308.69 1466.16 1311 1472.72 1311L1518 1311L1518 1265.72Z" fill="#000000" fill-rule="nonzero" opacity="1" stroke="none"/>
<path d="M1587 1242L1518 1242L1518 1311L1563.28 1311C1569.84 1311 1575.43 1308.69 1580.06 1304.06C1584.69 1299.43 1587 1293.84 1587 1287.28L1587 1242Z" fill="#000000" fill-rule="nonzero" opacity="1" stroke="none"/>
<path d="M1725 1242L1794 1242L1794 1242L1794 1311L1794 1311L1725 1311L1725 1311L1725 1242L1725 1242Z" fill="#000000" fill-rule="nonzero" opacity="1" stroke="none"/>
<path d="M2070 1242L2001 1242L2001 1287.28C2001 1293.84 2003.31 1299.43 2007.94 1304.06C2012.57 1308.69 2018.16 1311 2024.72 1311L2070 1311L2070 1242Z" fill="#000000" fill-rule="nonzero" opacity="1" stroke="none"/>
<path d="M2139 1265.72C2139 1259.16 2136.69 1253.57 2132.06 1248.94C2127.43 1244.31 2121.84 1242 2115.28 1242L2070 1242L2070 1311L2139 1311L2139 1265.72Z" fill="#000000" fill-rule="nonzero" opacity="1" stroke="none"/>
<path d="M206.865 1333.1L207 1333.1L207 1311L138 1311L138 1333.1L138.135 1333.1C138.045 1333.82 138 1334.36 138 1334.72L138 1356.28C138 1362.84 140.314 1368.43 144.941 1373.06C149.568 1377.69 155.16 1380 161.719 1380L183.281 1380C189.84 1380 195.433 1377.69 200.059 1373.06C204.686 1368.43 207 1362.84 207 1356.28L207 1334.72C207 1334.36 206.957 1333.82 206.865 1333.1Z" fill="#000000" fill-rule="nonzero" opacity="1" stroke="none"/>
<path d="M414 1311L345 1311L345 1356.28C345 1362.84 347.314 1368.43 351.941 1373.06C356.568 1377.69 362.16 1380 368.719 1380L414 1380L414 1311Z" fill="#000000" fill-rule="nonzero" opacity="1" stroke="none"/>
<path d="M414 1311L483 1311L483 1311L483 1380L483 1380L414 1380L414 1380L414 1311L414 1311Z" fill="#000000" fill-rule="nonzero" opacity="1" stroke="none"/>
<path d="M483 1311L552 1311L552 1311L552 1380L552 1380L483 1380L483 1380L483 1311L483 1311Z" fill="#000000" fill-rule="nonzero" opacity="1" stroke="none"/>
<path d="M690 1334.72L690 1311L644.719 1311C638.16 1311 632.567 1313.31 627.941 1317.94C623.314 1322.57 621 1328.16 621 1334.72L621 1356.28C621 1362.84 623.314 1368.43 627.941 1373.06C632.568 1377.69 638.16 1380 644.719 1380L690 1380L690 1334.72Z" fill="#000000" fill-rule="nonzero" opacity="1" stroke="none"/>
<path d="M690 1311L759 1311L759 1311L759 1380L759 1380L690 1380L690 1380L690 1311L690 1311Z" fill="#000000" fill-rule="nonzero" opacity="1" stroke="none"/>
<path d="M759 1311L828 1311L828 1311L828 1380L828 1380L759 1380L759 1380L759 1311L759 1311Z" fill="#000000" fill-rule="nonzero" opacity="1" stroke="none"/>
<path d="M828 1311L897 1311L897 1311L897 1380L897 1380L828 1380L828 1380L828 1311L828 1311Z" fill="#000000" fill-rule="nonzero" opacity="1" stroke="none"/>
<path d="M897 1311L966 1311L966 1311L966 1380L966 1380L897 1380L897 1380L897 1311L897 1311Z" fill="#000000" fill-rule="nonzero" opacity="1" stroke="none"/>
<path d="M1035 1311L1104 1311L1104 1311L1104 1380L1104 1380L1035 1380L1035 1380L1035 1311L1035 1311Z" fill="#000000" fill-rule="nonzero" opacity="1" stroke="none"/>
<path d="M1311 1311L1380 1311L1380 1311L1380 1380L1380 1380L1311 1380L1311 1380L1311 1311L1311 1311Z" fill="#000000" fill-rule="nonzero" opacity="1" stroke="none"/>
<path d="M1425.28 1311L1380 1311L1380 1380L1425.28 1380C1431.84 1380 1437.43 1377.69 1442.06 1373.06C1446.69 1368.43 1449 1362.84 1449 1356.28L1449 1334.72C1449 1328.16 1446.69 1322.57 1442.06 1317.94C1437.43 1313.31 1431.84 1311 1425.28 1311Z" fill="#000000" fill-rule="nonzero" opacity="1" stroke="none"/>
<path d="M1725 1334.72L1725 1311L1679.72 1311C1673.16 1311 1667.57 1313.31 1662.94 1317.94C1658.31 1322.57 1656 1328.16 1656 1334.72L1656 1356.28C1656 1362.84 1658.31 1368.43 1662.94 1373.06C1667.57 1377.69 1673.16 1380 1679.72 1380L1725 1380L1725 1334.72Z" fill="#000000" fill-rule="nonzero" opacity="1" stroke="none"/>
<path d="M1725 1311L1794 1311L1794 1311L1794 1380L1794 1380L1725 1380L1725 1380L1725 1311L1725 1311Z" fill="#000000" fill-rule="nonzero" opacity="1" stroke="none"/>
<path d="M1794 1311L1863 1311L1863 1311L1863 1380L1863 1380L1794 1380L1794 1380L1794 1311L1794 1311Z" fill="#000000" fill-rule="nonzero" opacity="1" stroke="none"/>
<path d="M1932 1334.72C1932 1328.16 1929.69 1322.57 1925.06 1317.94C1920.43 1313.31 1914.84 1311 1908.28 1311L1863 1311L1863 1380L1932 1380L1932 1334.72Z" fill="#000000" fill-rule="nonzero" opacity="1" stroke="none"/>
<path d="M2070 1311L2139 1311L2139 1311L2139 1380L2139 1380L2070 1380L2070 1380L2070 1311L2070 1311Z" fill="#000000" fill-rule="nonzero" opacity="1" stroke="none"/>
<path d="M345 1425.28C345 1431.84 342.685 1437.43 338.059 1442.06C333.433 1446.69 327.841 1449 321.281 1449L299.719 1449C293.161 1449 287.568 1446.69 282.941 1442.06C278.314 1437.43 276 1431.84 276 1425.28L276 1403.72C276 1397.16 278.314 1391.57 282.941 1386.94C287.569 1382.31 293.161 1380 299.719 1380L321.281 1380C327.842 1380 333.434 1382.31 338.059 1386.94C342.686 1391.57 345 1397.16 345 1403.72L345 1425.28Z" fill="#000000" fill-rule="nonzero" opacity="1" stroke="none"/>
<path d="M483 1380L414 1380L414 1425.28C414 1431.84 416.314 1437.43 420.941 1442.06C425.568 1446.69 431.16 1449 437.719 1449L483 1449L483 1380Z" fill="#000000" fill-rule="nonzero" opacity="1" stroke="none"/>
<path d="M483 1380L552 1380L552 1380L552 1449L552 1449L483 1449L483 1449L483 1380L483 1380Z" fill="#000000" fill-rule="nonzero" opacity="1" stroke="none"/>
<path d="M597.281 1380L552 1380L552 1449L597.281 1449C603.84 1449 609.433 1446.69 614.059 1442.06C618.686 1437.43 621 1431.84 621 1425.28L621 1403.72C621 1397.16 618.686 1391.57 614.059 1386.94C609.433 1382.31 603.84 1380 597.281 1380Z" fill="#000000" fill-rule="nonzero" opacity="1" stroke="none"/>
<path d="M827.865 1402.1L828 1402.1L828 1380L759 1380L759 1402.1L759.135 1402.1C759.045 1402.82 759 1403.36 759 1403.72L759 1425.28C759 1431.84 761.314 1437.43 765.941 1442.06C770.568 1446.69 776.16 1449 782.719 1449L804.281 1449C810.84 1449 816.433 1446.69 821.059 1442.06C825.686 1437.43 828 1431.84 828 1425.28L828 1403.72C828 1403.36 827.957 1402.82 827.865 1402.1Z" fill="#000000" fill-rule="nonzero" opacity="1" stroke="none"/>
<path d="M897 1380L966 1380L966 1380L966 1449L966 1449L897 1449L897 1449L897 1380L897 1380Z" fill="#000000" fill-rule="nonzero" opacity="1" stroke="none"/>
<path d="M966 1380L1035 1380L1035 1380L1035 1449L1035 1449L966 1449L966 1449L966 1380L966 1380Z" fill="#000000" fill-rule="nonzero" opacity="1" stroke="none"/>
<path d="M1035 1380L1104 1380L1104 1380L1104 1449L1104 1449L1035 1449L1035 1449L1035 1380L1035 1380Z" fill="#000000" fill-rule="nonzero" opacity="1" stroke="none"/>
<path d="M1173 1403.72C1173 1397.16 1170.69 1391.57 1166.06 1386.94C1161.43 1382.31 1155.84 1380 1149.28 1380L1104 1380L1104 1449L1173 1449L1173 1403.72Z" fill="#000000" fill-rule="nonzero" opacity="1" stroke="none"/>
<path d="M1379.87 1402.1L1380 1402.1L1380 1380L1311 1380L1311 1402.1L1311.13 1402.1C1311.04 1402.82 1311 1403.36 1311 1403.72L1311 1425.28C1311 1431.84 1313.31 1437.43 1317.94 1442.06C1322.57 1446.69 1328.16 1449 1334.72 1449L1356.28 1449C1362.84 1449 1368.43 1446.69 1373.06 1442.06C1377.69 1437.43 1380 1431.84 1380 1425.28L1380 1403.72C1380 1403.36 1379.96 1402.82 1379.87 1402.1Z" fill="#000000" fill-rule="nonzero" opacity="1" stroke="none"/>
<path d="M1587 1425.28C1587 1431.84 1584.69 1437.43 1580.06 1442.06C1575.43 1446.69 1569.84 1449 1563.28 1449L1541.72 1449C1535.16 1449 1529.57 1446.69 1524.94 1442.06C1520.31 1437.43 1518 1431.84 1518 1425.28L1518 1403.72C1518 1397.16 1520.31 1391.57 1524.94 1386.94C1529.57 1382.31 1535.16 1380 1541.72 1380L1563.28 1380C1569.84 1380 1575.43 1382.31 1580.06 1386.94C1584.69 1391.57 1587 1397.16 1587 1403.72L1587 1425.28Z" fill="#000000" fill-rule="nonzero" opacity="1" stroke="none"/>
<path d="M1725 1380L1794 1380L1794 1380L1794 1449L1794 1449L1725 1449L1725 1449L1725 1380L1725 1380Z" fill="#000000" fill-rule="nonzero" opacity="1" stroke="none"/>
<path d="M1863 1380L1932 1380L1932 1380L1932 1449L1932 1449L1863 1449L1863 1449L1863 1380L1863 1380Z" fill="#000000" fill-rule="nonzero" opacity="1" stroke="none"/>
<path d="M2138.87 1402.1L2139 1402.1L2139 1380L2070 1380L2070 1402.1L2070.13 1402.1C2070.04 1402.82 2070 1403.36 2070 1403.72L2070 1425.28C2070 1431.84 2072.31 1437.43 2076.94 1442.06C2081.57 1446.69 2087.16 1449 2093.72 1449L2115.28 1449C2121.84 1449 2127.43 1446.69 2132.06 1442.06C2136.69 1437.43 2139 1431.84 2139 1425.28L2139 1403.72C2139 1403.36 2138.96 1402.82 2138.87 1402.1Z" fill="#000000" fill-rule="nonzero" opacity="1" stroke="none"/>
<path d="M483 1449L552 1449L552 1449L552 1518L552 1518L483 1518L483 1518L483 1449L483 1449Z" fill="#000000" fill-rule="nonzero" opacity="1" stroke="none"/>
<path d="M690 1494.28C690 1500.84 687.685 1506.43 683.059 1511.06C678.433 1515.69 672.841 1518 666.281 1518L644.719 1518C638.161 1518 632.568 1515.69 627.941 1511.06C623.314 1506.43 621 1500.84 621 1494.28L621 1472.72C621 1466.16 623.314 1460.57 627.941 1455.94C632.569 1451.31 638.161 1449 644.719 1449L666.281 1449C672.842 1449 678.434 1451.31 683.059 1455.94C687.686 1460.57 690 1466.16 690 1472.72L690 1494.28Z" fill="#000000" fill-rule="nonzero" opacity="1" stroke="none"/>
<path d="M897 1449L966 1449L966 1449L966 1518L966 1518L897 1518L897 1518L897 1449L897 1449Z" fill="#000000" fill-rule="nonzero" opacity="1" stroke="none"/>
<path d="M1035 1449L966 1449L966 1518L1011.28 1518C1017.84 1518 1023.43 1515.69 1028.06 1511.06C1032.69 1506.43 1035 1500.84 1035 1494.28L1035 1449Z" fill="#000000" fill-rule="nonzero" opacity="1" stroke="none"/>
<path d="M1173 1449L1104 1449L1104 1494.28C1104 1500.84 1106.31 1506.43 1110.94 1511.06C1115.57 1515.69 1121.16 1518 1127.72 1518L1173 1518L1173 1449Z" fill="#000000" fill-rule="nonzero" opacity="1" stroke="none"/>
<path d="M1218.28 1449L1173 1449L1173 1518L1218.28 1518C1224.84 1518 1230.43 1515.69 1235.06 1511.06C1239.69 1506.43 1242 1500.84 1242 1494.28L1242 1472.72C1242 1466.16 1239.69 1460.57 1235.06 1455.94C1230.43 1451.31 1224.84 1449 1218.28 1449Z" fill="#000000" fill-rule="nonzero" opacity="1" stroke="none"/>
<path d="M1449 1472.72C1449 1466.16 1446.69 1460.57 1442.06 1455.94C1437.43 1451.31 1431.84 1449 1425.28 1449L1403.72 1449C1397.16 1449 1391.57 1451.31 1386.94 1455.94C1382.31 1460.57 1380 1466.16 1380 1472.72L1380 1494.28C1380 1494.64 1380.04 1495.18 1380.13 1495.9L1380 1495.9L1380 1518L1449 1518L1449 1495.9L1448.87 1495.9C1448.96 1495.18 1449 1494.64 1449 1494.28L1449 1472.72Z" fill="#000000" fill-rule="nonzero" opacity="1" stroke="none"/>
<path d="M1725 1449L1794 1449L1794 1449L1794 1518L1794 1518L1725 1518L1725 1518L1725 1449L1725 1449Z" fill="#000000" fill-rule="nonzero" opacity="1" stroke="none"/>
<path d="M1794 1449L1863 1449L1863 1449L1863 1518L1863 1518L1794 1518L1794 1518L1794 1449L1794 1449Z" fill="#000000" fill-rule="nonzero" opacity="1" stroke="none"/>
<path d="M1932 1449L1863 1449L1863 1518L1908.28 1518C1914.84 1518 1920.43 1515.69 1925.06 1511.06C1929.69 1506.43 1932 1500.84 1932 1494.28L1932 1449Z" fill="#000000" fill-rule="nonzero" opacity="1" stroke="none"/>
<path d="M2070 1472.72C2070 1466.16 2067.69 1460.57 2063.06 1455.94C2058.43 1451.31 2052.84 1449 2046.28 1449L2024.72 1449C2018.16 1449 2012.57 1451.31 2007.94 1455.94C2003.31 1460.57 2001 1466.16 2001 1472.72L2001 1494.28C2001 1494.64 2001.04 1495.18 2001.13 1495.9L2001 1495.9L2001 1518L2070 1518L2070 1495.9L2069.87 1495.9C2069.96 1495.18 2070 1494.64 2070 1494.28L2070 1472.72Z" fill="#000000" fill-rule="nonzero" opacity="1" stroke="none"/>
<path d="M207 1541.72L207 1518L161.719 1518C155.16 1518 149.567 1520.31 144.941 1524.94C140.314 1529.57 138 1535.16 138 1541.72L138 1563.28C138 1569.84 140.314 1575.43 144.941 1580.06C149.568 1584.69 155.16 1587 161.719 1587L207 1587L207 1541.72Z" fill="#000000" fill-rule="nonzero" opacity="1" stroke="none"/>
<path d="M207 1518L276 1518L276 1518L276 1587L276 1587L207 1587L207 1587L207 1518L207 1518Z" fill="#000000" fill-rule="nonzero" opacity="1" stroke="none"/>
<path d="M321.281 1518L276 1518L276 1587L321.281 1587C327.84 1587 333.433 1584.69 338.059 1580.06C342.686 1575.43 345 1569.84 345 1563.28L345 1541.72C345 1535.16 342.686 1529.57 338.059 1524.94C333.433 1520.31 327.84 1518 321.281 1518Z" fill="#000000" fill-rule="nonzero" opacity="1" stroke="none"/>
<path d="M552 1518L483 1518L483 1563.28C483 1569.84 485.314 1575.43 489.941 1580.06C494.568 1584.69 500.16 1587 506.719 1587L552 1587L552 1518Z" fill="#000000" fill-rule="nonzero" opacity="1" stroke="none"/>
<path d="M597.281 1518L552 1518L552 1587L597.281 1587C603.84 1587 609.433 1584.69 614.059 1580.06C618.686 1575.43 621 1569.84 621 1563.28L621 1541.72C621 1535.16 618.686 1529.57 614.059 1524.94C609.433 1520.31 603.84 1518 597.281 1518Z" fill="#000000" fill-rule="nonzero" opacity="1" stroke="none"/>
<path d="M897 1541.72L897 1518L851.719 1518C845.16 1518 839.567 1520.31 834.941 1524.94C830.314 1529.57 828 1535.16 828 1541.72L828 1563.28C828 1569.84 830.314 1575.43 834.941 1580.06C839.568 1584.69 845.16 1587 851.719 1587L897 1587L897 1541.72Z" fill="#000000" fill-rule="nonzero" opacity="1" stroke="none"/>
<path d="M966 1518L897 1518L897 1587L942.281 1587C948.84 1587 954.433 1584.69 959.059 1580.06C963.686 1575.43 966 1569.84 966 1563.28L966 1518Z" fill="#000000" fill-rule="nonzero" opacity="1" stroke="none"/>
<path d="M1311 1541.72C1311 1535.16 1308.69 1529.57 1304.06 1524.94C1299.43 1520.31 1293.84 1518 1287.28 1518L1265.72 1518C1259.16 1518 1253.57 1520.31 1248.94 1524.94C1244.31 1529.57 1242 1535.16 1242 1541.72L1242 1563.28C1242 1563.64 1242.04 1564.18 1242.13 1564.9L1242 1564.9L1242 1587L1311 1587L1311 1564.9L1310.87 1564.9C1310.96 1564.18 1311 1563.64 1311 1563.28L1311 1541.72Z" fill="#000000" fill-rule="nonzero" opacity="1" stroke="none"/>
<path d="M1448.87 1540.1L1449 1540.1L1449 1518L1380 1518L1380 1540.1L1380.13 1540.1C1380.04 1540.82 1380 1541.36 1380 1541.72L1380 1563.28C1380 1569.84 1382.31 1575.43 1386.94 1580.06C1391.57 1584.69 1397.16 1587 1403.72 1587L1425.28 1587C1431.84 1587 1437.43 1584.69 1442.06 1580.06C1446.69 1575.43 1449 1569.84 1449 1563.28L1449 1541.72C1449 1541.36 1448.96 1540.82 1448.87 1540.1Z" fill="#000000" fill-rule="nonzero" opacity="1" stroke="none"/>
<path d="M1587 1541.72L1587 1518L1541.72 1518C1535.16 1518 1529.57 1520.31 1524.94 1524.94C1520.31 1529.57 1518 1535.16 1518 1541.72L1518 1587L1587 1587L1587 1541.72Z" fill="#000000" fill-rule="nonzero" opacity="1" stroke="none"/>
<path d="M1587 1518L1656 1518L1656 1518L1656 1587L1656 1587L1587 1587L1587 1587L1587 1518L1587 1518Z" fill="#000000" fill-rule="nonzero" opacity="1" stroke="none"/>
<path d="M1656 1518L1725 1518L1725 1518L1725 1587L1725 1587L1656 1587L1656 1587L1656 1518L1656 1518Z" fill="#000000" fill-rule="nonzero" opacity="1" stroke="none"/>
<path d="M1725 1518L1794 1518L1794 1518L1794 1587L1794 1587L1725 1587L1725 1587L1725 1518L1725 1518Z" fill="#000000" fill-rule="nonzero" opacity="1" stroke="none"/>
<path d="M1794 1518L1863 1518L1863 1518L1863 1587L1863 1587L1794 1587L1794 1587L1794 1518L1794 1518Z" fill="#000000" fill-rule="nonzero" opacity="1" stroke="none"/>
<path d="M2069.87 1540.1L2070 1540.1L2070 1518L2001 1518L2001 1540.1L2001.13 1540.1C2001.04 1540.82 2001 1541.36 2001 1541.72L2001 1563.28C2001 1569.84 2003.31 1575.43 2007.94 1580.06C2012.57 1584.69 2018.16 1587 2024.72 1587L2046.28 1587C2052.84 1587 2058.43 1584.69 2063.06 1580.06C2067.69 1575.43 2070 1569.84 2070 1563.28L2070 1541.72C2070 1541.36 2069.96 1540.82 2069.87 1540.1Z" fill="#000000" fill-rule="nonzero" opacity="1" stroke="none"/>
<path d="M759 1610.72L759 1587L713.719 1587C707.16 1587 701.567 1589.31 696.941 1593.94C692.314 1598.57 690 1604.16 690 1610.72L690 1656L759 1656L759 1610.72Z" fill="#000000" fill-rule="nonzero" opacity="1" stroke="none"/>
<path d="M828 1610.72C828 1604.16 825.686 1598.57 821.059 1593.94C816.433 1589.31 810.84 1587 804.281 1587L759 1587L759 1656L828 1656L828 1610.72Z" fill="#000000" fill-rule="nonzero" opacity="1" stroke="none"/>
<path d="M1104 1610.72L1104 1587L1058.72 1587C1052.16 1587 1046.57 1589.31 1041.94 1593.94C1037.31 1598.57 1035 1604.16 1035 1610.72L1035 1632.28C1035 1638.84 1037.31 1644.43 1041.94 1649.06C1046.57 1653.69 1052.16 1656 1058.72 1656L1104 1656L1104 1610.72Z" fill="#000000" fill-rule="nonzero" opacity="1" stroke="none"/>
<path d="M1104 1587L1173 1587L1173 1587L1173 1656L1173 1656L1104 1656L1104 1656L1104 1587L1104 1587Z" fill="#000000" fill-rule="nonzero" opacity="1" stroke="none"/>
<path d="M1173 1587L1242 1587L1242 1587L1242 1656L1242 1656L1173 1656L1173 1656L1173 1587L1173 1587Z" fill="#000000" fill-rule="nonzero" opacity="1" stroke="none"/>
<path d="M1242 1587L1311 1587L1311 1587L1311 1656L1311 1656L1242 1656L1242 1656L1242 1587L1242 1587Z" fill="#000000" fill-rule="nonzero" opacity="1" stroke="none"/>
<path d="M1380 1610.72C1380 1604.16 1377.69 1598.57 1373.06 1593.94C1368.43 1589.31 1362.84 1587 1356.28 1587L1311 1587L1311 1656L1380 1656L1380 1610.72Z" fill="#000000" fill-rule="nonzero" opacity="1" stroke="none"/>
<path d="M1518 1587L1587 1587L1587 1587L1587 1656L1587 1656L1518 1656L1518 1656L1518 1587L1518 1587Z" fill="#000000" fill-rule="nonzero" opacity="1" stroke="none"/>
<path d="M1794 1587L1863 1587L1863 1587L1863 1656L1863 1656L1794 1656L1794 1656L1794 1587L1794 1587Z" fill="#000000" fill-rule="nonzero" opacity="1" stroke="none"/>
<path d="M2001 1632.28C2001 1638.84 1998.69 1644.43 1994.06 1649.06C1989.43 1653.69 1983.84 1656 1977.28 1656L1955.72 1656C1949.16 1656 1943.57 1653.69 1938.94 1649.06C1934.31 1644.43 1932 1638.84 1932 1632.28L1932 1610.72C1932 1604.16 1934.31 1598.57 1938.94 1593.94C1943.57 1589.31 1949.16 1587 1955.72 1587L1977.28 1587C1983.84 1587 1989.43 1589.31 1994.06 1593.94C1998.69 1598.57 2001 1604.16 2001 1610.72L2001 1632.28Z" fill="#000000" fill-rule="nonzero" opacity="1" stroke="none"/>
<path d="M2139 1610.72C2139 1604.16 2136.69 1598.57 2132.06 1593.94C2127.43 1589.31 2121.84 1587 2115.28 1587L2093.72 1587C2087.16 1587 2081.57 1589.31 2076.94 1593.94C2072.31 1598.57 2070 1604.16 2070 1610.72L2070 1632.28C2070 1632.64 2070.04 1633.18 2070.13 1633.9L2070 1633.9L2070 1656L2139 1656L2139 1633.9L2138.87 1633.9C2138.96 1633.18 2139 1632.64 2139 1632.28L2139 1610.72Z" fill="#000000" fill-rule="nonzero" opacity="1" stroke="none"/>
<path d="M690 1656L759 1656L759 1656L759 1725L759 1725L690 1725L690 1725L690 1656L690 1656Z" fill="#000000" fill-rule="nonzero" opacity="1" stroke="none"/>
<path d="M759 1656L828 1656L828 1656L828 1725L828 1725L759 1725L759 1725L759 1656L759 1656Z" fill="#000000" fill-rule="nonzero" opacity="1" stroke="none"/>
<path d="M966 1701.28C966 1707.84 963.685 1713.43 959.059 1718.06C954.433 1722.69 948.841 1725 942.281 1725L920.719 1725C914.161 1725 908.568 1722.69 903.941 1718.06C899.314 1713.43 897 1707.84 897 1701.28L897 1679.72C897 1673.16 899.314 1667.57 903.941 1662.94C908.569 1658.31 914.161 1656 920.719 1656L942.281 1656C948.842 1656 954.434 1658.31 959.059 1662.94C963.686 1667.57 966 1673.16 966 1679.72L966 1701.28Z" fill="#000000" fill-rule="nonzero" opacity="1" stroke="none"/>
<path d="M1172.87 1678.1L1173 1678.1L1173 1656L1104 1656L1104 1678.1L1104.13 1678.1C1104.04 1678.82 1104 1679.36 1104 1679.72L1104 1701.28C1104 1707.84 1106.31 1713.43 1110.94 1718.06C1115.57 1722.69 1121.16 1725 1127.72 1725L1149.28 1725C1155.84 1725 1161.43 1722.69 1166.06 1718.06C1170.69 1713.43 1173 1707.84 1173 1701.28L1173 1679.72C1173 1679.36 1172.96 1678.82 1172.87 1678.1Z" fill="#000000" fill-rule="nonzero" opacity="1" stroke="none"/>
<path d="M1311 1656L1242 1656L1242 1701.28C1242 1707.84 1244.31 1713.43 1248.94 1718.06C1253.57 1722.69 1259.16 1725 1265.72 1725L1311 1725L1311 1656Z" fill="#000000" fill-rule="nonzero" opacity="1" stroke="none"/>
<path d="M1311 1656L1380 1656L1380 1656L1380 1725L1380 1725L1311 1725L1311 1725L1311 1656L1311 1656Z" fill="#000000" fill-rule="nonzero" opacity="1" stroke="none"/>
<path d="M1380 1656L1449 1656L1449 1656L1449 1725L1449 1725L1380 1725L1380 1725L1380 1656L1380 1656Z" fill="#000000" fill-rule="nonzero" opacity="1" stroke="none"/>
<path d="M1449 1656L1518 1656L1518 1656L1518 1725L1518 1725L1449 1725L1449 1725L1449 1656L1449 1656Z" fill="#000000" fill-rule="nonzero" opacity="1" stroke="none"/>
<path d="M1518 1656L1587 1656L1587 1656L1587 1725L1587 1725L1518 1725L1518 1725L1518 1656L1518 1656Z" fill="#000000" fill-rule="nonzero" opacity="1" stroke="none"/>
<path d="M1725 1701.28C1725 1707.84 1722.69 1713.43 1718.06 1718.06C1713.43 1722.69 1707.84 1725 1701.28 1725L1679.72 1725C1673.16 1725 1667.57 1722.69 1662.94 1718.06C1658.31 1713.43 1656 1707.84 1656 1701.28L1656 1679.72C1656 1673.16 1658.31 1667.57 1662.94 1662.94C1667.57 1658.31 1673.16 1656 1679.72 1656L1701.28 1656C1707.84 1656 1713.43 1658.31 1718.06 1662.94C1722.69 1667.57 1725 1673.16 1725 1679.72L1725 1701.28Z" fill="#000000" fill-rule="nonzero" opacity="1" stroke="none"/>
<path d="M1794 1656L1863 1656L1863 1656L1863 1725L1863 1725L1794 1725L1794 1725L1794 1656L1794 1656Z" fill="#000000" fill-rule="nonzero" opacity="1" stroke="none"/>
<path d="M2070 1679.72L2070 1656L2024.72 1656C2018.16 1656 2012.57 1658.31 2007.94 1662.94C2003.31 1667.57 2001 1673.16 2001 1679.72L2001 1725L2070 1725L2070 1679.72Z" fill="#000000" fill-rule="nonzero" opacity="1" stroke="none"/>
<path d="M2139 1656L2070 1656L2070 1725L2115.28 1725C2121.84 1725 2127.43 1722.69 2132.06 1718.06C2136.69 1713.43 2139 1707.84 2139 1701.28L2139 1656Z" fill="#000000" fill-rule="nonzero" opacity="1" stroke="none"/>
<path d="M690 1725L759 1725L759 1725L759 1794L759 1794L690 1794L690 1794L690 1725L690 1725Z" fill="#000000" fill-rule="nonzero" opacity="1" stroke="none"/>
<path d="M759 1725L828 1725L828 1725L828 1794L828 1794L759 1794L759 1794L759 1725L759 1725Z" fill="#000000" fill-rule="nonzero" opacity="1" stroke="none"/>
<path d="M1035 1748.72L1035 1725L989.719 1725C983.16 1725 977.567 1727.31 972.941 1731.94C968.314 1736.57 966 1742.16 966 1748.72L966 1794L1035 1794L1035 1748.72Z" fill="#000000" fill-rule="nonzero" opacity="1" stroke="none"/>
<path d="M1080.28 1725L1035 1725L1035 1794L1080.28 1794C1086.84 1794 1092.43 1791.69 1097.06 1787.06C1101.69 1782.43 1104 1776.84 1104 1770.28L1104 1748.72C1104 1742.16 1101.69 1736.57 1097.06 1731.94C1092.43 1727.31 1086.84 1725 1080.28 1725Z" fill="#000000" fill-rule="nonzero" opacity="1" stroke="none"/>
<path d="M1242 1748.72C1242 1742.16 1239.69 1736.57 1235.06 1731.94C1230.43 1727.31 1224.84 1725 1218.28 1725L1196.72 1725C1190.16 1725 1184.57 1727.31 1179.94 1731.94C1175.31 1736.57 1173 1742.16 1173 1748.72L1173 1770.28C1173 1770.64 1173.04 1771.18 1173.13 1771.9L1173 1771.9L1173 1794L1242 1794L1242 1771.9L1241.87 1771.9C1241.96 1771.18 1242 1770.64 1242 1770.28L1242 1748.72Z" fill="#000000" fill-rule="nonzero" opacity="1" stroke="none"/>
<path d="M1379.87 1747.1L1380 1747.1L1380 1725L1311 1725L1311 1747.1L1311.13 1747.1C1311.04 1747.82 1311 1748.36 1311 1748.72L1311 1770.28C1311 1776.84 1313.31 1782.43 1317.94 1787.06C1322.57 1791.69 1328.16 1794 1334.72 1794L1356.28 1794C1362.84 1794 1368.43 1791.69 1373.06 1787.06C1377.69 1782.43 1380 1776.84 1380 1770.28L1380 1748.72C1380 1748.36 1379.96 1747.82 1379.87 1747.1Z" fill="#000000" fill-rule="nonzero" opacity="1" stroke="none"/>
<path d="M1518 1725L1587 1725L1587 1725L1587 1794L1587 1794L1518 1794L1518 1794L1518 1725L1518 1725Z" fill="#000000" fill-rule="nonzero" opacity="1" stroke="none"/>
<path d="M1794 1725L1863 1725L1863 1725L1863 1794L1863 1794L1794 1794L1794 1794L1794 1725L1794 1725Z" fill="#000000" fill-rule="nonzero" opacity="1" stroke="none"/>
<path d="M1908.28 1725L1863 1725L1863 1794L1908.28 1794C1914.84 1794 1920.43 1791.69 1925.06 1787.06C1929.69 1782.43 1932 1776.84 1932 1770.28L1932 1748.72C1932 1742.16 1929.69 1736.57 1925.06 1731.94C1920.43 1727.31 1914.84 1725 1908.28 1725Z" fill="#000000" fill-rule="nonzero" opacity="1" stroke="none"/>
<path d="M2069.87 1747.1L2070 1747.1L2070 1725L2001 1725L2001 1747.1L2001.13 1747.1C2001.04 1747.82 2001 1748.36 2001 1748.72L2001 1770.28C2001 1776.84 2003.31 1782.43 2007.94 1787.06C2012.57 1791.69 2018.16 1794 2024.72 1794L2046.28 1794C2052.84 1794 2058.43 1791.69 2063.06 1787.06C2067.69 1782.43 2070 1776.84 2070 1770.28L2070 1748.72C2070 1748.36 2069.96 1747.82 2069.87 1747.1Z" fill="#000000" fill-rule="nonzero" opacity="1" stroke="none"/>
<path d="M759 1794L690 1794L690 1839.28C690 1845.84 692.314 1851.43 696.941 1856.06C701.568 1860.69 707.16 1863 713.719 1863L759 1863L759 1794Z" fill="#000000" fill-rule="nonzero" opacity="1" stroke="none"/>
<path d="M828 1794L759 1794L759 1863L804.281 1863C810.84 1863 816.433 1860.69 821.059 1856.06C825.686 1851.43 828 1845.84 828 1839.28L828 1794Z" fill="#000000" fill-rule="nonzero" opacity="1" stroke="none"/>
<path d="M966 1817.72L966 1794L920.719 1794C914.16 1794 908.567 1796.31 903.941 1800.94C899.314 1805.57 897 1811.16 897 1817.72L897 1839.28C897 1845.84 899.314 1851.43 903.941 1856.06C908.568 1860.69 914.16 1863 920.719 1863L966 1863L966 1817.72Z" fill="#000000" fill-rule="nonzero" opacity="1" stroke="none"/>
<path d="M1035 1794L966 1794L966 1863L1011.28 1863C1017.84 1863 1023.43 1860.69 1028.06 1856.06C1032.69 1851.43 1035 1845.84 1035 1839.28L1035 1794Z" fill="#000000" fill-rule="nonzero" opacity="1" stroke="none"/>
<path d="M1242 1794L1173 1794L1173 1839.28C1173 1845.84 1175.31 1851.43 1179.94 1856.06C1184.57 1860.69 1190.16 1863 1196.72 1863L1242 1863L1242 1794Z" fill="#000000" fill-rule="nonzero" opacity="1" stroke="none"/>
<path d="M1311 1817.72C1311 1811.16 1308.69 1805.57 1304.06 1800.94C1299.43 1796.31 1293.84 1794 1287.28 1794L1242 1794L1242 1863L1311 1863L1311 1817.72Z" fill="#000000" fill-rule="nonzero" opacity="1" stroke="none"/>
<path d="M1518 1817.72L1518 1794L1472.72 1794C1466.16 1794 1460.57 1796.31 1455.94 1800.94C1451.31 1805.57 1449 1811.16 1449 1817.72L1449 1839.28C1449 1845.84 1451.31 1851.43 1455.94 1856.06C1460.57 1860.69 1466.16 1863 1472.72 1863L1518 1863L1518 1817.72Z" fill="#000000" fill-rule="nonzero" opacity="1" stroke="none"/>
<path d="M1518 1794L1587 1794L1587 1794L1587 1863L1587 1863L1518 1863L1518 1863L1518 1794L1518 1794Z" fill="#000000" fill-rule="nonzero" opacity="1" stroke="none"/>
<path d="M1587 1794L1656 1794L1656 1794L1656 1863L1656 1863L1587 1863L1587 1863L1587 1794L1587 1794Z" fill="#000000" fill-rule="nonzero" opacity="1" stroke="none"/>
<path d="M1656 1794L1725 1794L1725 1794L1725 1863L1725 1863L1656 1863L1656 1863L1656 1794L1656 1794Z" fill="#000000" fill-rule="nonzero" opacity="1" stroke="none"/>
<path d="M1725 1794L1794 1794L1794 1794L1794 1863L1794 1863L1725 1863L1725 1863L1725 1794L1725 1794Z" fill="#000000" fill-rule="nonzero" opacity="1" stroke="none"/>
<path d="M1863 1794L1794 1794L1794 1863L1839.28 1863C1845.84 1863 1851.43 1860.69 1856.06 1856.06C1860.69 1851.43 1863 1845.84 1863 1839.28L1863 1794Z" fill="#000000" fill-rule="nonzero" opacity="1" stroke="none"/>
<path d="M897 1886.72C897 1880.16 894.686 1874.57 890.059 1869.94C885.433 1865.31 879.84 1863 873.281 1863L851.719 1863C845.16 1863 839.567 1865.31 834.941 1869.94C830.314 1874.57 828 1880.16 828 1886.72L828 1908.28C828 1908.64 828.045 1909.18 828.135 1909.9L828 1909.9L828 1932L897 1932L897 1909.9L896.865 1909.9C896.957 1909.18 897 1908.64 897 1908.28L897 1886.72Z" fill="#000000" fill-rule="nonzero" opacity="1" stroke="none"/>
<path d="M1242 1863L1311 1863L1311 1863L1311 1932L1311 1932L1242 1932L1242 1932L1242 1863L1242 1863Z" fill="#000000" fill-rule="nonzero" opacity="1" stroke="none"/>
<path d="M1311 1863L1380 1863L1380 1863L1380 1932L1380 1932L1311 1932L1311 1932L1311 1863L1311 1863Z" fill="#000000" fill-rule="nonzero" opacity="1" stroke="none"/>
<path d="M1425.28 1863L1380 1863L1380 1932L1425.28 1932C1431.84 1932 1437.43 1929.69 1442.06 1925.06C1446.69 1920.43 1449 1914.84 1449 1908.28L1449 1886.72C1449 1880.16 1446.69 1874.57 1442.06 1869.94C1437.43 1865.31 1431.84 1863 1425.28 1863Z" fill="#000000" fill-rule="nonzero" opacity="1" stroke="none"/>
<path d="M1793.87 1885.1L1794 1885.1L1794 1863L1725 1863L1725 1885.1L1725.13 1885.1C1725.04 1885.82 1725 1886.36 1725 1886.72L1725 1908.28C1725 1914.84 1727.31 1920.43 1731.94 1925.06C1736.57 1929.69 1742.16 1932 1748.72 1932L1770.28 1932C1776.84 1932 1782.43 1929.69 1787.06 1925.06C1791.69 1920.43 1794 1914.84 1794 1908.28L1794 1886.72C1794 1886.36 1793.96 1885.82 1793.87 1885.1Z" fill="#000000" fill-rule="nonzero" opacity="1" stroke="none"/>
<path d="M2001 1886.72L2001 1863L1955.72 1863C1949.16 1863 1943.57 1865.31 1938.94 1869.94C1934.31 1874.57 1932 1880.16 1932 1886.72L1932 1908.28C1932 1914.84 1934.31 1920.43 1938.94 1925.06C1943.57 1929.69 1949.16 1932 1955.72 1932L2001 1932L2001 1886.72Z" fill="#000000" fill-rule="nonzero" opacity="1" stroke="none"/>
<path d="M2070 1886.72C2070 1880.16 2067.69 1874.57 2063.06 1869.94C2058.43 1865.31 2052.84 1863 2046.28 1863L2001 1863L2001 1932L2070 1932L2070 1886.72Z" fill="#000000" fill-rule="nonzero" opacity="1" stroke="none"/>
<path d="M828 1932L897 1932L897 1932L897 2001L897 2001L828 2001L828 2001L828 1932L828 1932Z" fill="#000000" fill-rule="nonzero" opacity="1" stroke="none"/>
<path d="M897 1932L966 1932L966 1932L966 2001L966 2001L897 2001L897 2001L897 1932L897 1932Z" fill="#000000" fill-rule="nonzero" opacity="1" stroke="none"/>
<path d="M1035 1955.72C1035 1949.16 1032.69 1943.57 1028.06 1938.94C1023.43 1934.31 1017.84 1932 1011.28 1932L966 1932L966 2001L1035 2001L1035 1955.72Z" fill="#000000" fill-rule="nonzero" opacity="1" stroke="none"/>
<path d="M1173 1955.72L1173 1932L1127.72 1932C1121.16 1932 1115.57 1934.31 1110.94 1938.94C1106.31 1943.57 1104 1949.16 1104 1955.72L1104 1977.28C1104 1983.84 1106.31 1989.43 1110.94 1994.06C1115.57 1998.69 1121.16 2001 1127.72 2001L1173 2001L1173 1955.72Z" fill="#000000" fill-rule="nonzero" opacity="1" stroke="none"/>
<path d="M1173 1932L1242 1932L1242 1932L1242 2001L1242 2001L1173 2001L1173 2001L1173 1932L1173 1932Z" fill="#000000" fill-rule="nonzero" opacity="1" stroke="none"/>
<path d="M1242 1932L1311 1932L1311 1932L1311 2001L1311 2001L1242 2001L1242 2001L1242 1932L1242 1932Z" fill="#000000" fill-rule="nonzero" opacity="1" stroke="none"/>
<path d="M1380 1932L1311 1932L1311 2001L1356.28 2001C1362.84 2001 1368.43 1998.69 1373.06 1994.06C1377.69 1989.43 1380 1983.84 1380 1977.28L1380 1932Z" fill="#000000" fill-rule="nonzero" opacity="1" stroke="none"/>
<path d="M1518 1955.72L1518 1932L1472.72 1932C1466.16 1932 1460.57 1934.31 1455.94 1938.94C1451.31 1943.57 1449 1949.16 1449 1955.72L1449 1977.28C1449 1983.84 1451.31 1989.43 1455.94 1994.06C1460.57 1998.69 1466.16 2001 1472.72 2001L1518 2001L1518 1955.72Z" fill="#000000" fill-rule="nonzero" opacity="1" stroke="none"/>
<path d="M1518 1932L1587 1932L1587 1932L1587 2001L1587 2001L1518 2001L1518 2001L1518 1932L1518 1932Z" fill="#000000" fill-rule="nonzero" opacity="1" stroke="none"/>
<path d="M1632.28 1932L1587 1932L1587 2001L1632.28 2001C1638.84 2001 1644.43 1998.69 1649.06 1994.06C1653.69 1989.43 1656 1983.84 1656 1977.28L1656 1955.72C1656 1949.16 1653.69 1943.57 1649.06 1938.94C1644.43 1934.31 1638.84 1932 1632.28 1932Z" fill="#000000" fill-rule="nonzero" opacity="1" stroke="none"/>
<path d="M2001 1932L2070 1932L2070 1932L2070 2001L2070 2001L2001 2001L2001 2001L2001 1932L2001 1932Z" fill="#000000" fill-rule="nonzero" opacity="1" stroke="none"/>
<path d="M2139 1955.72C2139 1949.16 2136.69 1943.57 2132.06 1938.94C2127.43 1934.31 2121.84 1932 2115.28 1932L2070 1932L2070 2001L2139 2001L2139 1955.72Z" fill="#000000" fill-rule="nonzero" opacity="1" stroke="none"/>
<path d="M828 2001L897 2001L897 2001L897 2070L897 2070L828 2070L828 2070L828 2001L828 2001Z" fill="#000000" fill-rule="nonzero" opacity="1" stroke="none"/>
<path d="M966 2001L1035 2001L1035 2001L1035 2070L1035 2070L966 2070L966 2070L966 2001L966 2001Z" fill="#000000" fill-rule="nonzero" opacity="1" stroke="none"/>
<path d="M1104 2024.72C1104 2018.16 1101.69 2012.57 1097.06 2007.94C1092.43 2003.31 1086.84 2001 1080.28 2001L1035 2001L1035 2070L1104 2070L1104 2024.72Z" fill="#000000" fill-rule="nonzero" opacity="1" stroke="none"/>
<path d="M1241.87 2023.1L1242 2023.1L1242 2001L1173 2001L1173 2023.1L1173.13 2023.1C1173.04 2023.82 1173 2024.36 1173 2024.72L1173 2046.28C1173 2052.84 1175.31 2058.43 1179.94 2063.06C1184.57 2067.69 1190.16 2070 1196.72 2070L1218.28 2070C1224.84 2070 1230.43 2067.69 1235.06 2063.06C1239.69 2058.43 1242 2052.84 1242 2046.28L1242 2024.72C1242 2024.36 1241.96 2023.82 1241.87 2023.1Z" fill="#000000" fill-rule="nonzero" opacity="1" stroke="none"/>
<path d="M1449 2024.72C1449 2018.16 1446.69 2012.57 1442.06 2007.94C1437.43 2003.31 1431.84 2001 1425.28 2001L1403.72 2001C1397.16 2001 1391.57 2003.31 1386.94 2007.94C1382.31 2012.57 1380 2018.16 1380 2024.72L1380 2046.28C1380 2046.64 1380.04 2047.18 1380.13 2047.9L1380 2047.9L1380 2070L1449 2070L1449 2047.9L1448.87 2047.9C1448.96 2047.18 1449 2046.64 1449 2046.28L1449 2024.72Z" fill="#000000" fill-rule="nonzero" opacity="1" stroke="none"/>
<path d="M1518 2001L1587 2001L1587 2001L1587 2070L1587 2070L1518 2070L1518 2070L1518 2001L1518 2001Z" fill="#000000" fill-rule="nonzero" opacity="1" stroke="none"/>
<path d="M1794 2046.28C1794 2052.84 1791.69 2058.43 1787.06 2063.06C1782.43 2067.69 1776.84 2070 1770.28 2070L1748.72 2070C1742.16 2070 1736.57 2067.69 1731.94 2063.06C1727.31 2058.43 1725 2052.84 1725 2046.28L1725 2024.72C1725 2018.16 1727.31 2012.57 1731.94 2007.94C1736.57 2003.31 1742.16 2001 1748.72 2001L1770.28 2001C1776.84 2001 1782.43 2003.31 1787.06 2007.94C1791.69 2012.57 1794 2018.16 1794 2024.72L1794 2046.28Z" fill="#000000" fill-rule="nonzero" opacity="1" stroke="none"/>
<path d="M1932 2024.72C1932 2018.16 1929.69 2012.57 1925.06 2007.94C1920.43 2003.31 1914.84 2001 1908.28 2001L1886.72 2001C1880.16 2001 1874.57 2003.31 1869.94 2007.94C1865.31 2012.57 1863 2018.16 1863 2024.72L1863 2046.28C1863 2046.64 1863.04 2047.18 1863.13 2047.9L1863 2047.9L1863 2070L1932 2070L1932 2047.9L1931.87 2047.9C1931.96 2047.18 1932 2046.64 1932 2046.28L1932 2024.72Z" fill="#000000" fill-rule="nonzero" opacity="1" stroke="none"/>
<path d="M2001 2001L2070 2001L2070 2001L2070 2070L2070 2070L2001 2070L2001 2070L2001 2001L2001 2001Z" fill="#000000" fill-rule="nonzero" opacity="1" stroke="none"/>
<path d="M2139 2001L2070 2001L2070 2070L2115.28 2070C2121.84 2070 2127.43 2067.69 2132.06 2063.06C2136.69 2058.43 2139 2052.84 2139 2046.28L2139 2001Z" fill="#000000" fill-rule="nonzero" opacity="1" stroke="none"/>
<path d="M896.865 2092.1L897 2092.1L897 2070L828 2070L828 2092.1L828.135 2092.1C828.045 2092.82 828 2093.36 828 2093.72L828 2115.28C828 2121.84 830.314 2127.43 834.941 2132.06C839.568 2136.69 845.16 2139 851.719 2139L873.281 2139C879.84 2139 885.433 2136.69 890.059 2132.06C894.686 2127.43 897 2121.84 897 2115.28L897 2093.72C897 2093.36 896.957 2092.82 896.865 2092.1Z" fill="#000000" fill-rule="nonzero" opacity="1" stroke="none"/>
<path d="M1035 2070L966 2070L966 2115.28C966 2121.84 968.314 2127.43 972.941 2132.06C977.568 2136.69 983.16 2139 989.719 2139L1035 2139L1035 2070Z" fill="#000000" fill-rule="nonzero" opacity="1" stroke="none"/>
<path d="M1035 2070L1104 2070L1104 2070L1104 2139L1104 2139L1035 2139L1035 2139L1035 2070L1035 2070Z" fill="#000000" fill-rule="nonzero" opacity="1" stroke="none"/>
<path d="M1149.28 2070L1104 2070L1104 2139L1149.28 2139C1155.84 2139 1161.43 2136.69 1166.06 2132.06C1170.69 2127.43 1173 2121.84 1173 2115.28L1173 2093.72C1173 2087.16 1170.69 2081.57 1166.06 2076.94C1161.43 2072.31 1155.84 2070 1149.28 2070Z" fill="#000000" fill-rule="nonzero" opacity="1" stroke="none"/>
<path d="M1448.87 2092.1L1449 2092.1L1449 2070L1380 2070L1380 2092.1L1380.13 2092.1C1380.04 2092.82 1380 2093.36 1380 2093.72L1380 2115.28C1380 2121.84 1382.31 2127.43 1386.94 2132.06C1391.57 2136.69 1397.16 2139 1403.72 2139L1425.28 2139C1431.84 2139 1437.43 2136.69 1442.06 2132.06C1446.69 2127.43 1449 2121.84 1449 2115.28L1449 2093.72C1449 2093.36 1448.96 2092.82 1448.87 2092.1Z" fill="#000000" fill-rule="nonzero" opacity="1" stroke="none"/>
<path d="M1586.87 2092.1L1587 2092.1L1587 2070L1518 2070L1518 2092.1L1518.13 2092.1C1518.04 2092.82 1518 2093.36 1518 2093.72L1518 2115.28C1518 2121.84 1520.31 2127.43 1524.94 2132.06C1529.57 2136.69 1535.16 2139 1541.72 2139L1563.28 2139C1569.84 2139 1575.43 2136.69 1580.06 2132.06C1584.69 2127.43 1587 2121.84 1587 2115.28L1587 2093.72C1587 2093.36 1586.96 2092.82 1586.87 2092.1Z" fill="#000000" fill-rule="nonzero" opacity="1" stroke="none"/>
<path d="M1725 2115.28C1725 2121.84 1722.69 2127.43 1718.06 2132.06C1713.43 2136.69 1707.84 2139 1701.28 2139L1679.72 2139C1673.16 2139 1667.57 2136.69 1662.94 2132.06C1658.31 2127.43 1656 2121.84 1656 2115.28L1656 2093.72C1656 2087.16 1658.31 2081.57 1662.94 2076.94C1667.57 2072.31 1673.16 2070 1679.72 2070L1701.28 2070C1707.84 2070 1713.43 2072.31 1718.06 2076.94C1722.69 2081.57 1725 2087.16 1725 2093.72L1725 2115.28Z" fill="#000000" fill-rule="nonzero" opacity="1" stroke="none"/>
<path d="M1863 2093.72L1863 2070L1817.72 2070C1811.16 2070 1805.57 2072.31 1800.94 2076.94C1796.31 2081.57 1794 2087.16 1794 2093.72L1794 2115.28C1794 2121.84 1796.31 2127.43 1800.94 2132.06C1805.57 2136.69 1811.16 2139 1817.72 2139L1863 2139L1863 2093.72Z" fill="#000000" fill-rule="nonzero" opacity="1" stroke="none"/>
<path d="M1932 2070L1863 2070L1863 2139L1908.28 2139C1914.84 2139 1920.43 2136.69 1925.06 2132.06C1929.69 2127.43 1932 2121.84 1932 2115.28L1932 2070Z" fill="#000000" fill-rule="nonzero" opacity="1" stroke="none"/>
<path d="M2069.87 2092.1L2070 2092.1L2070 2070L2001 2070L2001 2092.1L2001.13 2092.1C2001.04 2092.82 2001 2093.36 2001 2093.72L2001 2115.28C2001 2121.84 2003.31 2127.43 2007.94 2132.06C2012.57 2136.69 2018.16 2139 2024.72 2139L2046.28 2139C2052.84 2139 2058.43 2136.69 2063.06 2132.06C2067.69 2127.43 2070 2121.84 2070 2115.28L2070 2093.72C2070 2093.36 2069.96 2092.82 2069.87 2092.1Z" fill="#000000" fill-rule="nonzero" opacity="1" stroke="none"/>
<g opacity="1">
<path d="M456.099 138.039L302.901 138.039L302.901 138.039C228.239 138.039 164.985 187.367 144.762 254.789C142.671 261.764 141.038 268.932 139.903 276.259C138.652 284.344 138 292.623 138 301.051L138 457.886C138 547.816 211.996 620.947 302.901 620.947L379.5 620.961L456.099 620.942C547 620.942 621 547.811 621 457.881L621 301.051C621 211.165 547.004 138.039 456.099 138.039ZM548.55 457.886C548.55 507.848 507.08 548.497 456.08 548.497L379.5 548.511L302.92 548.492C251.92 548.492 210.45 507.843 210.45 457.886L210.45 301.051C210.45 285.445 214.498 270.753 221.622 257.914C228.48 245.564 238.184 234.943 249.868 226.901C264.889 216.56 283.18 210.489 302.896 210.489L456.099 210.489C507.08 210.489 548.55 251.114 548.55 301.051L548.55 457.886Z" fill="#000000" fill-rule="nonzero" opacity="1" stroke="none"/>
</g>
<g opacity="1">
<path d="M1974.1 138.039L1820.9 138.039L1820.9 138.039C1746.24 138.039 1682.99 187.367 1662.76 254.789C1660.67 261.764 1659.04 268.932 1657.9 276.259C1656.65 284.344 1656 292.623 1656 301.051L1656 457.886C1656 547.816 1730 620.947 1820.9 620.947L1897.5 620.961L1974.1 620.942C2065 620.942 2139 547.811 2139 457.881L2139 301.051C2139 211.165 2065 138.039 1974.1 138.039ZM2066.55 457.886C2066.55 507.848 2025.08 548.497 1974.08 548.497L1897.5 548.511L1820.92 548.492C1769.92 548.492 1728.45 507.843 1728.45 457.886L1728.45 301.051C1728.45 285.445 1732.5 270.753 1739.62 257.914C1746.48 245.564 1756.18 234.943 1767.87 226.901C1782.89 216.56 1801.18 210.489 1820.9 210.489L1974.1 210.489C2025.08 210.489 2066.55 251.114 2066.55 301.051L2066.55 457.886Z" fill="#000000" fill-rule="nonzero" opacity="1" stroke="none"/>
</g>
<g opacity="1">
<path d="M456.099 1656.04L302.901 1656.04L302.901 1656.04C228.239 1656.04 164.985 1705.37 144.762 1772.79C142.671 1779.76 141.038 1786.93 139.903 1794.26C138.652 1802.34 138 1810.62 138 1819.05L138 1975.89C138 2065.82 211.996 2138.95 302.901 2138.95L379.5 2138.96L456.099 2138.94C547 2138.94 621 2065.81 621 1975.88L621 1819.05C621 1729.16 547.004 1656.04 456.099 1656.04ZM548.55 1975.89C548.55 2025.85 507.08 2066.5 456.08 2066.5L379.5 2066.51L302.92 2066.49C251.92 2066.49 210.45 2025.84 210.45 1975.89L210.45 1819.05C210.45 1803.45 214.498 1788.75 221.622 1775.91C228.48 1763.56 238.184 1752.94 249.868 1744.9C264.889 1734.56 283.18 1728.49 302.896 1728.49L456.099 1728.49C507.08 1728.49 548.55 1769.11 548.55 1819.05L548.55 1975.89Z" fill="#000000" fill-rule="nonzero" opacity="1" stroke="none"/>
</g>
<path d="M332.617 483C301.38 483 275.971 458.094 275.971 427.507L275.971 331.464C275.971 321.908 278.455 312.916 282.804 305.048C287.004 297.476 292.949 290.968 300.109 286.058C309.306 279.728 320.517 276 332.586 276L426.412 276C457.62 276 483.029 300.877 483.029 331.462L483.029 427.505C483.029 458.09 457.622 482.998 426.412 482.998L379.5 482.998L332.617 482.998L332.617 483Z" fill="#000000" fill-rule="nonzero" opacity="1" stroke="none"/>
<path d="M1850.62 483C1819.38 483 1793.97 458.094 1793.97 427.507L1793.97 331.464C1793.97 321.908 1796.46 312.916 1800.8 305.048C1805 297.476 1810.95 290.968 1818.11 286.058C1827.31 279.728 1838.52 276 1850.59 276L1944.41 276C1975.62 276 2001.03 300.877 2001.03 331.462L2001.03 427.505C2001.03 458.09 1975.62 482.998 1944.41 482.998L1897.5 482.998L1850.62 482.998L1850.62 483Z" fill="#000000" fill-rule="nonzero" opacity="1" stroke="none"/>
<path d="M332.617 2001C301.38 2001 275.971 1976.09 275.971 1945.51L275.971 1849.46C275.971 1839.91 278.455 1830.92 282.804 1823.05C287.004 1815.48 292.949 1808.97 300.109 1804.06C309.306 1797.73 320.517 1794 332.586 1794L426.412 1794C457.62 1794 483.029 1818.88 483.029 1849.46L483.029 1945.51C483.029 1976.09 457.622 2001 426.412 2001L379.5 2001L332.617 2001L332.617 2001Z" fill="#000000" fill-rule="nonzero" opacity="1" stroke="none"/>
</g>
</g>
</svg>
